SplineFontDB: 3.2
FontName: Reijima-Regular
FullName: Reijima Regular
FamilyName: Reijima
Weight: Book
Copyright: Copyright (c) 2019 by Coji Morishita. All rights reserved.
Version: 1.000
ItalicAngle: 0
UnderlinePosition: -100
UnderlineWidth: 50
Ascent: 860
Descent: 140
InvalidEm: 0
LayerCount: 2
Layer: 0 0 "Back" 1
Layer: 1 0 "Fore" 0
FSType: 8
OS2Version: 0
OS2_WeightWidthSlopeOnly: 0
OS2_UseTypoMetrics: 0
CreationTime: 1707357834
ModificationTime: 1707357834
OS2TypoAscent: 0
OS2TypoAOffset: 1
OS2TypoDescent: 0
OS2TypoDOffset: 1
OS2TypoLinegap: 0
OS2WinAscent: 0
OS2WinAOffset: 1
OS2WinDescent: 0
OS2WinDOffset: 1
HheadAscent: 0
HheadAOffset: 1
HheadDescent: 0
HheadDOffset: 1
OS2Vendor: 'PfEd'
DEI: 91125
Encoding: UnicodeFull
Compacted: 1
UnicodeInterp: none
NameList: AGL For New Fonts
DisplaySize: -48
AntiAlias: 1
FitToEm: 0
WinInfo: 0 27 9
BeginPrivate: 2
BlueValues 24 [-10 0 520 530 730 750 ]
OtherBlues 12 [-220 -220 ]
EndPrivate
BeginChars: 1114125 955

StartChar: .notdef
Encoding: 1114112 -1 0
Width: 500
LayerCount: 2
Fore
SplineSet
410 -140 m 1
 93 -140 l 1
 93 860 l 1
 410 860 l 1
 410 -140 l 1
168 793 m 1
 168 760 l 1
 233 760 l 1
 233 723 l 1
 167 723 l 1
 167 690 l 1
 333 690 l 1
 333 723 l 1
 267 723 l 1
 267 760 l 1
 333 760 l 1
 333 793 l 1
 168 793 l 1
167 664 m 1
 167 560 l 1
 333 560 l 1
 333 594 l 1
 267 594 l 1
 267 664 l 1
 167 664 l 1
233 594 m 1
 200 594 l 1
 200 630 l 1
 233 630 l 1
 233 594 l 1
167 533 m 1
 167 500 l 1
 233 500 l 1
 233 463 l 1
 167 463 l 1
 167 430 l 1
 267 430 l 1
 267 500 l 1
 333 500 l 1
 333 533 l 1
 167 533 l 1
300 473 m 1
 300 407 l 1
 167 407 l 1
 167 373 l 1
 333 373 l 1
 333 473 l 1
 300 473 l 1
233 351 m 1
 233 295 l 1
 267 295 l 1
 267 318 l 1
 300 318 l 1
 300 271 l 1
 200 271 l 1
 200 351 l 1
 167 351 l 1
 167 238 l 1
 333 238 l 1
 333 351 l 1
 233 351 l 1
167 178 m 1
 167 65 l 1
 333 65 l 1
 333 178 l 1
 167 178 l 1
300 98 m 1
 200 98 l 1
 200 145 l 1
 300 145 l 1
 300 98 l 1
167 42 m 1
 167 9 l 1
 237 9 l 1
 167 -38 l 1
 167 -71 l 1
 333 -71 l 1
 333 -38 l 1
 231 -38 l 1
 301 9 l 1
 333 9 l 1
 333 42 l 1
 167 42 l 1
EndSplineSet
EndChar

StartChar: A
Encoding: 65 65 2
Width: 665
Flags: W
LayerCount: 2
Fore
SplineSet
563 0 m 1
 493 201 l 1
 172 201 l 1
 102 0 l 1
 14 0 l 1
 278 730 l 1
 388 730 l 1
 651 0 l 1
 563 0 l 1
197 274 m 1
 468 274 l 1
 334 661 l 1
 332 661 l 1
 197 274 l 1
EndSplineSet
EndChar

StartChar: Aacute
Encoding: 193 193 3
Width: 665
Flags: W
LayerCount: 2
Fore
SplineSet
563 0 m 1
 493 201 l 1
 172 201 l 1
 102 0 l 1
 14 0 l 1
 278 730 l 1
 388 730 l 1
 651 0 l 1
 563 0 l 1
197 274 m 1
 468 274 l 1
 334 661 l 1
 332 661 l 1
 197 274 l 1
323 770 m 1
 242 770 l 1
 345 980 l 1
 446 980 l 1
 323 770 l 1
EndSplineSet
EndChar

StartChar: Abreve
Encoding: 258 258 4
Width: 665
Flags: W
LayerCount: 2
Fore
SplineSet
563 0 m 1
 493 201 l 1
 172 201 l 1
 102 0 l 1
 14 0 l 1
 278 730 l 1
 388 730 l 1
 651 0 l 1
 563 0 l 1
197 274 m 1
 468 274 l 1
 334 661 l 1
 332 661 l 1
 197 274 l 1
202 833 m 0
 166 862 147 899 143 944 c 1
 228 944 l 1
 232 915 243 893 262 878 c 0
 280 863 304 855 333 855 c 0
 362 855 386 863 404 878 c 0
 422 893 433 915 437 944 c 1
 522 944 l 1
 518 899 498 862 464 833 c 0
 428 804 385 790 333 790 c 0
 280 790 236 804 202 833 c 0
EndSplineSet
EndChar

StartChar: uni1EAE
Encoding: 7854 7854 5
Width: 665
Flags: W
LayerCount: 2
Fore
SplineSet
563 0 m 1
 493 201 l 1
 172 201 l 1
 102 0 l 1
 14 0 l 1
 278 730 l 1
 388 730 l 1
 651 0 l 1
 563 0 l 1
197 274 m 1
 468 274 l 1
 334 661 l 1
 332 661 l 1
 197 274 l 1
202 833 m 0
 166 862 147 899 143 944 c 1
 228 944 l 1
 232 915 243 893 262 878 c 0
 280 863 304 855 333 855 c 0
 362 855 386 863 404 878 c 0
 422 893 433 915 437 944 c 1
 522 944 l 1
 518 899 498 862 464 833 c 0
 428 804 385 790 333 790 c 0
 280 790 236 804 202 833 c 0
323 930 m 1
 242 930 l 1
 345 1140 l 1
 446 1140 l 1
 323 930 l 1
EndSplineSet
EndChar

StartChar: uni1EB6
Encoding: 7862 7862 6
Width: 665
Flags: W
LayerCount: 2
Fore
SplineSet
563 0 m 1
 493 201 l 1
 172 201 l 1
 102 0 l 1
 14 0 l 1
 278 730 l 1
 388 730 l 1
 651 0 l 1
 563 0 l 1
197 274 m 1
 468 274 l 1
 334 661 l 1
 332 661 l 1
 197 274 l 1
281 -93 m 1
 385 -93 l 1
 385 -197 l 1
 281 -197 l 1
 281 -93 l 1
202 833 m 0
 166 862 147 899 143 944 c 1
 228 944 l 1
 232 915 243 893 262 878 c 0
 280 863 304 855 333 855 c 0
 362 855 386 863 404 878 c 0
 422 893 433 915 437 944 c 1
 522 944 l 1
 518 899 498 862 464 833 c 0
 428 804 385 790 333 790 c 0
 280 790 236 804 202 833 c 0
EndSplineSet
EndChar

StartChar: uni1EB0
Encoding: 7856 7856 7
Width: 665
Flags: W
LayerCount: 2
Fore
SplineSet
563 0 m 1
 493 201 l 1
 172 201 l 1
 102 0 l 1
 14 0 l 1
 278 730 l 1
 388 730 l 1
 651 0 l 1
 563 0 l 1
197 274 m 1
 468 274 l 1
 334 661 l 1
 332 661 l 1
 197 274 l 1
202 833 m 0
 166 862 147 899 143 944 c 1
 228 944 l 1
 232 915 243 893 262 878 c 0
 280 863 304 855 333 855 c 0
 362 855 386 863 404 878 c 0
 422 893 433 915 437 944 c 1
 522 944 l 1
 518 899 498 862 464 833 c 0
 428 804 385 790 333 790 c 0
 280 790 236 804 202 833 c 0
219 1140 m 1
 320 1140 l 1
 423 930 l 1
 342 930 l 1
 219 1140 l 1
EndSplineSet
EndChar

StartChar: uni1EB2
Encoding: 7858 7858 8
Width: 665
Flags: W
LayerCount: 2
Fore
SplineSet
400 876 m 0
 418 889 430 909 435 934 c 1
 382 934 l 1
 386 944 390 956 392 971 c 0
 396 986 397 998 397 1008 c 0
 397 1025 391 1036 380 1042 c 0
 369 1047 348 1050 317 1050 c 0
 276 1050 235 1044 194 1033 c 1
 186 1097 l 1
 231 1108 281 1114 334 1114 c 0
 372 1114 402 1112 422 1107 c 0
 444 1102 458 1094 468 1083 c 0
 476 1072 481 1056 481 1035 c 0
 481 1022 480 1007 477 990 c 0
 474 973 471 958 466 944 c 1
 522 944 l 1
 518 899 498 862 464 833 c 0
 428 804 385 790 333 790 c 0
 280 790 236 804 202 833 c 0
 166 862 147 899 143 944 c 1
 228 944 l 1
 232 915 243 893 262 878 c 0
 280 863 304 855 333 855 c 0
 360 855 383 862 400 876 c 0
563 0 m 1
 493 201 l 1
 172 201 l 1
 102 0 l 1
 14 0 l 1
 278 730 l 1
 388 730 l 1
 651 0 l 1
 563 0 l 1
197 274 m 1
 468 274 l 1
 334 661 l 1
 332 661 l 1
 197 274 l 1
EndSplineSet
EndChar

StartChar: uni1EB4
Encoding: 7860 7860 9
Width: 665
Flags: W
LayerCount: 2
Fore
SplineSet
563 0 m 1
 493 201 l 1
 172 201 l 1
 102 0 l 1
 14 0 l 1
 278 730 l 1
 388 730 l 1
 651 0 l 1
 563 0 l 1
197 274 m 1
 468 274 l 1
 334 661 l 1
 332 661 l 1
 197 274 l 1
202 833 m 0
 166 862 147 899 143 944 c 1
 228 944 l 1
 232 915 243 893 262 878 c 0
 280 863 304 855 333 855 c 0
 362 855 386 863 404 878 c 0
 422 893 433 915 437 944 c 1
 522 944 l 1
 518 899 498 862 464 833 c 0
 428 804 385 790 333 790 c 0
 280 790 236 804 202 833 c 0
321 1040 m 0
 290 1062 266 1073 248 1073 c 0
 237 1073 230 1068 224 1057 c 0
 220 1046 217 1028 217 1003 c 1
 143 1003 l 1
 143 1053 150 1090 164 1114 c 0
 179 1139 201 1151 232 1151 c 0
 263 1151 301 1135 345 1104 c 0
 375 1082 399 1071 417 1071 c 0
 428 1071 436 1076 440 1087 c 0
 446 1098 448 1116 448 1141 c 1
 522 1141 l 1
 522 1091 515 1054 500 1030 c 0
 486 1005 464 993 434 993 c 0
 404 993 366 1009 321 1040 c 0
EndSplineSet
EndChar

StartChar: Acircumflex
Encoding: 194 194 10
Width: 665
Flags: W
LayerCount: 2
Fore
SplineSet
563 0 m 1
 493 201 l 1
 172 201 l 1
 102 0 l 1
 14 0 l 1
 278 730 l 1
 388 730 l 1
 651 0 l 1
 563 0 l 1
197 274 m 1
 468 274 l 1
 334 661 l 1
 332 661 l 1
 197 274 l 1
264 980 m 1
 402 980 l 1
 538 770 l 1
 443 770 l 1
 334 942 l 1
 332 942 l 1
 223 770 l 1
 128 770 l 1
 264 980 l 1
EndSplineSet
EndChar

StartChar: uni1EA4
Encoding: 7844 7844 11
Width: 665
Flags: W
LayerCount: 2
Fore
SplineSet
563 0 m 1
 493 201 l 1
 172 201 l 1
 102 0 l 1
 14 0 l 1
 278 730 l 1
 388 730 l 1
 651 0 l 1
 563 0 l 1
197 274 m 1
 468 274 l 1
 334 661 l 1
 332 661 l 1
 197 274 l 1
264 980 m 1
 402 980 l 1
 538 770 l 1
 443 770 l 1
 334 942 l 1
 332 942 l 1
 223 770 l 1
 128 770 l 1
 264 980 l 1
520 950 m 1
 439 950 l 1
 542 1160 l 1
 643 1160 l 1
 520 950 l 1
EndSplineSet
EndChar

StartChar: uni1EAC
Encoding: 7852 7852 12
Width: 665
Flags: W
LayerCount: 2
Fore
SplineSet
563 0 m 1
 493 201 l 1
 172 201 l 1
 102 0 l 1
 14 0 l 1
 278 730 l 1
 388 730 l 1
 651 0 l 1
 563 0 l 1
197 274 m 1
 468 274 l 1
 334 661 l 1
 332 661 l 1
 197 274 l 1
281 -93 m 1
 385 -93 l 1
 385 -197 l 1
 281 -197 l 1
 281 -93 l 1
264 980 m 1
 402 980 l 1
 538 770 l 1
 443 770 l 1
 334 942 l 1
 332 942 l 1
 223 770 l 1
 128 770 l 1
 264 980 l 1
EndSplineSet
EndChar

StartChar: uni1EA6
Encoding: 7846 7846 13
Width: 665
Flags: W
LayerCount: 2
Fore
SplineSet
563 0 m 1
 493 201 l 1
 172 201 l 1
 102 0 l 1
 14 0 l 1
 278 730 l 1
 388 730 l 1
 651 0 l 1
 563 0 l 1
197 274 m 1
 468 274 l 1
 334 661 l 1
 332 661 l 1
 197 274 l 1
264 980 m 1
 402 980 l 1
 538 770 l 1
 443 770 l 1
 334 942 l 1
 332 942 l 1
 223 770 l 1
 128 770 l 1
 264 980 l 1
22 1160 m 1
 123 1160 l 1
 226 950 l 1
 145 950 l 1
 22 1160 l 1
EndSplineSet
EndChar

StartChar: uni1EA8
Encoding: 7848 7848 14
Width: 665
Flags: W
LayerCount: 2
Fore
SplineSet
563 0 m 1
 493 201 l 1
 172 201 l 1
 102 0 l 1
 14 0 l 1
 278 730 l 1
 388 730 l 1
 651 0 l 1
 563 0 l 1
197 274 m 1
 468 274 l 1
 334 661 l 1
 332 661 l 1
 197 274 l 1
264 980 m 1
 402 980 l 1
 538 770 l 1
 443 770 l 1
 334 942 l 1
 332 942 l 1
 223 770 l 1
 128 770 l 1
 264 980 l 1
466 967 m 0
 468 982 470 994 470 1004 c 0
 470 1021 464 1032 453 1038 c 0
 442 1043 421 1046 390 1046 c 0
 349 1046 308 1040 267 1029 c 1
 259 1093 l 1
 304 1104 354 1110 407 1110 c 0
 445 1110 474 1108 496 1103 c 0
 516 1098 532 1090 540 1079 c 0
 550 1068 554 1052 554 1031 c 0
 554 1016 552 999 549 980 c 0
 546 961 541 944 536 930 c 1
 455 930 l 1
 459 940 462 952 466 967 c 0
EndSplineSet
EndChar

StartChar: uni1EAA
Encoding: 7850 7850 15
Width: 665
Flags: W
LayerCount: 2
Fore
SplineSet
563 0 m 1
 493 201 l 1
 172 201 l 1
 102 0 l 1
 14 0 l 1
 278 730 l 1
 388 730 l 1
 651 0 l 1
 563 0 l 1
197 274 m 1
 468 274 l 1
 334 661 l 1
 332 661 l 1
 197 274 l 1
264 980 m 1
 402 980 l 1
 538 770 l 1
 443 770 l 1
 334 942 l 1
 332 942 l 1
 223 770 l 1
 128 770 l 1
 264 980 l 1
321 1040 m 0
 290 1062 266 1073 248 1073 c 0
 237 1073 230 1068 224 1057 c 0
 220 1046 217 1028 217 1003 c 1
 143 1003 l 1
 143 1053 150 1090 164 1114 c 0
 179 1139 201 1151 232 1151 c 0
 263 1151 301 1135 345 1104 c 0
 375 1082 399 1071 417 1071 c 0
 428 1071 436 1076 440 1087 c 0
 446 1098 448 1116 448 1141 c 1
 522 1141 l 1
 522 1091 515 1054 500 1030 c 0
 486 1005 464 993 434 993 c 0
 404 993 366 1009 321 1040 c 0
EndSplineSet
EndChar

StartChar: uni0200
Encoding: 512 512 16
Width: 665
Flags: W
LayerCount: 2
Fore
SplineSet
563 0 m 1
 493 201 l 1
 172 201 l 1
 102 0 l 1
 14 0 l 1
 278 730 l 1
 388 730 l 1
 651 0 l 1
 563 0 l 1
197 274 m 1
 468 274 l 1
 334 661 l 1
 332 661 l 1
 197 274 l 1
112 980 m 1
 213 980 l 1
 316 770 l 1
 235 770 l 1
 112 980 l 1
322 980 m 1
 423 980 l 1
 526 770 l 1
 445 770 l 1
 322 980 l 1
EndSplineSet
EndChar

StartChar: Adieresis
Encoding: 196 196 17
Width: 665
Flags: W
LayerCount: 2
Fore
SplineSet
563 0 m 1
 493 201 l 1
 172 201 l 1
 102 0 l 1
 14 0 l 1
 278 730 l 1
 388 730 l 1
 651 0 l 1
 563 0 l 1
197 274 m 1
 468 274 l 1
 334 661 l 1
 332 661 l 1
 197 274 l 1
156 927 m 1
 260 927 l 1
 260 823 l 1
 156 823 l 1
 156 927 l 1
405 927 m 1
 509 927 l 1
 509 823 l 1
 405 823 l 1
 405 927 l 1
EndSplineSet
EndChar

StartChar: uni1EA0
Encoding: 7840 7840 18
Width: 665
Flags: W
LayerCount: 2
Fore
SplineSet
563 0 m 1
 493 201 l 1
 172 201 l 1
 102 0 l 1
 14 0 l 1
 278 730 l 1
 388 730 l 1
 651 0 l 1
 563 0 l 1
197 274 m 1
 468 274 l 1
 334 661 l 1
 332 661 l 1
 197 274 l 1
281 -93 m 1
 385 -93 l 1
 385 -197 l 1
 281 -197 l 1
 281 -93 l 1
EndSplineSet
EndChar

StartChar: Agrave
Encoding: 192 192 19
Width: 665
Flags: W
LayerCount: 2
Fore
SplineSet
563 0 m 1
 493 201 l 1
 172 201 l 1
 102 0 l 1
 14 0 l 1
 278 730 l 1
 388 730 l 1
 651 0 l 1
 563 0 l 1
197 274 m 1
 468 274 l 1
 334 661 l 1
 332 661 l 1
 197 274 l 1
219 980 m 1
 320 980 l 1
 423 770 l 1
 342 770 l 1
 219 980 l 1
EndSplineSet
EndChar

StartChar: uni1EA2
Encoding: 7842 7842 20
Width: 665
Flags: W
LayerCount: 2
Fore
SplineSet
563 0 m 1
 493 201 l 1
 172 201 l 1
 102 0 l 1
 14 0 l 1
 278 730 l 1
 388 730 l 1
 651 0 l 1
 563 0 l 1
197 274 m 1
 468 274 l 1
 334 661 l 1
 332 661 l 1
 197 274 l 1
392 837 m 0
 394 852 396 864 396 874 c 0
 396 891 390 902 379 908 c 0
 368 913 347 916 316 916 c 0
 275 916 234 910 193 899 c 1
 185 963 l 1
 230 974 280 980 333 980 c 0
 371 980 400 978 422 973 c 0
 442 968 458 960 466 949 c 0
 476 938 480 922 480 901 c 0
 480 886 478 869 475 850 c 0
 472 831 467 814 462 800 c 1
 381 800 l 1
 385 810 388 822 392 837 c 0
EndSplineSet
EndChar

StartChar: uni0202
Encoding: 514 514 21
Width: 665
Flags: W
LayerCount: 2
Fore
SplineSet
563 0 m 1
 493 201 l 1
 172 201 l 1
 102 0 l 1
 14 0 l 1
 278 730 l 1
 388 730 l 1
 651 0 l 1
 563 0 l 1
197 274 m 1
 468 274 l 1
 334 661 l 1
 332 661 l 1
 197 274 l 1
464 917 m 0
 498 888 518 851 522 806 c 1
 437 806 l 1
 433 835 422 857 404 872 c 0
 386 887 362 895 333 895 c 0
 304 895 280 887 262 872 c 0
 243 857 232 835 228 806 c 1
 143 806 l 1
 147 851 166 888 202 917 c 0
 236 946 280 960 333 960 c 0
 385 960 428 946 464 917 c 0
EndSplineSet
EndChar

StartChar: Amacron
Encoding: 256 256 22
Width: 665
Flags: W
LayerCount: 2
Fore
SplineSet
563 0 m 1
 493 201 l 1
 172 201 l 1
 102 0 l 1
 14 0 l 1
 278 730 l 1
 388 730 l 1
 651 0 l 1
 563 0 l 1
197 274 m 1
 468 274 l 1
 334 661 l 1
 332 661 l 1
 197 274 l 1
151 907 m 1
 514 907 l 1
 514 843 l 1
 151 843 l 1
 151 907 l 1
EndSplineSet
EndChar

StartChar: Aogonek
Encoding: 260 260 23
Width: 665
Flags: W
LayerCount: 2
Fore
SplineSet
740 -197 m 1
 708 -211 671 -218 629 -218 c 0
 579 -218 542 -209 516 -191 c 0
 492 -173 479 -149 479 -120 c 0
 479 -75 506 -33 561 7 c 1
 493 201 l 1
 172 201 l 1
 102 0 l 1
 14 0 l 1
 278 730 l 1
 388 730 l 1
 651 0 l 1
 620 -18 596 -36 579 -54 c 0
 562 -73 554 -90 554 -107 c 0
 554 -123 561 -135 576 -142 c 0
 591 -149 610 -153 635 -153 c 0
 668 -153 699 -147 726 -134 c 1
 740 -197 l 1
197 274 m 1
 468 274 l 1
 334 661 l 1
 332 661 l 1
 197 274 l 1
EndSplineSet
EndChar

StartChar: Aring
Encoding: 197 197 24
Width: 665
Flags: W
LayerCount: 2
Fore
SplineSet
493 201 m 1
 172 201 l 1
 102 0 l 1
 14 0 l 1
 273 717 l 1
 249 728 230 746 214 768 c 0
 200 792 192 817 192 845 c 0
 192 870 198 894 211 916 c 0
 224 938 241 955 262 968 c 0
 284 981 308 987 334 987 c 0
 359 987 383 981 404 968 c 0
 426 955 443 938 456 916 c 0
 469 894 475 870 475 845 c 0
 475 817 468 792 452 768 c 0
 438 746 418 728 393 716 c 1
 651 0 l 1
 563 0 l 1
 493 201 l 1
276 903 m 0
 260 887 252 868 252 845 c 0
 252 822 260 803 276 787 c 0
 292 771 311 763 334 763 c 0
 357 763 376 771 392 787 c 0
 407 803 415 822 415 845 c 0
 415 868 407 887 392 903 c 0
 376 919 357 927 334 927 c 0
 311 927 292 919 276 903 c 0
197 274 m 1
 468 274 l 1
 334 661 l 1
 332 661 l 1
 197 274 l 1
EndSplineSet
EndChar

StartChar: Aringacute
Encoding: 506 506 25
Width: 665
Flags: W
LayerCount: 2
Fore
SplineSet
493 201 m 1
 172 201 l 1
 102 0 l 1
 14 0 l 1
 273 717 l 1
 249 728 230 746 214 768 c 0
 200 792 192 817 192 845 c 0
 192 867 197 888 206 908 c 0
 216 927 229 944 246 957 c 1
 345 1158 l 1
 446 1158 l 1
 346 987 l 1
 382 984 412 968 438 941 c 0
 462 914 475 882 475 845 c 0
 475 817 468 792 452 768 c 0
 438 746 418 728 393 716 c 1
 651 0 l 1
 563 0 l 1
 493 201 l 1
276 903 m 0
 260 887 252 868 252 845 c 0
 252 822 260 803 276 787 c 0
 292 771 311 763 334 763 c 0
 357 763 376 771 392 787 c 0
 407 803 415 822 415 845 c 0
 415 868 407 887 392 903 c 0
 376 919 357 927 334 927 c 0
 311 927 292 919 276 903 c 0
197 274 m 1
 468 274 l 1
 334 661 l 1
 332 661 l 1
 197 274 l 1
EndSplineSet
EndChar

StartChar: Atilde
Encoding: 195 195 26
Width: 665
Flags: W
LayerCount: 2
Fore
SplineSet
563 0 m 1
 493 201 l 1
 172 201 l 1
 102 0 l 1
 14 0 l 1
 278 730 l 1
 388 730 l 1
 651 0 l 1
 563 0 l 1
197 274 m 1
 468 274 l 1
 334 661 l 1
 332 661 l 1
 197 274 l 1
321 843 m 0
 290 865 266 876 248 876 c 0
 237 876 230 871 224 860 c 0
 220 849 217 831 217 806 c 1
 143 806 l 1
 143 856 150 893 164 918 c 0
 179 942 201 954 232 954 c 0
 263 954 301 938 345 907 c 0
 375 885 399 874 417 874 c 0
 428 874 436 879 440 890 c 0
 446 901 448 919 448 944 c 1
 522 944 l 1
 522 894 515 857 500 832 c 0
 486 808 464 796 434 796 c 0
 404 796 366 812 321 843 c 0
EndSplineSet
EndChar

StartChar: AE
Encoding: 198 198 27
Width: 840
Flags: W
LayerCount: 2
Fore
SplineSet
774 658 m 1
 490 658 l 1
 490 420 l 1
 754 420 l 1
 754 350 l 1
 490 350 l 1
 490 72 l 1
 774 72 l 1
 774 0 l 1
 410 0 l 1
 410 201 l 1
 189 201 l 1
 103 0 l 1
 14 0 l 1
 336 730 l 1
 774 730 l 1
 774 658 l 1
220 274 m 1
 410 274 l 1
 410 663 l 1
 387 663 l 1
 220 274 l 1
EndSplineSet
EndChar

StartChar: AEacute
Encoding: 508 508 28
Width: 840
Flags: W
LayerCount: 2
Fore
SplineSet
774 658 m 1
 490 658 l 1
 490 420 l 1
 754 420 l 1
 754 350 l 1
 490 350 l 1
 490 72 l 1
 774 72 l 1
 774 0 l 1
 410 0 l 1
 410 201 l 1
 189 201 l 1
 103 0 l 1
 14 0 l 1
 336 730 l 1
 774 730 l 1
 774 658 l 1
220 274 m 1
 410 274 l 1
 410 663 l 1
 387 663 l 1
 220 274 l 1
444 770 m 1
 363 770 l 1
 466 980 l 1
 567 980 l 1
 444 770 l 1
EndSplineSet
EndChar

StartChar: B
Encoding: 66 66 29
Width: 635
Flags: W
LayerCount: 2
Fore
SplineSet
598 203 m 0
 598 134 573 83 522 50 c 0
 472 17 395 0 292 0 c 2
 85 0 l 1
 85 730 l 1
 288 730 l 2
 381 730 450 716 496 686 c 0
 542 658 565 613 565 554 c 0
 565 510 553 474 530 446 c 0
 506 418 471 399 426 390 c 1
 426 388 l 1
 541 370 598 308 598 203 c 0
165 658 m 1
 165 420 l 1
 292 420 l 2
 358 420 407 430 438 450 c 0
 469 469 485 500 485 541 c 0
 485 582 470 611 438 630 c 0
 408 649 359 658 292 658 c 2
 165 658 l 1
462 106 m 0
 499 128 517 163 517 211 c 0
 517 259 499 294 462 316 c 0
 426 339 369 350 292 350 c 2
 165 350 l 1
 165 72 l 1
 292 72 l 2
 369 72 426 83 462 106 c 0
EndSplineSet
EndChar

StartChar: C
Encoding: 67 67 30
Width: 689
Flags: W
LayerCount: 2
Fore
SplineSet
210 36 m 0
 156 66 114 109 86 166 c 0
 56 222 42 288 42 365 c 0
 42 442 56 508 86 564 c 0
 114 621 156 664 210 694 c 0
 265 725 329 740 403 740 c 0
 493 740 571 718 638 674 c 1
 603 609 l 1
 543 648 477 667 406 667 c 0
 349 667 299 655 256 630 c 0
 213 606 181 571 158 526 c 0
 135 480 124 426 124 365 c 0
 124 304 135 250 158 204 c 0
 181 159 213 124 256 100 c 0
 299 75 349 63 406 63 c 0
 477 63 543 82 603 121 c 1
 638 56 l 1
 571 12 493 -10 403 -10 c 0
 329 -10 265 5 210 36 c 0
EndSplineSet
EndChar

StartChar: Cacute
Encoding: 262 262 31
Width: 689
Flags: W
LayerCount: 2
Fore
SplineSet
210 36 m 0
 156 66 114 109 86 166 c 0
 56 222 42 288 42 365 c 0
 42 442 56 508 86 564 c 0
 114 621 156 664 210 694 c 0
 265 725 329 740 403 740 c 0
 493 740 571 718 638 674 c 1
 603 609 l 1
 543 648 477 667 406 667 c 0
 349 667 299 655 256 630 c 0
 213 606 181 571 158 526 c 0
 135 480 124 426 124 365 c 0
 124 304 135 250 158 204 c 0
 181 159 213 124 256 100 c 0
 299 75 349 63 406 63 c 0
 477 63 543 82 603 121 c 1
 638 56 l 1
 571 12 493 -10 403 -10 c 0
 329 -10 265 5 210 36 c 0
371 770 m 1
 290 770 l 1
 393 980 l 1
 494 980 l 1
 371 770 l 1
EndSplineSet
EndChar

StartChar: Ccaron
Encoding: 268 268 32
Width: 689
Flags: W
LayerCount: 2
Fore
SplineSet
210 36 m 0
 156 66 114 109 86 166 c 0
 56 222 42 288 42 365 c 0
 42 442 56 508 86 564 c 0
 114 621 156 664 210 694 c 0
 265 725 329 740 403 740 c 0
 493 740 571 718 638 674 c 1
 603 609 l 1
 543 648 477 667 406 667 c 0
 349 667 299 655 256 630 c 0
 213 606 181 571 158 526 c 0
 135 480 124 426 124 365 c 0
 124 304 135 250 158 204 c 0
 181 159 213 124 256 100 c 0
 299 75 349 63 406 63 c 0
 477 63 543 82 603 121 c 1
 638 56 l 1
 571 12 493 -10 403 -10 c 0
 329 -10 265 5 210 36 c 0
176 980 m 1
 271 980 l 1
 380 808 l 1
 382 808 l 1
 491 980 l 1
 586 980 l 1
 450 770 l 1
 312 770 l 1
 176 980 l 1
EndSplineSet
EndChar

StartChar: Ccedilla
Encoding: 199 199 33
Width: 689
Flags: W
LayerCount: 2
Fore
SplineSet
638 56 m 1
 582 19 519 -2 448 -8 c 1
 489 -44 510 -81 510 -120 c 0
 510 -149 498 -173 472 -191 c 0
 448 -209 410 -218 360 -218 c 0
 319 -218 282 -211 250 -197 c 1
 264 -135 l 1
 293 -148 323 -154 354 -154 c 0
 379 -154 398 -150 413 -142 c 0
 428 -135 435 -123 435 -107 c 0
 435 -76 407 -43 350 -7 c 1
 286 0 231 19 185 51 c 0
 139 83 104 126 79 179 c 0
 54 232 42 294 42 365 c 0
 42 442 56 508 86 564 c 0
 114 621 156 664 210 694 c 0
 265 725 329 740 403 740 c 0
 493 740 571 718 638 674 c 1
 603 609 l 1
 543 648 477 667 406 667 c 0
 349 667 299 655 256 630 c 0
 213 606 181 571 158 526 c 0
 135 480 124 426 124 365 c 0
 124 304 135 250 158 204 c 0
 181 159 213 124 256 100 c 0
 299 75 349 63 406 63 c 0
 477 63 543 82 603 121 c 1
 638 56 l 1
EndSplineSet
EndChar

StartChar: Ccircumflex
Encoding: 264 264 34
Width: 689
Flags: W
LayerCount: 2
Fore
SplineSet
210 36 m 0
 156 66 114 109 86 166 c 0
 56 222 42 288 42 365 c 0
 42 442 56 508 86 564 c 0
 114 621 156 664 210 694 c 0
 265 725 329 740 403 740 c 0
 493 740 571 718 638 674 c 1
 603 609 l 1
 543 648 477 667 406 667 c 0
 349 667 299 655 256 630 c 0
 213 606 181 571 158 526 c 0
 135 480 124 426 124 365 c 0
 124 304 135 250 158 204 c 0
 181 159 213 124 256 100 c 0
 299 75 349 63 406 63 c 0
 477 63 543 82 603 121 c 1
 638 56 l 1
 571 12 493 -10 403 -10 c 0
 329 -10 265 5 210 36 c 0
311 980 m 1
 449 980 l 1
 585 770 l 1
 490 770 l 1
 381 942 l 1
 379 942 l 1
 270 770 l 1
 175 770 l 1
 311 980 l 1
EndSplineSet
EndChar

StartChar: Cdotaccent
Encoding: 266 266 35
Width: 689
Flags: W
LayerCount: 2
Fore
SplineSet
210 36 m 0
 156 66 114 109 86 166 c 0
 56 222 42 288 42 365 c 0
 42 442 56 508 86 564 c 0
 114 621 156 664 210 694 c 0
 265 725 329 740 403 740 c 0
 493 740 571 718 638 674 c 1
 603 609 l 1
 543 648 477 667 406 667 c 0
 349 667 299 655 256 630 c 0
 213 606 181 571 158 526 c 0
 135 480 124 426 124 365 c 0
 124 304 135 250 158 204 c 0
 181 159 213 124 256 100 c 0
 299 75 349 63 406 63 c 0
 477 63 543 82 603 121 c 1
 638 56 l 1
 571 12 493 -10 403 -10 c 0
 329 -10 265 5 210 36 c 0
328 927 m 1
 432 927 l 1
 432 823 l 1
 328 823 l 1
 328 927 l 1
EndSplineSet
EndChar

StartChar: D
Encoding: 68 68 36
Width: 681
Flags: W
LayerCount: 2
Fore
SplineSet
268 730 m 2
 392 730 485 700 546 640 c 0
 607 579 638 488 638 365 c 0
 638 242 607 151 546 90 c 0
 485 30 392 0 268 0 c 2
 85 0 l 1
 85 730 l 1
 268 730 l 2
488 144 m 0
 534 190 557 264 557 365 c 0
 557 466 534 540 488 586 c 0
 442 634 370 657 273 657 c 2
 165 657 l 1
 165 73 l 1
 273 73 l 2
 370 73 442 96 488 144 c 0
EndSplineSet
EndChar

StartChar: uni01C4
Encoding: 452 452 37
Width: 1274
Flags: W
LayerCount: 2
Fore
SplineSet
268 730 m 2
 392 730 485 700 546 640 c 0
 607 579 638 488 638 365 c 0
 638 242 607 151 546 90 c 0
 485 30 392 0 268 0 c 2
 85 0 l 1
 85 730 l 1
 268 730 l 2
488 144 m 0
 534 190 557 264 557 365 c 0
 557 466 534 540 488 586 c 0
 442 634 370 657 273 657 c 2
 165 657 l 1
 165 73 l 1
 273 73 l 2
 370 73 442 96 488 144 c 0
706 73 m 1
 1107 655 l 1
 1107 657 l 1
 706 657 l 1
 706 730 l 1
 1206 730 l 1
 1206 657 l 1
 805 75 l 1
 805 73 l 1
 1206 73 l 1
 1206 0 l 1
 706 0 l 1
 706 73 l 1
752 980 m 1
 847 980 l 1
 956 808 l 1
 958 808 l 1
 1067 980 l 1
 1162 980 l 1
 1026 770 l 1
 888 770 l 1
 752 980 l 1
EndSplineSet
EndChar

StartChar: Eth
Encoding: 208 208 38
Width: 732
Flags: W
LayerCount: 2
Fore
SplineSet
598 640 m 0
 659 579 690 488 690 365 c 0
 690 242 659 151 598 90 c 0
 537 30 444 0 320 0 c 2
 136 0 l 1
 136 332 l 1
 28 332 l 1
 28 398 l 1
 136 398 l 1
 136 730 l 1
 320 730 l 2
 444 730 537 700 598 640 c 0
540 144 m 0
 585 190 608 264 608 365 c 0
 608 466 585 540 540 586 c 0
 494 634 422 657 324 657 c 2
 216 657 l 1
 216 398 l 1
 443 398 l 1
 443 332 l 1
 216 332 l 1
 216 73 l 1
 324 73 l 2
 422 73 494 96 540 144 c 0
EndSplineSet
EndChar

StartChar: Dcaron
Encoding: 270 270 39
Width: 681
Flags: W
LayerCount: 2
Fore
SplineSet
268 730 m 2
 392 730 485 700 546 640 c 0
 607 579 638 488 638 365 c 0
 638 242 607 151 546 90 c 0
 485 30 392 0 268 0 c 2
 85 0 l 1
 85 730 l 1
 268 730 l 2
488 144 m 0
 534 190 557 264 557 365 c 0
 557 466 534 540 488 586 c 0
 442 634 370 657 273 657 c 2
 165 657 l 1
 165 73 l 1
 273 73 l 2
 370 73 442 96 488 144 c 0
136 980 m 1
 231 980 l 1
 340 808 l 1
 342 808 l 1
 451 980 l 1
 546 980 l 1
 410 770 l 1
 272 770 l 1
 136 980 l 1
EndSplineSet
EndChar

StartChar: Dcroat
Encoding: 272 272 40
Width: 732
Flags: W
LayerCount: 2
Fore
SplineSet
598 640 m 0
 659 579 690 488 690 365 c 0
 690 242 659 151 598 90 c 0
 537 30 444 0 320 0 c 2
 136 0 l 1
 136 332 l 1
 28 332 l 1
 28 398 l 1
 136 398 l 1
 136 730 l 1
 320 730 l 2
 444 730 537 700 598 640 c 0
540 144 m 0
 585 190 608 264 608 365 c 0
 608 466 585 540 540 586 c 0
 494 634 422 657 324 657 c 2
 216 657 l 1
 216 398 l 1
 443 398 l 1
 443 332 l 1
 216 332 l 1
 216 73 l 1
 324 73 l 2
 422 73 494 96 540 144 c 0
EndSplineSet
EndChar

StartChar: uni01C5
Encoding: 453 453 41
Width: 1180
Flags: W
LayerCount: 2
Fore
SplineSet
268 730 m 2
 392 730 485 700 546 640 c 0
 607 579 638 488 638 365 c 0
 638 242 607 151 546 90 c 0
 485 30 392 0 268 0 c 2
 85 0 l 1
 85 730 l 1
 268 730 l 2
488 144 m 0
 534 190 557 264 557 365 c 0
 557 466 534 540 488 586 c 0
 442 634 370 657 273 657 c 2
 165 657 l 1
 165 73 l 1
 273 73 l 2
 370 73 442 96 488 144 c 0
724 67 m 1
 1028 451 l 1
 1028 453 l 1
 724 453 l 1
 724 520 l 1
 1127 520 l 1
 1127 453 l 1
 823 69 l 1
 823 67 l 1
 1127 67 l 1
 1127 0 l 1
 724 0 l 1
 724 67 l 1
721 770 m 1
 816 770 l 1
 925 598 l 1
 927 598 l 1
 1036 770 l 1
 1131 770 l 1
 995 560 l 1
 857 560 l 1
 721 770 l 1
EndSplineSet
EndChar

StartChar: E
Encoding: 69 69 42
Width: 595
Flags: W
LayerCount: 2
Fore
SplineSet
85 730 m 1
 528 730 l 1
 528 658 l 1
 165 658 l 1
 165 420 l 1
 508 420 l 1
 508 350 l 1
 165 350 l 1
 165 72 l 1
 528 72 l 1
 528 0 l 1
 85 0 l 1
 85 730 l 1
EndSplineSet
EndChar

StartChar: Eacute
Encoding: 201 201 43
Width: 595
Flags: W
LayerCount: 2
Fore
SplineSet
85 730 m 1
 528 730 l 1
 528 658 l 1
 165 658 l 1
 165 420 l 1
 508 420 l 1
 508 350 l 1
 165 350 l 1
 165 72 l 1
 528 72 l 1
 528 0 l 1
 85 0 l 1
 85 730 l 1
301 770 m 1
 220 770 l 1
 323 980 l 1
 424 980 l 1
 301 770 l 1
EndSplineSet
EndChar

StartChar: Ebreve
Encoding: 276 276 44
Width: 595
Flags: W
LayerCount: 2
Fore
SplineSet
85 730 m 1
 528 730 l 1
 528 658 l 1
 165 658 l 1
 165 420 l 1
 508 420 l 1
 508 350 l 1
 165 350 l 1
 165 72 l 1
 528 72 l 1
 528 0 l 1
 85 0 l 1
 85 730 l 1
178 833 m 0
 144 862 124 899 120 944 c 1
 205 944 l 1
 209 915 220 893 238 878 c 0
 257 863 281 855 310 855 c 0
 339 855 363 863 381 878 c 0
 399 893 410 915 414 944 c 1
 499 944 l 1
 495 899 476 862 440 833 c 0
 406 804 362 790 310 790 c 0
 257 790 214 804 178 833 c 0
EndSplineSet
EndChar

StartChar: Ecaron
Encoding: 282 282 45
Width: 595
Flags: W
LayerCount: 2
Fore
SplineSet
85 730 m 1
 528 730 l 1
 528 658 l 1
 165 658 l 1
 165 420 l 1
 508 420 l 1
 508 350 l 1
 165 350 l 1
 165 72 l 1
 528 72 l 1
 528 0 l 1
 85 0 l 1
 85 730 l 1
106 980 m 1
 201 980 l 1
 310 808 l 1
 312 808 l 1
 421 980 l 1
 516 980 l 1
 380 770 l 1
 242 770 l 1
 106 980 l 1
EndSplineSet
EndChar

StartChar: Ecircumflex
Encoding: 202 202 46
Width: 595
Flags: W
LayerCount: 2
Fore
SplineSet
85 730 m 1
 528 730 l 1
 528 658 l 1
 165 658 l 1
 165 420 l 1
 508 420 l 1
 508 350 l 1
 165 350 l 1
 165 72 l 1
 528 72 l 1
 528 0 l 1
 85 0 l 1
 85 730 l 1
241 980 m 1
 379 980 l 1
 515 770 l 1
 420 770 l 1
 311 942 l 1
 309 942 l 1
 200 770 l 1
 105 770 l 1
 241 980 l 1
EndSplineSet
EndChar

StartChar: uni1EBE
Encoding: 7870 7870 47
Width: 595
Flags: W
LayerCount: 2
Fore
SplineSet
85 730 m 1
 528 730 l 1
 528 658 l 1
 165 658 l 1
 165 420 l 1
 508 420 l 1
 508 350 l 1
 165 350 l 1
 165 72 l 1
 528 72 l 1
 528 0 l 1
 85 0 l 1
 85 730 l 1
241 980 m 1
 379 980 l 1
 515 770 l 1
 420 770 l 1
 311 942 l 1
 309 942 l 1
 200 770 l 1
 105 770 l 1
 241 980 l 1
498 950 m 1
 417 950 l 1
 520 1160 l 1
 621 1160 l 1
 498 950 l 1
EndSplineSet
EndChar

StartChar: uni1EC6
Encoding: 7878 7878 48
Width: 595
Flags: W
LayerCount: 2
Fore
SplineSet
85 730 m 1
 528 730 l 1
 528 658 l 1
 165 658 l 1
 165 420 l 1
 508 420 l 1
 508 350 l 1
 165 350 l 1
 165 72 l 1
 528 72 l 1
 528 0 l 1
 85 0 l 1
 85 730 l 1
258 -93 m 1
 362 -93 l 1
 362 -197 l 1
 258 -197 l 1
 258 -93 l 1
241 980 m 1
 379 980 l 1
 515 770 l 1
 420 770 l 1
 311 942 l 1
 309 942 l 1
 200 770 l 1
 105 770 l 1
 241 980 l 1
EndSplineSet
EndChar

StartChar: uni1EC0
Encoding: 7872 7872 49
Width: 595
Flags: W
LayerCount: 2
Fore
SplineSet
85 730 m 1
 528 730 l 1
 528 658 l 1
 165 658 l 1
 165 420 l 1
 508 420 l 1
 508 350 l 1
 165 350 l 1
 165 72 l 1
 528 72 l 1
 528 0 l 1
 85 0 l 1
 85 730 l 1
241 980 m 1
 379 980 l 1
 515 770 l 1
 420 770 l 1
 311 942 l 1
 309 942 l 1
 200 770 l 1
 105 770 l 1
 241 980 l 1
-1 1160 m 1
 100 1160 l 1
 203 950 l 1
 122 950 l 1
 -1 1160 l 1
EndSplineSet
EndChar

StartChar: uni1EC2
Encoding: 7874 7874 50
Width: 595
Flags: W
LayerCount: 2
Fore
SplineSet
85 730 m 1
 528 730 l 1
 528 658 l 1
 165 658 l 1
 165 420 l 1
 508 420 l 1
 508 350 l 1
 165 350 l 1
 165 72 l 1
 528 72 l 1
 528 0 l 1
 85 0 l 1
 85 730 l 1
241 980 m 1
 379 980 l 1
 515 770 l 1
 420 770 l 1
 311 942 l 1
 309 942 l 1
 200 770 l 1
 105 770 l 1
 241 980 l 1
442 967 m 0
 446 982 447 994 447 1004 c 0
 447 1021 441 1032 430 1038 c 0
 419 1043 398 1046 367 1046 c 0
 326 1046 285 1040 244 1029 c 1
 236 1093 l 1
 281 1104 331 1110 384 1110 c 0
 422 1110 452 1108 472 1103 c 0
 494 1098 508 1090 518 1079 c 0
 526 1068 531 1052 531 1031 c 0
 531 1016 529 999 526 980 c 0
 523 961 518 944 513 930 c 1
 432 930 l 1
 436 940 440 952 442 967 c 0
EndSplineSet
EndChar

StartChar: uni1EC4
Encoding: 7876 7876 51
Width: 595
Flags: W
LayerCount: 2
Fore
SplineSet
85 730 m 1
 528 730 l 1
 528 658 l 1
 165 658 l 1
 165 420 l 1
 508 420 l 1
 508 350 l 1
 165 350 l 1
 165 72 l 1
 528 72 l 1
 528 0 l 1
 85 0 l 1
 85 730 l 1
241 980 m 1
 379 980 l 1
 515 770 l 1
 420 770 l 1
 311 942 l 1
 309 942 l 1
 200 770 l 1
 105 770 l 1
 241 980 l 1
298 1040 m 0
 267 1062 243 1073 225 1073 c 0
 214 1073 206 1068 202 1057 c 0
 196 1046 194 1028 194 1003 c 1
 120 1003 l 1
 120 1053 127 1090 142 1114 c 0
 156 1139 178 1151 209 1151 c 0
 240 1151 278 1135 322 1104 c 0
 352 1082 376 1071 394 1071 c 0
 405 1071 412 1076 418 1087 c 0
 422 1098 425 1116 425 1141 c 1
 499 1141 l 1
 499 1091 492 1054 478 1030 c 0
 463 1005 441 993 411 993 c 0
 381 993 343 1009 298 1040 c 0
EndSplineSet
EndChar

StartChar: uni0204
Encoding: 516 516 52
Width: 595
Flags: W
LayerCount: 2
Fore
SplineSet
85 730 m 1
 528 730 l 1
 528 658 l 1
 165 658 l 1
 165 420 l 1
 508 420 l 1
 508 350 l 1
 165 350 l 1
 165 72 l 1
 528 72 l 1
 528 0 l 1
 85 0 l 1
 85 730 l 1
89 980 m 1
 190 980 l 1
 293 770 l 1
 212 770 l 1
 89 980 l 1
299 980 m 1
 400 980 l 1
 503 770 l 1
 422 770 l 1
 299 980 l 1
EndSplineSet
EndChar

StartChar: Edieresis
Encoding: 203 203 53
Width: 595
Flags: W
LayerCount: 2
Fore
SplineSet
85 730 m 1
 528 730 l 1
 528 658 l 1
 165 658 l 1
 165 420 l 1
 508 420 l 1
 508 350 l 1
 165 350 l 1
 165 72 l 1
 528 72 l 1
 528 0 l 1
 85 0 l 1
 85 730 l 1
133 927 m 1
 237 927 l 1
 237 823 l 1
 133 823 l 1
 133 927 l 1
382 927 m 1
 486 927 l 1
 486 823 l 1
 382 823 l 1
 382 927 l 1
EndSplineSet
EndChar

StartChar: Edotaccent
Encoding: 278 278 54
Width: 595
Flags: W
LayerCount: 2
Fore
SplineSet
85 730 m 1
 528 730 l 1
 528 658 l 1
 165 658 l 1
 165 420 l 1
 508 420 l 1
 508 350 l 1
 165 350 l 1
 165 72 l 1
 528 72 l 1
 528 0 l 1
 85 0 l 1
 85 730 l 1
258 927 m 1
 362 927 l 1
 362 823 l 1
 258 823 l 1
 258 927 l 1
EndSplineSet
EndChar

StartChar: uni1EB8
Encoding: 7864 7864 55
Width: 595
Flags: W
LayerCount: 2
Fore
SplineSet
85 730 m 1
 528 730 l 1
 528 658 l 1
 165 658 l 1
 165 420 l 1
 508 420 l 1
 508 350 l 1
 165 350 l 1
 165 72 l 1
 528 72 l 1
 528 0 l 1
 85 0 l 1
 85 730 l 1
258 -93 m 1
 362 -93 l 1
 362 -197 l 1
 258 -197 l 1
 258 -93 l 1
EndSplineSet
EndChar

StartChar: Egrave
Encoding: 200 200 56
Width: 595
Flags: W
LayerCount: 2
Fore
SplineSet
85 730 m 1
 528 730 l 1
 528 658 l 1
 165 658 l 1
 165 420 l 1
 508 420 l 1
 508 350 l 1
 165 350 l 1
 165 72 l 1
 528 72 l 1
 528 0 l 1
 85 0 l 1
 85 730 l 1
196 980 m 1
 297 980 l 1
 400 770 l 1
 319 770 l 1
 196 980 l 1
EndSplineSet
EndChar

StartChar: uni1EBA
Encoding: 7866 7866 57
Width: 595
Flags: W
LayerCount: 2
Fore
SplineSet
85 730 m 1
 528 730 l 1
 528 658 l 1
 165 658 l 1
 165 420 l 1
 508 420 l 1
 508 350 l 1
 165 350 l 1
 165 72 l 1
 528 72 l 1
 528 0 l 1
 85 0 l 1
 85 730 l 1
368 837 m 0
 372 852 373 864 373 874 c 0
 373 891 367 902 356 908 c 0
 345 913 324 916 293 916 c 0
 252 916 211 910 170 899 c 1
 162 963 l 1
 207 974 257 980 310 980 c 0
 348 980 378 978 398 973 c 0
 420 968 434 960 444 949 c 0
 452 938 457 922 457 901 c 0
 457 886 455 869 452 850 c 0
 449 831 444 814 439 800 c 1
 358 800 l 1
 362 810 366 822 368 837 c 0
EndSplineSet
EndChar

StartChar: uni0206
Encoding: 518 518 58
Width: 595
Flags: W
LayerCount: 2
Fore
SplineSet
85 730 m 1
 528 730 l 1
 528 658 l 1
 165 658 l 1
 165 420 l 1
 508 420 l 1
 508 350 l 1
 165 350 l 1
 165 72 l 1
 528 72 l 1
 528 0 l 1
 85 0 l 1
 85 730 l 1
440 917 m 0
 476 888 495 851 499 806 c 1
 414 806 l 1
 410 835 399 857 381 872 c 0
 363 887 339 895 310 895 c 0
 281 895 257 887 238 872 c 0
 220 857 209 835 205 806 c 1
 120 806 l 1
 124 851 144 888 178 917 c 0
 214 946 257 960 310 960 c 0
 362 960 406 946 440 917 c 0
EndSplineSet
EndChar

StartChar: Emacron
Encoding: 274 274 59
Width: 595
Flags: W
LayerCount: 2
Fore
SplineSet
85 730 m 1
 528 730 l 1
 528 658 l 1
 165 658 l 1
 165 420 l 1
 508 420 l 1
 508 350 l 1
 165 350 l 1
 165 72 l 1
 528 72 l 1
 528 0 l 1
 85 0 l 1
 85 730 l 1
128 907 m 1
 491 907 l 1
 491 843 l 1
 128 843 l 1
 128 907 l 1
EndSplineSet
EndChar

StartChar: Eogonek
Encoding: 280 280 60
Width: 595
Flags: W
LayerCount: 2
Fore
SplineSet
617 -197 m 1
 585 -211 548 -218 506 -218 c 0
 456 -218 418 -209 394 -191 c 0
 368 -173 356 -149 356 -120 c 0
 356 -77 380 -37 429 0 c 1
 85 0 l 1
 85 730 l 1
 528 730 l 1
 528 658 l 1
 165 658 l 1
 165 420 l 1
 508 420 l 1
 508 350 l 1
 165 350 l 1
 165 72 l 1
 528 72 l 1
 528 0 l 1
 497 -18 473 -36 456 -54 c 0
 439 -73 431 -90 431 -107 c 0
 431 -123 438 -135 453 -142 c 0
 468 -149 487 -153 512 -153 c 0
 545 -153 576 -147 603 -134 c 1
 617 -197 l 1
EndSplineSet
EndChar

StartChar: uni1EBC
Encoding: 7868 7868 61
Width: 595
Flags: W
LayerCount: 2
Fore
SplineSet
85 730 m 1
 528 730 l 1
 528 658 l 1
 165 658 l 1
 165 420 l 1
 508 420 l 1
 508 350 l 1
 165 350 l 1
 165 72 l 1
 528 72 l 1
 528 0 l 1
 85 0 l 1
 85 730 l 1
298 843 m 0
 267 865 243 876 225 876 c 0
 214 876 206 871 202 860 c 0
 196 849 194 831 194 806 c 1
 120 806 l 1
 120 856 127 893 142 918 c 0
 156 942 178 954 209 954 c 0
 240 954 278 938 322 907 c 0
 352 885 376 874 394 874 c 0
 405 874 412 879 418 890 c 0
 422 901 425 919 425 944 c 1
 499 944 l 1
 499 894 492 857 478 832 c 0
 463 808 441 796 411 796 c 0
 381 796 343 812 298 843 c 0
EndSplineSet
EndChar

StartChar: F
Encoding: 70 70 62
Width: 580
Flags: W
LayerCount: 2
Fore
SplineSet
85 730 m 1
 528 730 l 1
 528 657 l 1
 165 657 l 1
 165 410 l 1
 508 410 l 1
 508 338 l 1
 165 338 l 1
 165 0 l 1
 85 0 l 1
 85 730 l 1
EndSplineSet
EndChar

StartChar: G
Encoding: 71 71 63
Width: 775
Flags: W
LayerCount: 2
Fore
SplineSet
702 418 m 1
 702 46 l 1
 666 29 624 15 576 5 c 0
 528 -5 480 -10 432 -10 c 0
 351 -10 282 5 224 35 c 0
 165 65 120 108 89 164 c 0
 58 220 42 287 42 365 c 0
 42 443 58 510 89 566 c 0
 120 622 165 665 224 695 c 0
 282 725 351 740 432 740 c 0
 527 740 609 719 676 678 c 1
 643 615 l 1
 582 650 511 668 432 668 c 0
 334 668 258 642 204 589 c 0
 151 536 124 462 124 365 c 0
 124 268 151 194 204 141 c 0
 258 88 334 62 432 62 c 0
 464 62 497 65 530 71 c 0
 564 77 595 85 622 96 c 1
 622 348 l 1
 362 348 l 1
 362 418 l 1
 702 418 l 1
EndSplineSet
EndChar

StartChar: Gbreve
Encoding: 286 286 64
Width: 775
Flags: W
LayerCount: 2
Fore
SplineSet
702 418 m 1
 702 46 l 1
 666 29 624 15 576 5 c 0
 528 -5 480 -10 432 -10 c 0
 351 -10 282 5 224 35 c 0
 165 65 120 108 89 164 c 0
 58 220 42 287 42 365 c 0
 42 443 58 510 89 566 c 0
 120 622 165 665 224 695 c 0
 282 725 351 740 432 740 c 0
 527 740 609 719 676 678 c 1
 643 615 l 1
 582 650 511 668 432 668 c 0
 334 668 258 642 204 589 c 0
 151 536 124 462 124 365 c 0
 124 268 151 194 204 141 c 0
 258 88 334 62 432 62 c 0
 464 62 497 65 530 71 c 0
 564 77 595 85 622 96 c 1
 622 348 l 1
 362 348 l 1
 362 418 l 1
 702 418 l 1
276 833 m 0
 240 862 221 899 217 944 c 1
 302 944 l 1
 306 915 317 893 336 878 c 0
 354 863 378 855 407 855 c 0
 436 855 460 863 478 878 c 0
 496 893 507 915 511 944 c 1
 596 944 l 1
 592 899 572 862 538 833 c 0
 502 804 459 790 407 790 c 0
 354 790 310 804 276 833 c 0
EndSplineSet
EndChar

StartChar: Gcaron
Encoding: 486 486 65
Width: 775
Flags: W
LayerCount: 2
Fore
SplineSet
702 418 m 1
 702 46 l 1
 666 29 624 15 576 5 c 0
 528 -5 480 -10 432 -10 c 0
 351 -10 282 5 224 35 c 0
 165 65 120 108 89 164 c 0
 58 220 42 287 42 365 c 0
 42 443 58 510 89 566 c 0
 120 622 165 665 224 695 c 0
 282 725 351 740 432 740 c 0
 527 740 609 719 676 678 c 1
 643 615 l 1
 582 650 511 668 432 668 c 0
 334 668 258 642 204 589 c 0
 151 536 124 462 124 365 c 0
 124 268 151 194 204 141 c 0
 258 88 334 62 432 62 c 0
 464 62 497 65 530 71 c 0
 564 77 595 85 622 96 c 1
 622 348 l 1
 362 348 l 1
 362 418 l 1
 702 418 l 1
202 980 m 1
 297 980 l 1
 406 808 l 1
 408 808 l 1
 517 980 l 1
 612 980 l 1
 476 770 l 1
 338 770 l 1
 202 980 l 1
EndSplineSet
EndChar

StartChar: Gcircumflex
Encoding: 284 284 66
Width: 775
Flags: W
LayerCount: 2
Fore
SplineSet
702 418 m 1
 702 46 l 1
 666 29 624 15 576 5 c 0
 528 -5 480 -10 432 -10 c 0
 351 -10 282 5 224 35 c 0
 165 65 120 108 89 164 c 0
 58 220 42 287 42 365 c 0
 42 443 58 510 89 566 c 0
 120 622 165 665 224 695 c 0
 282 725 351 740 432 740 c 0
 527 740 609 719 676 678 c 1
 643 615 l 1
 582 650 511 668 432 668 c 0
 334 668 258 642 204 589 c 0
 151 536 124 462 124 365 c 0
 124 268 151 194 204 141 c 0
 258 88 334 62 432 62 c 0
 464 62 497 65 530 71 c 0
 564 77 595 85 622 96 c 1
 622 348 l 1
 362 348 l 1
 362 418 l 1
 702 418 l 1
338 980 m 1
 476 980 l 1
 612 770 l 1
 517 770 l 1
 408 942 l 1
 406 942 l 1
 297 770 l 1
 202 770 l 1
 338 980 l 1
EndSplineSet
EndChar

StartChar: uni0122
Encoding: 290 290 67
Width: 775
Flags: W
LayerCount: 2
Fore
SplineSet
702 418 m 1
 702 46 l 1
 666 29 624 15 576 5 c 0
 528 -5 480 -10 432 -10 c 0
 351 -10 282 5 224 35 c 0
 165 65 120 108 89 164 c 0
 58 220 42 287 42 365 c 0
 42 443 58 510 89 566 c 0
 120 622 165 665 224 695 c 0
 282 725 351 740 432 740 c 0
 527 740 609 719 676 678 c 1
 643 615 l 1
 582 650 511 668 432 668 c 0
 334 668 258 642 204 589 c 0
 151 536 124 462 124 365 c 0
 124 268 151 194 204 141 c 0
 258 88 334 62 432 62 c 0
 464 62 497 65 530 71 c 0
 564 77 595 85 622 96 c 1
 622 348 l 1
 362 348 l 1
 362 418 l 1
 702 418 l 1
385 -250 m 1
 304 -250 l 1
 407 -40 l 1
 508 -40 l 1
 385 -250 l 1
EndSplineSet
EndChar

StartChar: Gdotaccent
Encoding: 288 288 68
Width: 775
Flags: W
LayerCount: 2
Fore
SplineSet
702 418 m 1
 702 46 l 1
 666 29 624 15 576 5 c 0
 528 -5 480 -10 432 -10 c 0
 351 -10 282 5 224 35 c 0
 165 65 120 108 89 164 c 0
 58 220 42 287 42 365 c 0
 42 443 58 510 89 566 c 0
 120 622 165 665 224 695 c 0
 282 725 351 740 432 740 c 0
 527 740 609 719 676 678 c 1
 643 615 l 1
 582 650 511 668 432 668 c 0
 334 668 258 642 204 589 c 0
 151 536 124 462 124 365 c 0
 124 268 151 194 204 141 c 0
 258 88 334 62 432 62 c 0
 464 62 497 65 530 71 c 0
 564 77 595 85 622 96 c 1
 622 348 l 1
 362 348 l 1
 362 418 l 1
 702 418 l 1
355 927 m 1
 459 927 l 1
 459 823 l 1
 355 823 l 1
 355 927 l 1
EndSplineSet
EndChar

StartChar: H
Encoding: 72 72 69
Width: 710
Flags: W
LayerCount: 2
Fore
SplineSet
545 730 m 1
 625 730 l 1
 625 0 l 1
 545 0 l 1
 545 350 l 1
 165 350 l 1
 165 0 l 1
 85 0 l 1
 85 730 l 1
 165 730 l 1
 165 423 l 1
 545 423 l 1
 545 730 l 1
EndSplineSet
EndChar

StartChar: Hbar
Encoding: 294 294 70
Width: 784
Flags: W
LayerCount: 2
Fore
SplineSet
755 629 m 1
 755 563 l 1
 662 563 l 1
 662 0 l 1
 582 0 l 1
 582 350 l 1
 202 350 l 1
 202 0 l 1
 122 0 l 1
 122 563 l 1
 29 563 l 1
 29 629 l 1
 122 629 l 1
 122 730 l 1
 202 730 l 1
 202 629 l 1
 582 629 l 1
 582 730 l 1
 662 730 l 1
 662 629 l 1
 755 629 l 1
582 423 m 1
 582 563 l 1
 202 563 l 1
 202 423 l 1
 582 423 l 1
EndSplineSet
EndChar

StartChar: Hcircumflex
Encoding: 292 292 71
Width: 710
Flags: W
LayerCount: 2
Fore
SplineSet
545 730 m 1
 625 730 l 1
 625 0 l 1
 545 0 l 1
 545 350 l 1
 165 350 l 1
 165 0 l 1
 85 0 l 1
 85 730 l 1
 165 730 l 1
 165 423 l 1
 545 423 l 1
 545 730 l 1
286 980 m 1
 424 980 l 1
 560 770 l 1
 465 770 l 1
 356 942 l 1
 354 942 l 1
 245 770 l 1
 150 770 l 1
 286 980 l 1
EndSplineSet
EndChar

StartChar: I
Encoding: 73 73 72
Width: 270
Flags: W
LayerCount: 2
Fore
SplineSet
94 730 m 1
 176 730 l 1
 176 0 l 1
 94 0 l 1
 94 730 l 1
EndSplineSet
EndChar

StartChar: Iacute
Encoding: 205 205 73
Width: 270
Flags: W
LayerCount: 2
Fore
SplineSet
94 730 m 1
 176 730 l 1
 176 0 l 1
 94 0 l 1
 94 730 l 1
126 770 m 1
 45 770 l 1
 148 980 l 1
 249 980 l 1
 126 770 l 1
EndSplineSet
EndChar

StartChar: Ibreve
Encoding: 300 300 74
Width: 270
Flags: W
LayerCount: 2
Fore
SplineSet
94 730 m 1
 176 730 l 1
 176 0 l 1
 94 0 l 1
 94 730 l 1
4 833 m 0
 -32 862 -51 899 -55 944 c 1
 30 944 l 1
 34 915 45 893 64 878 c 0
 82 863 106 855 135 855 c 0
 164 855 188 863 206 878 c 0
 224 893 235 915 239 944 c 1
 324 944 l 1
 320 899 300 862 266 833 c 0
 230 804 187 790 135 790 c 0
 82 790 38 804 4 833 c 0
EndSplineSet
EndChar

StartChar: Icircumflex
Encoding: 206 206 75
Width: 270
Flags: W
LayerCount: 2
Fore
SplineSet
94 730 m 1
 176 730 l 1
 176 0 l 1
 94 0 l 1
 94 730 l 1
66 980 m 1
 204 980 l 1
 340 770 l 1
 245 770 l 1
 136 942 l 1
 134 942 l 1
 25 770 l 1
 -70 770 l 1
 66 980 l 1
EndSplineSet
EndChar

StartChar: uni0208
Encoding: 520 520 76
Width: 270
Flags: W
LayerCount: 2
Fore
SplineSet
94 730 m 1
 176 730 l 1
 176 0 l 1
 94 0 l 1
 94 730 l 1
-86 980 m 1
 15 980 l 1
 118 770 l 1
 37 770 l 1
 -86 980 l 1
124 980 m 1
 225 980 l 1
 328 770 l 1
 247 770 l 1
 124 980 l 1
EndSplineSet
EndChar

StartChar: Idieresis
Encoding: 207 207 77
Width: 270
Flags: W
LayerCount: 2
Fore
SplineSet
94 730 m 1
 176 730 l 1
 176 0 l 1
 94 0 l 1
 94 730 l 1
-42 927 m 1
 62 927 l 1
 62 823 l 1
 -42 823 l 1
 -42 927 l 1
207 927 m 1
 311 927 l 1
 311 823 l 1
 207 823 l 1
 207 927 l 1
EndSplineSet
EndChar

StartChar: Idotaccent
Encoding: 304 304 78
Width: 270
Flags: W
LayerCount: 2
Fore
SplineSet
94 730 m 1
 176 730 l 1
 176 0 l 1
 94 0 l 1
 94 730 l 1
83 927 m 1
 187 927 l 1
 187 823 l 1
 83 823 l 1
 83 927 l 1
EndSplineSet
EndChar

StartChar: uni1ECA
Encoding: 7882 7882 79
Width: 270
Flags: W
LayerCount: 2
Fore
SplineSet
94 730 m 1
 176 730 l 1
 176 0 l 1
 94 0 l 1
 94 730 l 1
83 -93 m 1
 187 -93 l 1
 187 -197 l 1
 83 -197 l 1
 83 -93 l 1
EndSplineSet
EndChar

StartChar: Igrave
Encoding: 204 204 80
Width: 270
Flags: W
LayerCount: 2
Fore
SplineSet
94 730 m 1
 176 730 l 1
 176 0 l 1
 94 0 l 1
 94 730 l 1
21 980 m 1
 122 980 l 1
 225 770 l 1
 144 770 l 1
 21 980 l 1
EndSplineSet
EndChar

StartChar: uni1EC8
Encoding: 7880 7880 81
Width: 270
Flags: W
LayerCount: 2
Fore
SplineSet
94 730 m 1
 176 730 l 1
 176 0 l 1
 94 0 l 1
 94 730 l 1
194 837 m 0
 196 852 198 864 198 874 c 0
 198 891 192 902 181 908 c 0
 170 913 149 916 118 916 c 0
 77 916 36 910 -5 899 c 1
 -13 963 l 1
 32 974 82 980 135 980 c 0
 173 980 202 978 224 973 c 0
 244 968 260 960 268 949 c 0
 278 938 282 922 282 901 c 0
 282 886 280 869 277 850 c 0
 274 831 269 814 264 800 c 1
 183 800 l 1
 187 810 190 822 194 837 c 0
EndSplineSet
EndChar

StartChar: uni020A
Encoding: 522 522 82
Width: 270
Flags: W
LayerCount: 2
Fore
SplineSet
94 730 m 1
 176 730 l 1
 176 0 l 1
 94 0 l 1
 94 730 l 1
266 917 m 0
 300 888 320 851 324 806 c 1
 239 806 l 1
 235 835 224 857 206 872 c 0
 188 887 164 895 135 895 c 0
 106 895 82 887 64 872 c 0
 45 857 34 835 30 806 c 1
 -55 806 l 1
 -51 851 -32 888 4 917 c 0
 38 946 82 960 135 960 c 0
 187 960 230 946 266 917 c 0
EndSplineSet
EndChar

StartChar: Imacron
Encoding: 298 298 83
Width: 270
Flags: W
LayerCount: 2
Fore
SplineSet
94 730 m 1
 176 730 l 1
 176 0 l 1
 94 0 l 1
 94 730 l 1
-47 907 m 1
 316 907 l 1
 316 843 l 1
 -47 843 l 1
 -47 907 l 1
EndSplineSet
EndChar

StartChar: Iogonek
Encoding: 302 302 84
Width: 270
Flags: W
LayerCount: 2
Fore
SplineSet
265 -197 m 1
 233 -211 196 -218 154 -218 c 0
 104 -218 66 -209 42 -191 c 0
 16 -173 4 -149 4 -120 c 0
 4 -74 34 -30 94 13 c 1
 94 730 l 1
 176 730 l 1
 176 0 l 1
 145 -18 121 -36 104 -54 c 0
 87 -73 79 -90 79 -107 c 0
 79 -123 86 -135 101 -142 c 0
 116 -149 135 -153 160 -153 c 0
 193 -153 224 -147 251 -134 c 1
 265 -197 l 1
EndSplineSet
EndChar

StartChar: Itilde
Encoding: 296 296 85
Width: 270
Flags: W
LayerCount: 2
Fore
SplineSet
94 730 m 1
 176 730 l 1
 176 0 l 1
 94 0 l 1
 94 730 l 1
123 843 m 0
 92 865 68 876 50 876 c 0
 39 876 32 871 26 860 c 0
 22 849 19 831 19 806 c 1
 -55 806 l 1
 -55 856 -48 893 -34 918 c 0
 -19 942 3 954 34 954 c 0
 65 954 103 938 147 907 c 0
 177 885 201 874 219 874 c 0
 230 874 238 879 242 890 c 0
 248 901 250 919 250 944 c 1
 324 944 l 1
 324 894 317 857 302 832 c 0
 288 808 266 796 236 796 c 0
 206 796 168 812 123 843 c 0
EndSplineSet
EndChar

StartChar: J
Encoding: 74 74 86
Width: 561
Flags: W
LayerCount: 2
Fore
SplineSet
112 4 m 0
 75 14 41 28 10 47 c 1
 39 114 l 1
 67 98 97 86 128 76 c 0
 159 68 191 63 222 63 c 0
 283 63 329 81 358 116 c 0
 388 151 403 206 403 280 c 2
 403 730 l 1
 485 730 l 1
 485 280 l 2
 485 181 464 108 422 61 c 0
 380 14 316 -10 229 -10 c 0
 188 -10 149 -5 112 4 c 0
EndSplineSet
EndChar

StartChar: Jcircumflex
Encoding: 308 308 87
Width: 561
Flags: W
LayerCount: 2
Fore
SplineSet
112 4 m 0
 75 14 41 28 10 47 c 1
 39 114 l 1
 67 98 97 86 128 76 c 0
 159 68 191 63 222 63 c 0
 283 63 329 81 358 116 c 0
 388 151 403 206 403 280 c 2
 403 730 l 1
 485 730 l 1
 485 280 l 2
 485 181 464 108 422 61 c 0
 380 14 316 -10 229 -10 c 0
 188 -10 149 -5 112 4 c 0
212 980 m 1
 350 980 l 1
 486 770 l 1
 391 770 l 1
 282 942 l 1
 280 942 l 1
 171 770 l 1
 76 770 l 1
 212 980 l 1
EndSplineSet
EndChar

StartChar: K
Encoding: 75 75 88
Width: 638
Flags: W
LayerCount: 2
Fore
SplineSet
85 730 m 1
 165 730 l 1
 165 415 l 1
 167 415 l 1
 503 730 l 1
 605 730 l 1
 239 387 l 1
 615 0 l 1
 514 0 l 1
 167 359 l 1
 165 359 l 1
 165 0 l 1
 85 0 l 1
 85 730 l 1
EndSplineSet
EndChar

StartChar: uni0136
Encoding: 310 310 89
Width: 638
Flags: W
LayerCount: 2
Fore
SplineSet
85 730 m 1
 165 730 l 1
 165 415 l 1
 167 415 l 1
 503 730 l 1
 605 730 l 1
 239 387 l 1
 615 0 l 1
 514 0 l 1
 167 359 l 1
 165 359 l 1
 165 0 l 1
 85 0 l 1
 85 730 l 1
279 -250 m 1
 198 -250 l 1
 301 -40 l 1
 402 -40 l 1
 279 -250 l 1
EndSplineSet
EndChar

StartChar: L
Encoding: 76 76 90
Width: 585
Flags: W
LayerCount: 2
Fore
SplineSet
85 730 m 1
 167 730 l 1
 167 73 l 1
 545 73 l 1
 545 0 l 1
 85 0 l 1
 85 730 l 1
EndSplineSet
EndChar

StartChar: uni01C7
Encoding: 455 455 91
Width: 1166
Flags: W
LayerCount: 2
Fore
SplineSet
85 730 m 1
 167 730 l 1
 167 73 l 1
 545 73 l 1
 545 0 l 1
 85 0 l 1
 85 730 l 1
717 4 m 0
 680 14 646 28 615 47 c 1
 644 114 l 1
 672 98 702 86 733 76 c 0
 764 68 796 63 827 63 c 0
 888 63 934 81 964 116 c 0
 993 151 1008 206 1008 280 c 2
 1008 730 l 1
 1090 730 l 1
 1090 280 l 2
 1090 181 1069 108 1027 61 c 0
 985 14 921 -10 834 -10 c 0
 793 -10 754 -5 717 4 c 0
EndSplineSet
EndChar

StartChar: Lacute
Encoding: 313 313 92
Width: 585
Flags: W
LayerCount: 2
Fore
SplineSet
85 730 m 1
 167 730 l 1
 167 73 l 1
 545 73 l 1
 545 0 l 1
 85 0 l 1
 85 730 l 1
283 770 m 1
 202 770 l 1
 305 980 l 1
 406 980 l 1
 283 770 l 1
EndSplineSet
EndChar

StartChar: Lcaron
Encoding: 317 317 93
Width: 609
Flags: W
LayerCount: 2
Fore
SplineSet
85 730 m 1
 167 730 l 1
 167 73 l 1
 545 73 l 1
 545 0 l 1
 85 0 l 1
 85 730 l 1
476 770 m 1
 570 770 l 1
 457 470 l 1
 383 470 l 1
 476 770 l 1
EndSplineSet
EndChar

StartChar: uni013B
Encoding: 315 315 94
Width: 585
Flags: W
LayerCount: 2
Fore
SplineSet
85 730 m 1
 167 730 l 1
 167 73 l 1
 545 73 l 1
 545 0 l 1
 85 0 l 1
 85 730 l 1
271 -250 m 1
 190 -250 l 1
 293 -40 l 1
 394 -40 l 1
 271 -250 l 1
EndSplineSet
EndChar

StartChar: Ldot
Encoding: 319 319 95
Width: 618
Flags: W
LayerCount: 2
Fore
SplineSet
85 730 m 1
 167 730 l 1
 167 73 l 1
 545 73 l 1
 545 0 l 1
 85 0 l 1
 85 730 l 1
412 429 m 1
 518 429 l 1
 518 322 l 1
 412 322 l 1
 412 429 l 1
EndSplineSet
EndChar

StartChar: uni01C8
Encoding: 456 456 96
Width: 902
Flags: W
LayerCount: 2
Fore
SplineSet
85 730 m 1
 167 730 l 1
 167 73 l 1
 545 73 l 1
 545 0 l 1
 85 0 l 1
 85 730 l 1
724 737 m 1
 818 737 l 1
 818 643 l 1
 724 643 l 1
 724 737 l 1
654 -150 m 0
 683 -140 704 -124 714 -100 c 0
 726 -75 731 -38 731 13 c 2
 731 520 l 1
 811 520 l 1
 811 13 l 2
 811 -52 802 -101 786 -136 c 0
 768 -170 740 -194 698 -208 c 0
 658 -223 598 -230 521 -230 c 1
 517 -163 l 1
 579 -163 625 -158 654 -150 c 0
EndSplineSet
EndChar

StartChar: Lslash
Encoding: 321 321 97
Width: 672
Flags: W
LayerCount: 2
Fore
SplineSet
254 73 m 1
 632 73 l 1
 632 0 l 1
 172 0 l 1
 172 310 l 1
 39 253 l 1
 12 315 l 1
 172 384 l 1
 172 730 l 1
 254 730 l 1
 254 419 l 1
 389 477 l 1
 415 415 l 1
 254 346 l 1
 254 73 l 1
EndSplineSet
EndChar

StartChar: M
Encoding: 77 77 98
Width: 863
Flags: W
LayerCount: 2
Fore
SplineSet
85 730 m 1
 189 730 l 1
 431 247 l 1
 433 247 l 1
 675 730 l 1
 778 730 l 1
 778 0 l 1
 698 0 l 1
 698 606 l 1
 696 606 l 1
 470 155 l 1
 393 155 l 1
 167 606 l 1
 165 606 l 1
 165 0 l 1
 85 0 l 1
 85 730 l 1
EndSplineSet
EndChar

StartChar: N
Encoding: 78 78 99
Width: 720
Flags: W
LayerCount: 2
Fore
SplineSet
85 730 m 1
 176 730 l 1
 553 127 l 1
 555 127 l 1
 555 730 l 1
 635 730 l 1
 635 0 l 1
 544 0 l 1
 167 603 l 1
 165 603 l 1
 165 0 l 1
 85 0 l 1
 85 730 l 1
EndSplineSet
EndChar

StartChar: uni01CA
Encoding: 458 458 100
Width: 1281
Flags: W
LayerCount: 2
Fore
SplineSet
85 730 m 1
 176 730 l 1
 553 127 l 1
 555 127 l 1
 555 730 l 1
 635 730 l 1
 635 0 l 1
 544 0 l 1
 167 603 l 1
 165 603 l 1
 165 0 l 1
 85 0 l 1
 85 730 l 1
832 4 m 0
 795 14 761 28 730 47 c 1
 759 114 l 1
 787 98 817 86 848 76 c 0
 879 68 911 63 942 63 c 0
 1003 63 1049 81 1078 116 c 0
 1108 151 1123 206 1123 280 c 2
 1123 730 l 1
 1205 730 l 1
 1205 280 l 2
 1205 181 1184 108 1142 61 c 0
 1100 14 1036 -10 949 -10 c 0
 908 -10 869 -5 832 4 c 0
EndSplineSet
EndChar

StartChar: Nacute
Encoding: 323 323 101
Width: 720
Flags: W
LayerCount: 2
Fore
SplineSet
85 730 m 1
 176 730 l 1
 553 127 l 1
 555 127 l 1
 555 730 l 1
 635 730 l 1
 635 0 l 1
 544 0 l 1
 167 603 l 1
 165 603 l 1
 165 0 l 1
 85 0 l 1
 85 730 l 1
351 770 m 1
 270 770 l 1
 373 980 l 1
 474 980 l 1
 351 770 l 1
EndSplineSet
EndChar

StartChar: Ncaron
Encoding: 327 327 102
Width: 720
Flags: W
LayerCount: 2
Fore
SplineSet
85 730 m 1
 176 730 l 1
 553 127 l 1
 555 127 l 1
 555 730 l 1
 635 730 l 1
 635 0 l 1
 544 0 l 1
 167 603 l 1
 165 603 l 1
 165 0 l 1
 85 0 l 1
 85 730 l 1
156 980 m 1
 251 980 l 1
 360 808 l 1
 362 808 l 1
 471 980 l 1
 566 980 l 1
 430 770 l 1
 292 770 l 1
 156 980 l 1
EndSplineSet
EndChar

StartChar: uni0145
Encoding: 325 325 103
Width: 720
Flags: W
LayerCount: 2
Fore
SplineSet
85 730 m 1
 176 730 l 1
 553 127 l 1
 555 127 l 1
 555 730 l 1
 635 730 l 1
 635 0 l 1
 544 0 l 1
 167 603 l 1
 165 603 l 1
 165 0 l 1
 85 0 l 1
 85 730 l 1
339 -250 m 1
 258 -250 l 1
 361 -40 l 1
 462 -40 l 1
 339 -250 l 1
EndSplineSet
EndChar

StartChar: Eng
Encoding: 330 330 104
Width: 720
Flags: W
LayerCount: 2
Fore
SplineSet
635 730 m 1
 635 -38 l 2
 635 -101 622 -146 596 -175 c 0
 570 -204 528 -218 471 -218 c 0
 438 -218 404 -213 368 -202 c 1
 382 -135 l 1
 407 -144 431 -148 456 -148 c 0
 491 -148 517 -140 532 -122 c 0
 548 -106 556 -77 556 -38 c 2
 556 -19 l 1
 167 596 l 1
 165 596 l 1
 165 0 l 1
 85 0 l 1
 85 730 l 1
 176 730 l 1
 553 134 l 1
 555 134 l 1
 555 730 l 1
 635 730 l 1
EndSplineSet
EndChar

StartChar: uni01CB
Encoding: 459 459 105
Width: 1037
Flags: W
LayerCount: 2
Fore
SplineSet
85 730 m 1
 176 730 l 1
 553 127 l 1
 555 127 l 1
 555 730 l 1
 635 730 l 1
 635 0 l 1
 544 0 l 1
 167 603 l 1
 165 603 l 1
 165 0 l 1
 85 0 l 1
 85 730 l 1
859 737 m 1
 953 737 l 1
 953 643 l 1
 859 643 l 1
 859 737 l 1
789 -150 m 0
 818 -140 838 -124 850 -100 c 0
 860 -75 866 -38 866 13 c 2
 866 520 l 1
 946 520 l 1
 946 13 l 2
 946 -52 938 -101 920 -136 c 0
 904 -170 874 -194 834 -208 c 0
 792 -223 733 -230 656 -230 c 1
 652 -163 l 1
 714 -163 760 -158 789 -150 c 0
EndSplineSet
EndChar

StartChar: Ntilde
Encoding: 209 209 106
Width: 720
Flags: W
LayerCount: 2
Fore
SplineSet
85 730 m 1
 176 730 l 1
 553 127 l 1
 555 127 l 1
 555 730 l 1
 635 730 l 1
 635 0 l 1
 544 0 l 1
 167 603 l 1
 165 603 l 1
 165 0 l 1
 85 0 l 1
 85 730 l 1
349 843 m 0
 318 865 294 876 276 876 c 0
 265 876 258 871 252 860 c 0
 248 849 245 831 245 806 c 1
 171 806 l 1
 171 856 178 893 192 918 c 0
 207 942 229 954 260 954 c 0
 291 954 329 938 373 907 c 0
 403 885 427 874 445 874 c 0
 456 874 464 879 468 890 c 0
 474 901 476 919 476 944 c 1
 550 944 l 1
 550 894 543 857 528 832 c 0
 514 808 492 796 462 796 c 0
 432 796 394 812 349 843 c 0
EndSplineSet
EndChar

StartChar: O
Encoding: 79 79 107
Width: 802
Flags: W
LayerCount: 2
Fore
SplineSet
212 36 m 0
 157 67 115 110 86 167 c 0
 57 224 42 290 42 365 c 0
 42 440 57 506 86 563 c 0
 115 620 157 663 212 694 c 0
 266 725 329 740 401 740 c 0
 473 740 536 725 590 694 c 0
 645 663 687 620 716 563 c 0
 745 506 760 440 760 365 c 0
 760 290 745 224 716 167 c 0
 687 110 645 67 590 36 c 0
 536 5 473 -10 401 -10 c 0
 329 -10 266 5 212 36 c 0
548 100 m 0
 589 124 621 159 644 204 c 0
 667 250 678 304 678 365 c 0
 678 426 667 480 644 526 c 0
 621 571 589 606 548 630 c 0
 506 655 457 667 401 667 c 0
 345 667 296 655 254 630 c 0
 213 606 181 571 158 526 c 0
 135 480 124 426 124 365 c 0
 124 304 135 250 158 204 c 0
 181 159 213 124 254 100 c 0
 296 75 345 63 401 63 c 0
 457 63 506 75 548 100 c 0
EndSplineSet
EndChar

StartChar: Oacute
Encoding: 211 211 108
Width: 802
Flags: W
LayerCount: 2
Fore
SplineSet
212 36 m 0
 157 67 115 110 86 167 c 0
 57 224 42 290 42 365 c 0
 42 440 57 506 86 563 c 0
 115 620 157 663 212 694 c 0
 266 725 329 740 401 740 c 0
 473 740 536 725 590 694 c 0
 645 663 687 620 716 563 c 0
 745 506 760 440 760 365 c 0
 760 290 745 224 716 167 c 0
 687 110 645 67 590 36 c 0
 536 5 473 -10 401 -10 c 0
 329 -10 266 5 212 36 c 0
548 100 m 0
 589 124 621 159 644 204 c 0
 667 250 678 304 678 365 c 0
 678 426 667 480 644 526 c 0
 621 571 589 606 548 630 c 0
 506 655 457 667 401 667 c 0
 345 667 296 655 254 630 c 0
 213 606 181 571 158 526 c 0
 135 480 124 426 124 365 c 0
 124 304 135 250 158 204 c 0
 181 159 213 124 254 100 c 0
 296 75 345 63 401 63 c 0
 457 63 506 75 548 100 c 0
392 770 m 1
 311 770 l 1
 414 980 l 1
 515 980 l 1
 392 770 l 1
EndSplineSet
EndChar

StartChar: Obreve
Encoding: 334 334 109
Width: 802
Flags: W
LayerCount: 2
Fore
SplineSet
212 36 m 0
 157 67 115 110 86 167 c 0
 57 224 42 290 42 365 c 0
 42 440 57 506 86 563 c 0
 115 620 157 663 212 694 c 0
 266 725 329 740 401 740 c 0
 473 740 536 725 590 694 c 0
 645 663 687 620 716 563 c 0
 745 506 760 440 760 365 c 0
 760 290 745 224 716 167 c 0
 687 110 645 67 590 36 c 0
 536 5 473 -10 401 -10 c 0
 329 -10 266 5 212 36 c 0
548 100 m 0
 589 124 621 159 644 204 c 0
 667 250 678 304 678 365 c 0
 678 426 667 480 644 526 c 0
 621 571 589 606 548 630 c 0
 506 655 457 667 401 667 c 0
 345 667 296 655 254 630 c 0
 213 606 181 571 158 526 c 0
 135 480 124 426 124 365 c 0
 124 304 135 250 158 204 c 0
 181 159 213 124 254 100 c 0
 296 75 345 63 401 63 c 0
 457 63 506 75 548 100 c 0
270 833 m 0
 234 862 215 899 211 944 c 1
 296 944 l 1
 300 915 311 893 330 878 c 0
 348 863 372 855 401 855 c 0
 430 855 454 863 472 878 c 0
 490 893 501 915 505 944 c 1
 590 944 l 1
 586 899 566 862 532 833 c 0
 496 804 453 790 401 790 c 0
 348 790 304 804 270 833 c 0
EndSplineSet
EndChar

StartChar: Ocircumflex
Encoding: 212 212 110
Width: 802
Flags: W
LayerCount: 2
Fore
SplineSet
212 36 m 0
 157 67 115 110 86 167 c 0
 57 224 42 290 42 365 c 0
 42 440 57 506 86 563 c 0
 115 620 157 663 212 694 c 0
 266 725 329 740 401 740 c 0
 473 740 536 725 590 694 c 0
 645 663 687 620 716 563 c 0
 745 506 760 440 760 365 c 0
 760 290 745 224 716 167 c 0
 687 110 645 67 590 36 c 0
 536 5 473 -10 401 -10 c 0
 329 -10 266 5 212 36 c 0
548 100 m 0
 589 124 621 159 644 204 c 0
 667 250 678 304 678 365 c 0
 678 426 667 480 644 526 c 0
 621 571 589 606 548 630 c 0
 506 655 457 667 401 667 c 0
 345 667 296 655 254 630 c 0
 213 606 181 571 158 526 c 0
 135 480 124 426 124 365 c 0
 124 304 135 250 158 204 c 0
 181 159 213 124 254 100 c 0
 296 75 345 63 401 63 c 0
 457 63 506 75 548 100 c 0
332 980 m 1
 470 980 l 1
 606 770 l 1
 511 770 l 1
 402 942 l 1
 400 942 l 1
 291 770 l 1
 196 770 l 1
 332 980 l 1
EndSplineSet
EndChar

StartChar: uni1ED0
Encoding: 7888 7888 111
Width: 802
Flags: W
LayerCount: 2
Fore
SplineSet
212 36 m 0
 157 67 115 110 86 167 c 0
 57 224 42 290 42 365 c 0
 42 440 57 506 86 563 c 0
 115 620 157 663 212 694 c 0
 266 725 329 740 401 740 c 0
 473 740 536 725 590 694 c 0
 645 663 687 620 716 563 c 0
 745 506 760 440 760 365 c 0
 760 290 745 224 716 167 c 0
 687 110 645 67 590 36 c 0
 536 5 473 -10 401 -10 c 0
 329 -10 266 5 212 36 c 0
548 100 m 0
 589 124 621 159 644 204 c 0
 667 250 678 304 678 365 c 0
 678 426 667 480 644 526 c 0
 621 571 589 606 548 630 c 0
 506 655 457 667 401 667 c 0
 345 667 296 655 254 630 c 0
 213 606 181 571 158 526 c 0
 135 480 124 426 124 365 c 0
 124 304 135 250 158 204 c 0
 181 159 213 124 254 100 c 0
 296 75 345 63 401 63 c 0
 457 63 506 75 548 100 c 0
332 980 m 1
 470 980 l 1
 606 770 l 1
 511 770 l 1
 402 942 l 1
 400 942 l 1
 291 770 l 1
 196 770 l 1
 332 980 l 1
589 950 m 1
 508 950 l 1
 611 1160 l 1
 712 1160 l 1
 589 950 l 1
EndSplineSet
EndChar

StartChar: uni1ED8
Encoding: 7896 7896 112
Width: 802
Flags: W
LayerCount: 2
Fore
SplineSet
212 36 m 0
 157 67 115 110 86 167 c 0
 57 224 42 290 42 365 c 0
 42 440 57 506 86 563 c 0
 115 620 157 663 212 694 c 0
 266 725 329 740 401 740 c 0
 473 740 536 725 590 694 c 0
 645 663 687 620 716 563 c 0
 745 506 760 440 760 365 c 0
 760 290 745 224 716 167 c 0
 687 110 645 67 590 36 c 0
 536 5 473 -10 401 -10 c 0
 329 -10 266 5 212 36 c 0
548 100 m 0
 589 124 621 159 644 204 c 0
 667 250 678 304 678 365 c 0
 678 426 667 480 644 526 c 0
 621 571 589 606 548 630 c 0
 506 655 457 667 401 667 c 0
 345 667 296 655 254 630 c 0
 213 606 181 571 158 526 c 0
 135 480 124 426 124 365 c 0
 124 304 135 250 158 204 c 0
 181 159 213 124 254 100 c 0
 296 75 345 63 401 63 c 0
 457 63 506 75 548 100 c 0
349 -93 m 1
 453 -93 l 1
 453 -197 l 1
 349 -197 l 1
 349 -93 l 1
332 980 m 1
 470 980 l 1
 606 770 l 1
 511 770 l 1
 402 942 l 1
 400 942 l 1
 291 770 l 1
 196 770 l 1
 332 980 l 1
EndSplineSet
EndChar

StartChar: uni1ED2
Encoding: 7890 7890 113
Width: 802
Flags: W
LayerCount: 2
Fore
SplineSet
212 36 m 0
 157 67 115 110 86 167 c 0
 57 224 42 290 42 365 c 0
 42 440 57 506 86 563 c 0
 115 620 157 663 212 694 c 0
 266 725 329 740 401 740 c 0
 473 740 536 725 590 694 c 0
 645 663 687 620 716 563 c 0
 745 506 760 440 760 365 c 0
 760 290 745 224 716 167 c 0
 687 110 645 67 590 36 c 0
 536 5 473 -10 401 -10 c 0
 329 -10 266 5 212 36 c 0
548 100 m 0
 589 124 621 159 644 204 c 0
 667 250 678 304 678 365 c 0
 678 426 667 480 644 526 c 0
 621 571 589 606 548 630 c 0
 506 655 457 667 401 667 c 0
 345 667 296 655 254 630 c 0
 213 606 181 571 158 526 c 0
 135 480 124 426 124 365 c 0
 124 304 135 250 158 204 c 0
 181 159 213 124 254 100 c 0
 296 75 345 63 401 63 c 0
 457 63 506 75 548 100 c 0
332 980 m 1
 470 980 l 1
 606 770 l 1
 511 770 l 1
 402 942 l 1
 400 942 l 1
 291 770 l 1
 196 770 l 1
 332 980 l 1
90 1160 m 1
 191 1160 l 1
 294 950 l 1
 213 950 l 1
 90 1160 l 1
EndSplineSet
EndChar

StartChar: uni1ED4
Encoding: 7892 7892 114
Width: 802
Flags: W
LayerCount: 2
Fore
SplineSet
212 36 m 0
 157 67 115 110 86 167 c 0
 57 224 42 290 42 365 c 0
 42 440 57 506 86 563 c 0
 115 620 157 663 212 694 c 0
 266 725 329 740 401 740 c 0
 473 740 536 725 590 694 c 0
 645 663 687 620 716 563 c 0
 745 506 760 440 760 365 c 0
 760 290 745 224 716 167 c 0
 687 110 645 67 590 36 c 0
 536 5 473 -10 401 -10 c 0
 329 -10 266 5 212 36 c 0
548 100 m 0
 589 124 621 159 644 204 c 0
 667 250 678 304 678 365 c 0
 678 426 667 480 644 526 c 0
 621 571 589 606 548 630 c 0
 506 655 457 667 401 667 c 0
 345 667 296 655 254 630 c 0
 213 606 181 571 158 526 c 0
 135 480 124 426 124 365 c 0
 124 304 135 250 158 204 c 0
 181 159 213 124 254 100 c 0
 296 75 345 63 401 63 c 0
 457 63 506 75 548 100 c 0
332 980 m 1
 470 980 l 1
 606 770 l 1
 511 770 l 1
 402 942 l 1
 400 942 l 1
 291 770 l 1
 196 770 l 1
 332 980 l 1
534 967 m 0
 536 982 538 994 538 1004 c 0
 538 1021 532 1032 521 1038 c 0
 510 1043 489 1046 458 1046 c 0
 417 1046 376 1040 335 1029 c 1
 327 1093 l 1
 372 1104 422 1110 475 1110 c 0
 513 1110 542 1108 564 1103 c 0
 584 1098 600 1090 608 1079 c 0
 618 1068 622 1052 622 1031 c 0
 622 1016 620 999 617 980 c 0
 614 961 609 944 604 930 c 1
 523 930 l 1
 527 940 530 952 534 967 c 0
EndSplineSet
EndChar

StartChar: uni1ED6
Encoding: 7894 7894 115
Width: 802
Flags: W
LayerCount: 2
Fore
SplineSet
212 36 m 0
 157 67 115 110 86 167 c 0
 57 224 42 290 42 365 c 0
 42 440 57 506 86 563 c 0
 115 620 157 663 212 694 c 0
 266 725 329 740 401 740 c 0
 473 740 536 725 590 694 c 0
 645 663 687 620 716 563 c 0
 745 506 760 440 760 365 c 0
 760 290 745 224 716 167 c 0
 687 110 645 67 590 36 c 0
 536 5 473 -10 401 -10 c 0
 329 -10 266 5 212 36 c 0
548 100 m 0
 589 124 621 159 644 204 c 0
 667 250 678 304 678 365 c 0
 678 426 667 480 644 526 c 0
 621 571 589 606 548 630 c 0
 506 655 457 667 401 667 c 0
 345 667 296 655 254 630 c 0
 213 606 181 571 158 526 c 0
 135 480 124 426 124 365 c 0
 124 304 135 250 158 204 c 0
 181 159 213 124 254 100 c 0
 296 75 345 63 401 63 c 0
 457 63 506 75 548 100 c 0
332 980 m 1
 470 980 l 1
 606 770 l 1
 511 770 l 1
 402 942 l 1
 400 942 l 1
 291 770 l 1
 196 770 l 1
 332 980 l 1
389 1040 m 0
 358 1062 334 1073 316 1073 c 0
 305 1073 298 1068 292 1057 c 0
 288 1046 285 1028 285 1003 c 1
 211 1003 l 1
 211 1053 218 1090 232 1114 c 0
 247 1139 269 1151 300 1151 c 0
 331 1151 369 1135 413 1104 c 0
 443 1082 467 1071 485 1071 c 0
 496 1071 504 1076 508 1087 c 0
 514 1098 516 1116 516 1141 c 1
 590 1141 l 1
 590 1091 583 1054 568 1030 c 0
 554 1005 532 993 502 993 c 0
 472 993 434 1009 389 1040 c 0
EndSplineSet
EndChar

StartChar: uni020C
Encoding: 524 524 116
Width: 802
Flags: W
LayerCount: 2
Fore
SplineSet
212 36 m 0
 157 67 115 110 86 167 c 0
 57 224 42 290 42 365 c 0
 42 440 57 506 86 563 c 0
 115 620 157 663 212 694 c 0
 266 725 329 740 401 740 c 0
 473 740 536 725 590 694 c 0
 645 663 687 620 716 563 c 0
 745 506 760 440 760 365 c 0
 760 290 745 224 716 167 c 0
 687 110 645 67 590 36 c 0
 536 5 473 -10 401 -10 c 0
 329 -10 266 5 212 36 c 0
548 100 m 0
 589 124 621 159 644 204 c 0
 667 250 678 304 678 365 c 0
 678 426 667 480 644 526 c 0
 621 571 589 606 548 630 c 0
 506 655 457 667 401 667 c 0
 345 667 296 655 254 630 c 0
 213 606 181 571 158 526 c 0
 135 480 124 426 124 365 c 0
 124 304 135 250 158 204 c 0
 181 159 213 124 254 100 c 0
 296 75 345 63 401 63 c 0
 457 63 506 75 548 100 c 0
180 980 m 1
 281 980 l 1
 384 770 l 1
 303 770 l 1
 180 980 l 1
390 980 m 1
 491 980 l 1
 594 770 l 1
 513 770 l 1
 390 980 l 1
EndSplineSet
EndChar

StartChar: Odieresis
Encoding: 214 214 117
Width: 802
Flags: W
LayerCount: 2
Fore
SplineSet
212 36 m 0
 157 67 115 110 86 167 c 0
 57 224 42 290 42 365 c 0
 42 440 57 506 86 563 c 0
 115 620 157 663 212 694 c 0
 266 725 329 740 401 740 c 0
 473 740 536 725 590 694 c 0
 645 663 687 620 716 563 c 0
 745 506 760 440 760 365 c 0
 760 290 745 224 716 167 c 0
 687 110 645 67 590 36 c 0
 536 5 473 -10 401 -10 c 0
 329 -10 266 5 212 36 c 0
548 100 m 0
 589 124 621 159 644 204 c 0
 667 250 678 304 678 365 c 0
 678 426 667 480 644 526 c 0
 621 571 589 606 548 630 c 0
 506 655 457 667 401 667 c 0
 345 667 296 655 254 630 c 0
 213 606 181 571 158 526 c 0
 135 480 124 426 124 365 c 0
 124 304 135 250 158 204 c 0
 181 159 213 124 254 100 c 0
 296 75 345 63 401 63 c 0
 457 63 506 75 548 100 c 0
224 927 m 1
 328 927 l 1
 328 823 l 1
 224 823 l 1
 224 927 l 1
473 927 m 1
 577 927 l 1
 577 823 l 1
 473 823 l 1
 473 927 l 1
EndSplineSet
EndChar

StartChar: uni022A
Encoding: 554 554 118
Width: 802
Flags: W
LayerCount: 2
Fore
SplineSet
212 36 m 0
 157 67 115 110 86 167 c 0
 57 224 42 290 42 365 c 0
 42 440 57 506 86 563 c 0
 115 620 157 663 212 694 c 0
 266 725 329 740 401 740 c 0
 473 740 536 725 590 694 c 0
 645 663 687 620 716 563 c 0
 745 506 760 440 760 365 c 0
 760 290 745 224 716 167 c 0
 687 110 645 67 590 36 c 0
 536 5 473 -10 401 -10 c 0
 329 -10 266 5 212 36 c 0
548 100 m 0
 589 124 621 159 644 204 c 0
 667 250 678 304 678 365 c 0
 678 426 667 480 644 526 c 0
 621 571 589 606 548 630 c 0
 506 655 457 667 401 667 c 0
 345 667 296 655 254 630 c 0
 213 606 181 571 158 526 c 0
 135 480 124 426 124 365 c 0
 124 304 135 250 158 204 c 0
 181 159 213 124 254 100 c 0
 296 75 345 63 401 63 c 0
 457 63 506 75 548 100 c 0
224 927 m 1
 328 927 l 1
 328 823 l 1
 224 823 l 1
 224 927 l 1
473 927 m 1
 577 927 l 1
 577 823 l 1
 473 823 l 1
 473 927 l 1
219 1104 m 1
 582 1104 l 1
 582 1040 l 1
 219 1040 l 1
 219 1104 l 1
EndSplineSet
EndChar

StartChar: uni0230
Encoding: 560 560 119
Width: 802
Flags: W
LayerCount: 2
Fore
SplineSet
212 36 m 0
 157 67 115 110 86 167 c 0
 57 224 42 290 42 365 c 0
 42 440 57 506 86 563 c 0
 115 620 157 663 212 694 c 0
 266 725 329 740 401 740 c 0
 473 740 536 725 590 694 c 0
 645 663 687 620 716 563 c 0
 745 506 760 440 760 365 c 0
 760 290 745 224 716 167 c 0
 687 110 645 67 590 36 c 0
 536 5 473 -10 401 -10 c 0
 329 -10 266 5 212 36 c 0
548 100 m 0
 589 124 621 159 644 204 c 0
 667 250 678 304 678 365 c 0
 678 426 667 480 644 526 c 0
 621 571 589 606 548 630 c 0
 506 655 457 667 401 667 c 0
 345 667 296 655 254 630 c 0
 213 606 181 571 158 526 c 0
 135 480 124 426 124 365 c 0
 124 304 135 250 158 204 c 0
 181 159 213 124 254 100 c 0
 296 75 345 63 401 63 c 0
 457 63 506 75 548 100 c 0
349 927 m 1
 453 927 l 1
 453 823 l 1
 349 823 l 1
 349 927 l 1
219 1104 m 1
 582 1104 l 1
 582 1040 l 1
 219 1040 l 1
 219 1104 l 1
EndSplineSet
EndChar

StartChar: uni1ECC
Encoding: 7884 7884 120
Width: 802
Flags: W
LayerCount: 2
Fore
SplineSet
212 36 m 0
 157 67 115 110 86 167 c 0
 57 224 42 290 42 365 c 0
 42 440 57 506 86 563 c 0
 115 620 157 663 212 694 c 0
 266 725 329 740 401 740 c 0
 473 740 536 725 590 694 c 0
 645 663 687 620 716 563 c 0
 745 506 760 440 760 365 c 0
 760 290 745 224 716 167 c 0
 687 110 645 67 590 36 c 0
 536 5 473 -10 401 -10 c 0
 329 -10 266 5 212 36 c 0
548 100 m 0
 589 124 621 159 644 204 c 0
 667 250 678 304 678 365 c 0
 678 426 667 480 644 526 c 0
 621 571 589 606 548 630 c 0
 506 655 457 667 401 667 c 0
 345 667 296 655 254 630 c 0
 213 606 181 571 158 526 c 0
 135 480 124 426 124 365 c 0
 124 304 135 250 158 204 c 0
 181 159 213 124 254 100 c 0
 296 75 345 63 401 63 c 0
 457 63 506 75 548 100 c 0
349 -93 m 1
 453 -93 l 1
 453 -197 l 1
 349 -197 l 1
 349 -93 l 1
EndSplineSet
EndChar

StartChar: Ograve
Encoding: 210 210 121
Width: 802
Flags: W
LayerCount: 2
Fore
SplineSet
212 36 m 0
 157 67 115 110 86 167 c 0
 57 224 42 290 42 365 c 0
 42 440 57 506 86 563 c 0
 115 620 157 663 212 694 c 0
 266 725 329 740 401 740 c 0
 473 740 536 725 590 694 c 0
 645 663 687 620 716 563 c 0
 745 506 760 440 760 365 c 0
 760 290 745 224 716 167 c 0
 687 110 645 67 590 36 c 0
 536 5 473 -10 401 -10 c 0
 329 -10 266 5 212 36 c 0
548 100 m 0
 589 124 621 159 644 204 c 0
 667 250 678 304 678 365 c 0
 678 426 667 480 644 526 c 0
 621 571 589 606 548 630 c 0
 506 655 457 667 401 667 c 0
 345 667 296 655 254 630 c 0
 213 606 181 571 158 526 c 0
 135 480 124 426 124 365 c 0
 124 304 135 250 158 204 c 0
 181 159 213 124 254 100 c 0
 296 75 345 63 401 63 c 0
 457 63 506 75 548 100 c 0
287 980 m 1
 388 980 l 1
 491 770 l 1
 410 770 l 1
 287 980 l 1
EndSplineSet
EndChar

StartChar: uni1ECE
Encoding: 7886 7886 122
Width: 802
Flags: W
LayerCount: 2
Fore
SplineSet
212 36 m 0
 157 67 115 110 86 167 c 0
 57 224 42 290 42 365 c 0
 42 440 57 506 86 563 c 0
 115 620 157 663 212 694 c 0
 266 725 329 740 401 740 c 0
 473 740 536 725 590 694 c 0
 645 663 687 620 716 563 c 0
 745 506 760 440 760 365 c 0
 760 290 745 224 716 167 c 0
 687 110 645 67 590 36 c 0
 536 5 473 -10 401 -10 c 0
 329 -10 266 5 212 36 c 0
548 100 m 0
 589 124 621 159 644 204 c 0
 667 250 678 304 678 365 c 0
 678 426 667 480 644 526 c 0
 621 571 589 606 548 630 c 0
 506 655 457 667 401 667 c 0
 345 667 296 655 254 630 c 0
 213 606 181 571 158 526 c 0
 135 480 124 426 124 365 c 0
 124 304 135 250 158 204 c 0
 181 159 213 124 254 100 c 0
 296 75 345 63 401 63 c 0
 457 63 506 75 548 100 c 0
460 837 m 0
 462 852 464 864 464 874 c 0
 464 891 458 902 447 908 c 0
 436 913 415 916 384 916 c 0
 343 916 302 910 261 899 c 1
 253 963 l 1
 298 974 348 980 401 980 c 0
 439 980 468 978 490 973 c 0
 510 968 526 960 534 949 c 0
 544 938 548 922 548 901 c 0
 548 886 546 869 543 850 c 0
 540 831 535 814 530 800 c 1
 449 800 l 1
 453 810 456 822 460 837 c 0
EndSplineSet
EndChar

StartChar: Ohorn
Encoding: 416 416 123
Width: 819
Flags: W
LayerCount: 2
Fore
SplineSet
760 643 m 0
 744 621 721 608 691 603 c 1
 737 538 760 459 760 365 c 0
 760 290 745 224 716 167 c 0
 687 110 645 67 590 36 c 0
 536 5 473 -10 401 -10 c 0
 329 -10 266 5 212 36 c 0
 157 67 115 110 86 167 c 0
 57 224 42 290 42 365 c 0
 42 440 57 506 86 563 c 0
 115 620 157 663 212 694 c 0
 266 725 329 740 401 740 c 0
 487 740 560 718 621 674 c 0
 628 672 636 671 644 671 c 0
 663 671 678 677 688 689 c 0
 698 701 703 718 703 741 c 0
 703 756 701 774 697 794 c 0
 693 813 688 829 683 842 c 1
 765 842 l 1
 778 804 784 767 784 731 c 0
 784 694 776 665 760 643 c 0
548 100 m 0
 589 124 621 159 644 204 c 0
 667 250 678 304 678 365 c 0
 678 426 667 480 644 526 c 0
 621 571 589 606 548 630 c 0
 506 655 457 667 401 667 c 0
 345 667 296 655 254 630 c 0
 213 606 181 571 158 526 c 0
 135 480 124 426 124 365 c 0
 124 304 135 250 158 204 c 0
 181 159 213 124 254 100 c 0
 296 75 345 63 401 63 c 0
 457 63 506 75 548 100 c 0
EndSplineSet
EndChar

StartChar: uni1EDA
Encoding: 7898 7898 124
Width: 819
Flags: W
LayerCount: 2
Fore
SplineSet
760 643 m 0
 744 621 721 608 691 603 c 1
 737 538 760 459 760 365 c 0
 760 290 745 224 716 167 c 0
 687 110 645 67 590 36 c 0
 536 5 473 -10 401 -10 c 0
 329 -10 266 5 212 36 c 0
 157 67 115 110 86 167 c 0
 57 224 42 290 42 365 c 0
 42 440 57 506 86 563 c 0
 115 620 157 663 212 694 c 0
 266 725 329 740 401 740 c 0
 487 740 560 718 621 674 c 0
 628 672 636 671 644 671 c 0
 663 671 678 677 688 689 c 0
 698 701 703 718 703 741 c 0
 703 756 701 774 697 794 c 0
 693 813 688 829 683 842 c 1
 765 842 l 1
 778 804 784 767 784 731 c 0
 784 694 776 665 760 643 c 0
548 100 m 0
 589 124 621 159 644 204 c 0
 667 250 678 304 678 365 c 0
 678 426 667 480 644 526 c 0
 621 571 589 606 548 630 c 0
 506 655 457 667 401 667 c 0
 345 667 296 655 254 630 c 0
 213 606 181 571 158 526 c 0
 135 480 124 426 124 365 c 0
 124 304 135 250 158 204 c 0
 181 159 213 124 254 100 c 0
 296 75 345 63 401 63 c 0
 457 63 506 75 548 100 c 0
392 770 m 1
 311 770 l 1
 414 980 l 1
 515 980 l 1
 392 770 l 1
EndSplineSet
EndChar

StartChar: uni1EE2
Encoding: 7906 7906 125
Width: 819
Flags: W
LayerCount: 2
Fore
SplineSet
760 643 m 0
 744 621 721 608 691 603 c 1
 737 538 760 459 760 365 c 0
 760 290 745 224 716 167 c 0
 687 110 645 67 590 36 c 0
 536 5 473 -10 401 -10 c 0
 329 -10 266 5 212 36 c 0
 157 67 115 110 86 167 c 0
 57 224 42 290 42 365 c 0
 42 440 57 506 86 563 c 0
 115 620 157 663 212 694 c 0
 266 725 329 740 401 740 c 0
 487 740 560 718 621 674 c 0
 628 672 636 671 644 671 c 0
 663 671 678 677 688 689 c 0
 698 701 703 718 703 741 c 0
 703 756 701 774 697 794 c 0
 693 813 688 829 683 842 c 1
 765 842 l 1
 778 804 784 767 784 731 c 0
 784 694 776 665 760 643 c 0
548 100 m 0
 589 124 621 159 644 204 c 0
 667 250 678 304 678 365 c 0
 678 426 667 480 644 526 c 0
 621 571 589 606 548 630 c 0
 506 655 457 667 401 667 c 0
 345 667 296 655 254 630 c 0
 213 606 181 571 158 526 c 0
 135 480 124 426 124 365 c 0
 124 304 135 250 158 204 c 0
 181 159 213 124 254 100 c 0
 296 75 345 63 401 63 c 0
 457 63 506 75 548 100 c 0
349 -93 m 1
 453 -93 l 1
 453 -197 l 1
 349 -197 l 1
 349 -93 l 1
EndSplineSet
EndChar

StartChar: uni1EDC
Encoding: 7900 7900 126
Width: 819
Flags: W
LayerCount: 2
Fore
SplineSet
760 643 m 0
 744 621 721 608 691 603 c 1
 737 538 760 459 760 365 c 0
 760 290 745 224 716 167 c 0
 687 110 645 67 590 36 c 0
 536 5 473 -10 401 -10 c 0
 329 -10 266 5 212 36 c 0
 157 67 115 110 86 167 c 0
 57 224 42 290 42 365 c 0
 42 440 57 506 86 563 c 0
 115 620 157 663 212 694 c 0
 266 725 329 740 401 740 c 0
 487 740 560 718 621 674 c 0
 628 672 636 671 644 671 c 0
 663 671 678 677 688 689 c 0
 698 701 703 718 703 741 c 0
 703 756 701 774 697 794 c 0
 693 813 688 829 683 842 c 1
 765 842 l 1
 778 804 784 767 784 731 c 0
 784 694 776 665 760 643 c 0
548 100 m 0
 589 124 621 159 644 204 c 0
 667 250 678 304 678 365 c 0
 678 426 667 480 644 526 c 0
 621 571 589 606 548 630 c 0
 506 655 457 667 401 667 c 0
 345 667 296 655 254 630 c 0
 213 606 181 571 158 526 c 0
 135 480 124 426 124 365 c 0
 124 304 135 250 158 204 c 0
 181 159 213 124 254 100 c 0
 296 75 345 63 401 63 c 0
 457 63 506 75 548 100 c 0
287 980 m 1
 388 980 l 1
 491 770 l 1
 410 770 l 1
 287 980 l 1
EndSplineSet
EndChar

StartChar: uni1EDE
Encoding: 7902 7902 127
Width: 819
Flags: W
LayerCount: 2
Fore
SplineSet
760 643 m 0
 744 621 721 608 691 603 c 1
 737 538 760 459 760 365 c 0
 760 290 745 224 716 167 c 0
 687 110 645 67 590 36 c 0
 536 5 473 -10 401 -10 c 0
 329 -10 266 5 212 36 c 0
 157 67 115 110 86 167 c 0
 57 224 42 290 42 365 c 0
 42 440 57 506 86 563 c 0
 115 620 157 663 212 694 c 0
 266 725 329 740 401 740 c 0
 487 740 560 718 621 674 c 0
 628 672 636 671 644 671 c 0
 663 671 678 677 688 689 c 0
 698 701 703 718 703 741 c 0
 703 756 701 774 697 794 c 0
 693 813 688 829 683 842 c 1
 765 842 l 1
 778 804 784 767 784 731 c 0
 784 694 776 665 760 643 c 0
548 100 m 0
 589 124 621 159 644 204 c 0
 667 250 678 304 678 365 c 0
 678 426 667 480 644 526 c 0
 621 571 589 606 548 630 c 0
 506 655 457 667 401 667 c 0
 345 667 296 655 254 630 c 0
 213 606 181 571 158 526 c 0
 135 480 124 426 124 365 c 0
 124 304 135 250 158 204 c 0
 181 159 213 124 254 100 c 0
 296 75 345 63 401 63 c 0
 457 63 506 75 548 100 c 0
460 837 m 0
 462 852 464 864 464 874 c 0
 464 891 458 902 447 908 c 0
 436 913 415 916 384 916 c 0
 343 916 302 910 261 899 c 1
 253 963 l 1
 298 974 348 980 401 980 c 0
 439 980 468 978 490 973 c 0
 510 968 526 960 534 949 c 0
 544 938 548 922 548 901 c 0
 548 886 546 869 543 850 c 0
 540 831 535 814 530 800 c 1
 449 800 l 1
 453 810 456 822 460 837 c 0
EndSplineSet
EndChar

StartChar: uni1EE0
Encoding: 7904 7904 128
Width: 819
Flags: W
LayerCount: 2
Fore
SplineSet
760 643 m 0
 744 621 721 608 691 603 c 1
 737 538 760 459 760 365 c 0
 760 290 745 224 716 167 c 0
 687 110 645 67 590 36 c 0
 536 5 473 -10 401 -10 c 0
 329 -10 266 5 212 36 c 0
 157 67 115 110 86 167 c 0
 57 224 42 290 42 365 c 0
 42 440 57 506 86 563 c 0
 115 620 157 663 212 694 c 0
 266 725 329 740 401 740 c 0
 487 740 560 718 621 674 c 0
 628 672 636 671 644 671 c 0
 663 671 678 677 688 689 c 0
 698 701 703 718 703 741 c 0
 703 756 701 774 697 794 c 0
 693 813 688 829 683 842 c 1
 765 842 l 1
 778 804 784 767 784 731 c 0
 784 694 776 665 760 643 c 0
548 100 m 0
 589 124 621 159 644 204 c 0
 667 250 678 304 678 365 c 0
 678 426 667 480 644 526 c 0
 621 571 589 606 548 630 c 0
 506 655 457 667 401 667 c 0
 345 667 296 655 254 630 c 0
 213 606 181 571 158 526 c 0
 135 480 124 426 124 365 c 0
 124 304 135 250 158 204 c 0
 181 159 213 124 254 100 c 0
 296 75 345 63 401 63 c 0
 457 63 506 75 548 100 c 0
389 843 m 0
 358 865 334 876 316 876 c 0
 305 876 298 871 292 860 c 0
 288 849 285 831 285 806 c 1
 211 806 l 1
 211 856 218 893 232 918 c 0
 247 942 269 954 300 954 c 0
 331 954 369 938 413 907 c 0
 443 885 467 874 485 874 c 0
 496 874 504 879 508 890 c 0
 514 901 516 919 516 944 c 1
 590 944 l 1
 590 894 583 857 568 832 c 0
 554 808 532 796 502 796 c 0
 472 796 434 812 389 843 c 0
EndSplineSet
EndChar

StartChar: Ohungarumlaut
Encoding: 336 336 129
Width: 802
Flags: W
LayerCount: 2
Fore
SplineSet
212 36 m 0
 157 67 115 110 86 167 c 0
 57 224 42 290 42 365 c 0
 42 440 57 506 86 563 c 0
 115 620 157 663 212 694 c 0
 266 725 329 740 401 740 c 0
 473 740 536 725 590 694 c 0
 645 663 687 620 716 563 c 0
 745 506 760 440 760 365 c 0
 760 290 745 224 716 167 c 0
 687 110 645 67 590 36 c 0
 536 5 473 -10 401 -10 c 0
 329 -10 266 5 212 36 c 0
548 100 m 0
 589 124 621 159 644 204 c 0
 667 250 678 304 678 365 c 0
 678 426 667 480 644 526 c 0
 621 571 589 606 548 630 c 0
 506 655 457 667 401 667 c 0
 345 667 296 655 254 630 c 0
 213 606 181 571 158 526 c 0
 135 480 124 426 124 365 c 0
 124 304 135 250 158 204 c 0
 181 159 213 124 254 100 c 0
 296 75 345 63 401 63 c 0
 457 63 506 75 548 100 c 0
292 770 m 1
 211 770 l 1
 314 980 l 1
 415 980 l 1
 292 770 l 1
502 770 m 1
 421 770 l 1
 524 980 l 1
 625 980 l 1
 502 770 l 1
EndSplineSet
EndChar

StartChar: uni020E
Encoding: 526 526 130
Width: 802
Flags: W
LayerCount: 2
Fore
SplineSet
212 36 m 0
 157 67 115 110 86 167 c 0
 57 224 42 290 42 365 c 0
 42 440 57 506 86 563 c 0
 115 620 157 663 212 694 c 0
 266 725 329 740 401 740 c 0
 473 740 536 725 590 694 c 0
 645 663 687 620 716 563 c 0
 745 506 760 440 760 365 c 0
 760 290 745 224 716 167 c 0
 687 110 645 67 590 36 c 0
 536 5 473 -10 401 -10 c 0
 329 -10 266 5 212 36 c 0
548 100 m 0
 589 124 621 159 644 204 c 0
 667 250 678 304 678 365 c 0
 678 426 667 480 644 526 c 0
 621 571 589 606 548 630 c 0
 506 655 457 667 401 667 c 0
 345 667 296 655 254 630 c 0
 213 606 181 571 158 526 c 0
 135 480 124 426 124 365 c 0
 124 304 135 250 158 204 c 0
 181 159 213 124 254 100 c 0
 296 75 345 63 401 63 c 0
 457 63 506 75 548 100 c 0
532 917 m 0
 566 888 586 851 590 806 c 1
 505 806 l 1
 501 835 490 857 472 872 c 0
 454 887 430 895 401 895 c 0
 372 895 348 887 330 872 c 0
 311 857 300 835 296 806 c 1
 211 806 l 1
 215 851 234 888 270 917 c 0
 304 946 348 960 401 960 c 0
 453 960 496 946 532 917 c 0
EndSplineSet
EndChar

StartChar: Omacron
Encoding: 332 332 131
Width: 802
Flags: W
LayerCount: 2
Fore
SplineSet
212 36 m 0
 157 67 115 110 86 167 c 0
 57 224 42 290 42 365 c 0
 42 440 57 506 86 563 c 0
 115 620 157 663 212 694 c 0
 266 725 329 740 401 740 c 0
 473 740 536 725 590 694 c 0
 645 663 687 620 716 563 c 0
 745 506 760 440 760 365 c 0
 760 290 745 224 716 167 c 0
 687 110 645 67 590 36 c 0
 536 5 473 -10 401 -10 c 0
 329 -10 266 5 212 36 c 0
548 100 m 0
 589 124 621 159 644 204 c 0
 667 250 678 304 678 365 c 0
 678 426 667 480 644 526 c 0
 621 571 589 606 548 630 c 0
 506 655 457 667 401 667 c 0
 345 667 296 655 254 630 c 0
 213 606 181 571 158 526 c 0
 135 480 124 426 124 365 c 0
 124 304 135 250 158 204 c 0
 181 159 213 124 254 100 c 0
 296 75 345 63 401 63 c 0
 457 63 506 75 548 100 c 0
219 907 m 1
 582 907 l 1
 582 843 l 1
 219 843 l 1
 219 907 l 1
EndSplineSet
EndChar

StartChar: uni01EA
Encoding: 490 490 132
Width: 802
Flags: W
LayerCount: 2
Fore
SplineSet
360 -107 m 0
 360 -123 367 -135 382 -142 c 0
 397 -149 416 -153 441 -153 c 0
 474 -153 505 -147 532 -134 c 1
 546 -197 l 1
 514 -211 477 -218 435 -218 c 0
 385 -218 348 -209 322 -191 c 0
 298 -173 285 -149 285 -120 c 0
 285 -80 306 -42 349 -7 c 1
 287 0 233 20 186 52 c 0
 140 85 104 128 80 182 c 0
 54 235 42 296 42 365 c 0
 42 440 57 506 86 563 c 0
 115 620 157 663 212 694 c 0
 266 725 329 740 401 740 c 0
 473 740 536 725 590 694 c 0
 645 663 687 620 716 563 c 0
 745 506 760 440 760 365 c 0
 760 295 747 233 722 178 c 0
 696 124 659 81 612 49 c 0
 564 17 508 -2 444 -8 c 1
 388 -43 360 -76 360 -107 c 0
158 204 m 0
 181 159 213 124 254 100 c 0
 296 75 345 63 401 63 c 0
 457 63 506 75 548 100 c 0
 589 124 621 159 644 204 c 0
 667 250 678 304 678 365 c 0
 678 426 667 480 644 526 c 0
 621 571 589 606 548 630 c 0
 506 655 457 667 401 667 c 0
 345 667 296 655 254 630 c 0
 213 606 181 571 158 526 c 0
 135 480 124 426 124 365 c 0
 124 304 135 250 158 204 c 0
EndSplineSet
EndChar

StartChar: Oslash
Encoding: 216 216 133
Width: 802
Flags: W
LayerCount: 2
Fore
SplineSet
732 525 m 0
 751 477 760 424 760 365 c 0
 760 290 745 224 716 167 c 0
 687 110 645 67 590 36 c 0
 536 5 473 -10 401 -10 c 0
 324 -10 258 7 202 42 c 1
 148 -30 l 1
 94 10 l 1
 149 83 l 1
 114 116 88 157 70 205 c 0
 51 253 42 306 42 365 c 0
 42 440 57 506 86 563 c 0
 115 620 157 663 212 694 c 0
 266 725 329 740 401 740 c 0
 478 740 544 723 600 688 c 1
 654 760 l 1
 708 720 l 1
 653 647 l 1
 688 614 714 573 732 525 c 0
142 242 m 0
 155 204 173 173 196 147 c 1
 554 626 l 1
 511 653 460 667 401 667 c 0
 345 667 296 655 254 630 c 0
 213 606 181 571 158 526 c 0
 135 480 124 426 124 365 c 0
 124 320 130 278 142 242 c 0
548 100 m 0
 589 124 621 159 644 204 c 0
 667 250 678 304 678 365 c 0
 678 410 672 452 660 488 c 0
 647 526 629 557 606 583 c 1
 248 104 l 1
 291 77 342 63 401 63 c 0
 457 63 506 75 548 100 c 0
EndSplineSet
EndChar

StartChar: Oslashacute
Encoding: 510 510 134
Width: 802
Flags: W
LayerCount: 2
Fore
SplineSet
732 525 m 0
 751 477 760 424 760 365 c 0
 760 290 745 224 716 167 c 0
 687 110 645 67 590 36 c 0
 536 5 473 -10 401 -10 c 0
 324 -10 258 7 202 42 c 1
 148 -30 l 1
 94 10 l 1
 149 83 l 1
 114 116 88 157 70 205 c 0
 51 253 42 306 42 365 c 0
 42 440 57 506 86 563 c 0
 115 620 157 663 212 694 c 0
 266 725 329 740 401 740 c 0
 478 740 544 723 600 688 c 1
 654 760 l 1
 708 720 l 1
 653 647 l 1
 688 614 714 573 732 525 c 0
142 242 m 0
 155 204 173 173 196 147 c 1
 554 626 l 1
 511 653 460 667 401 667 c 0
 345 667 296 655 254 630 c 0
 213 606 181 571 158 526 c 0
 135 480 124 426 124 365 c 0
 124 320 130 278 142 242 c 0
548 100 m 0
 589 124 621 159 644 204 c 0
 667 250 678 304 678 365 c 0
 678 410 672 452 660 488 c 0
 647 526 629 557 606 583 c 1
 248 104 l 1
 291 77 342 63 401 63 c 0
 457 63 506 75 548 100 c 0
392 770 m 1
 311 770 l 1
 414 980 l 1
 515 980 l 1
 392 770 l 1
EndSplineSet
EndChar

StartChar: Otilde
Encoding: 213 213 135
Width: 802
Flags: W
LayerCount: 2
Fore
SplineSet
212 36 m 0
 157 67 115 110 86 167 c 0
 57 224 42 290 42 365 c 0
 42 440 57 506 86 563 c 0
 115 620 157 663 212 694 c 0
 266 725 329 740 401 740 c 0
 473 740 536 725 590 694 c 0
 645 663 687 620 716 563 c 0
 745 506 760 440 760 365 c 0
 760 290 745 224 716 167 c 0
 687 110 645 67 590 36 c 0
 536 5 473 -10 401 -10 c 0
 329 -10 266 5 212 36 c 0
548 100 m 0
 589 124 621 159 644 204 c 0
 667 250 678 304 678 365 c 0
 678 426 667 480 644 526 c 0
 621 571 589 606 548 630 c 0
 506 655 457 667 401 667 c 0
 345 667 296 655 254 630 c 0
 213 606 181 571 158 526 c 0
 135 480 124 426 124 365 c 0
 124 304 135 250 158 204 c 0
 181 159 213 124 254 100 c 0
 296 75 345 63 401 63 c 0
 457 63 506 75 548 100 c 0
389 843 m 0
 358 865 334 876 316 876 c 0
 305 876 298 871 292 860 c 0
 288 849 285 831 285 806 c 1
 211 806 l 1
 211 856 218 893 232 918 c 0
 247 942 269 954 300 954 c 0
 331 954 369 938 413 907 c 0
 443 885 467 874 485 874 c 0
 496 874 504 879 508 890 c 0
 514 901 516 919 516 944 c 1
 590 944 l 1
 590 894 583 857 568 832 c 0
 554 808 532 796 502 796 c 0
 472 796 434 812 389 843 c 0
EndSplineSet
EndChar

StartChar: uni022C
Encoding: 556 556 136
Width: 802
Flags: W
LayerCount: 2
Fore
SplineSet
212 36 m 0
 157 67 115 110 86 167 c 0
 57 224 42 290 42 365 c 0
 42 440 57 506 86 563 c 0
 115 620 157 663 212 694 c 0
 266 725 329 740 401 740 c 0
 473 740 536 725 590 694 c 0
 645 663 687 620 716 563 c 0
 745 506 760 440 760 365 c 0
 760 290 745 224 716 167 c 0
 687 110 645 67 590 36 c 0
 536 5 473 -10 401 -10 c 0
 329 -10 266 5 212 36 c 0
548 100 m 0
 589 124 621 159 644 204 c 0
 667 250 678 304 678 365 c 0
 678 426 667 480 644 526 c 0
 621 571 589 606 548 630 c 0
 506 655 457 667 401 667 c 0
 345 667 296 655 254 630 c 0
 213 606 181 571 158 526 c 0
 135 480 124 426 124 365 c 0
 124 304 135 250 158 204 c 0
 181 159 213 124 254 100 c 0
 296 75 345 63 401 63 c 0
 457 63 506 75 548 100 c 0
389 843 m 0
 358 865 334 876 316 876 c 0
 305 876 298 871 292 860 c 0
 288 849 285 831 285 806 c 1
 211 806 l 1
 211 856 218 893 232 918 c 0
 247 942 269 954 300 954 c 0
 331 954 369 938 413 907 c 0
 443 885 467 874 485 874 c 0
 496 874 504 879 508 890 c 0
 514 901 516 919 516 944 c 1
 590 944 l 1
 590 894 583 857 568 832 c 0
 554 808 532 796 502 796 c 0
 472 796 434 812 389 843 c 0
219 1131 m 1
 582 1131 l 1
 582 1067 l 1
 219 1067 l 1
 219 1131 l 1
EndSplineSet
EndChar

StartChar: OE
Encoding: 338 338 137
Width: 1004
Flags: W
LayerCount: 2
Fore
SplineSet
575 658 m 1
 575 420 l 1
 918 420 l 1
 918 350 l 1
 575 350 l 1
 575 72 l 1
 938 72 l 1
 938 0 l 1
 495 0 l 1
 463 -7 432 -10 401 -10 c 0
 329 -10 266 5 212 36 c 0
 157 67 115 110 86 167 c 0
 57 224 42 290 42 365 c 0
 42 440 57 506 86 563 c 0
 115 620 157 663 212 694 c 0
 266 725 329 740 401 740 c 0
 432 740 463 737 495 730 c 1
 938 730 l 1
 938 658 l 1
 575 658 l 1
495 78 m 1
 495 652 l 1
 467 662 436 667 401 667 c 0
 345 667 296 655 254 630 c 0
 213 606 181 571 158 526 c 0
 135 480 124 426 124 365 c 0
 124 304 135 250 158 204 c 0
 181 159 213 124 254 100 c 0
 296 75 345 63 401 63 c 0
 436 63 467 68 495 78 c 1
EndSplineSet
EndChar

StartChar: P
Encoding: 80 80 138
Width: 597
Flags: W
LayerCount: 2
Fore
SplineSet
494 676 m 0
 543 639 568 582 568 505 c 0
 568 428 544 372 496 334 c 0
 448 298 374 279 275 279 c 2
 165 279 l 1
 165 0 l 1
 85 0 l 1
 85 730 l 1
 262 730 l 2
 367 730 444 712 494 676 c 0
434 388 m 0
 470 412 487 451 487 504 c 0
 487 557 470 596 434 620 c 0
 400 645 343 657 265 657 c 2
 165 657 l 1
 165 351 l 1
 265 351 l 2
 343 351 400 363 434 388 c 0
EndSplineSet
EndChar

StartChar: Thorn
Encoding: 222 222 139
Width: 597
Flags: W
LayerCount: 2
Fore
SplineSet
494 546 m 0
 543 509 568 452 568 375 c 0
 568 298 544 242 496 205 c 0
 448 168 374 150 275 150 c 2
 165 150 l 1
 165 0 l 1
 85 0 l 1
 85 730 l 1
 165 730 l 1
 165 600 l 1
 262 600 l 2
 367 600 445 582 494 546 c 0
434 258 m 0
 470 282 487 321 487 374 c 0
 487 427 470 466 434 490 c 0
 400 515 343 527 265 527 c 2
 165 527 l 1
 165 222 l 1
 265 222 l 2
 343 222 400 234 434 258 c 0
EndSplineSet
EndChar

StartChar: Q
Encoding: 81 81 140
Width: 809
Flags: W
LayerCount: 2
Fore
SplineSet
774 -81 m 1
 711 -127 l 1
 678 -89 635 -60 582 -40 c 0
 529 -20 468 -10 401 -10 c 0
 329 -10 266 5 212 36 c 0
 157 67 115 110 86 167 c 0
 57 224 42 290 42 365 c 0
 42 440 57 506 86 563 c 0
 115 620 157 663 212 694 c 0
 266 725 329 740 401 740 c 0
 473 740 536 725 590 694 c 0
 645 663 687 620 716 563 c 0
 745 506 760 440 760 365 c 0
 760 285 743 216 708 158 c 0
 674 100 626 57 564 30 c 1
 653 9 723 -28 774 -81 c 1
158 204 m 0
 181 159 213 124 254 100 c 0
 296 75 345 63 401 63 c 0
 457 63 506 75 548 100 c 0
 589 124 621 159 644 204 c 0
 667 250 678 304 678 365 c 0
 678 426 667 480 644 526 c 0
 621 571 589 606 548 630 c 0
 506 655 457 667 401 667 c 0
 345 667 296 655 254 630 c 0
 213 606 181 571 158 526 c 0
 135 480 124 426 124 365 c 0
 124 304 135 250 158 204 c 0
EndSplineSet
EndChar

StartChar: R
Encoding: 82 82 141
Width: 626
Flags: W
LayerCount: 2
Fore
SplineSet
234 318 m 1
 165 318 l 1
 165 0 l 1
 85 0 l 1
 85 730 l 1
 275 730 l 2
 376 730 450 714 498 681 c 0
 544 648 568 596 568 525 c 0
 568 460 548 410 509 376 c 0
 470 343 409 324 327 319 c 1
 592 0 l 1
 496 0 l 1
 234 318 l 1
165 389 m 1
 278 389 l 2
 352 389 405 399 438 420 c 0
 471 441 487 475 487 522 c 0
 487 569 471 604 438 625 c 0
 405 646 352 657 278 657 c 2
 165 657 l 1
 165 389 l 1
EndSplineSet
EndChar

StartChar: Racute
Encoding: 340 340 142
Width: 626
Flags: W
LayerCount: 2
Fore
SplineSet
234 318 m 1
 165 318 l 1
 165 0 l 1
 85 0 l 1
 85 730 l 1
 275 730 l 2
 376 730 450 714 498 681 c 0
 544 648 568 596 568 525 c 0
 568 460 548 410 509 376 c 0
 470 343 409 324 327 319 c 1
 592 0 l 1
 496 0 l 1
 234 318 l 1
165 389 m 1
 278 389 l 2
 352 389 405 399 438 420 c 0
 471 441 487 475 487 522 c 0
 487 569 471 604 438 625 c 0
 405 646 352 657 278 657 c 2
 165 657 l 1
 165 389 l 1
294 770 m 1
 213 770 l 1
 316 980 l 1
 417 980 l 1
 294 770 l 1
EndSplineSet
EndChar

StartChar: Rcaron
Encoding: 344 344 143
Width: 626
Flags: W
LayerCount: 2
Fore
SplineSet
234 318 m 1
 165 318 l 1
 165 0 l 1
 85 0 l 1
 85 730 l 1
 275 730 l 2
 376 730 450 714 498 681 c 0
 544 648 568 596 568 525 c 0
 568 460 548 410 509 376 c 0
 470 343 409 324 327 319 c 1
 592 0 l 1
 496 0 l 1
 234 318 l 1
165 389 m 1
 278 389 l 2
 352 389 405 399 438 420 c 0
 471 441 487 475 487 522 c 0
 487 569 471 604 438 625 c 0
 405 646 352 657 278 657 c 2
 165 657 l 1
 165 389 l 1
99 980 m 1
 194 980 l 1
 303 808 l 1
 305 808 l 1
 414 980 l 1
 509 980 l 1
 373 770 l 1
 235 770 l 1
 99 980 l 1
EndSplineSet
EndChar

StartChar: uni0156
Encoding: 342 342 144
Width: 626
Flags: W
LayerCount: 2
Fore
SplineSet
234 318 m 1
 165 318 l 1
 165 0 l 1
 85 0 l 1
 85 730 l 1
 275 730 l 2
 376 730 450 714 498 681 c 0
 544 648 568 596 568 525 c 0
 568 460 548 410 509 376 c 0
 470 343 409 324 327 319 c 1
 592 0 l 1
 496 0 l 1
 234 318 l 1
165 389 m 1
 278 389 l 2
 352 389 405 399 438 420 c 0
 471 441 487 475 487 522 c 0
 487 569 471 604 438 625 c 0
 405 646 352 657 278 657 c 2
 165 657 l 1
 165 389 l 1
282 -250 m 1
 201 -250 l 1
 304 -40 l 1
 405 -40 l 1
 282 -250 l 1
EndSplineSet
EndChar

StartChar: uni0210
Encoding: 528 528 145
Width: 626
Flags: W
LayerCount: 2
Fore
SplineSet
234 318 m 1
 165 318 l 1
 165 0 l 1
 85 0 l 1
 85 730 l 1
 275 730 l 2
 376 730 450 714 498 681 c 0
 544 648 568 596 568 525 c 0
 568 460 548 410 509 376 c 0
 470 343 409 324 327 319 c 1
 592 0 l 1
 496 0 l 1
 234 318 l 1
165 389 m 1
 278 389 l 2
 352 389 405 399 438 420 c 0
 471 441 487 475 487 522 c 0
 487 569 471 604 438 625 c 0
 405 646 352 657 278 657 c 2
 165 657 l 1
 165 389 l 1
83 980 m 1
 184 980 l 1
 287 770 l 1
 206 770 l 1
 83 980 l 1
293 980 m 1
 394 980 l 1
 497 770 l 1
 416 770 l 1
 293 980 l 1
EndSplineSet
EndChar

StartChar: uni0212
Encoding: 530 530 146
Width: 626
Flags: W
LayerCount: 2
Fore
SplineSet
234 318 m 1
 165 318 l 1
 165 0 l 1
 85 0 l 1
 85 730 l 1
 275 730 l 2
 376 730 450 714 498 681 c 0
 544 648 568 596 568 525 c 0
 568 460 548 410 509 376 c 0
 470 343 409 324 327 319 c 1
 592 0 l 1
 496 0 l 1
 234 318 l 1
165 389 m 1
 278 389 l 2
 352 389 405 399 438 420 c 0
 471 441 487 475 487 522 c 0
 487 569 471 604 438 625 c 0
 405 646 352 657 278 657 c 2
 165 657 l 1
 165 389 l 1
434 917 m 0
 470 888 489 851 493 806 c 1
 408 806 l 1
 404 835 393 857 375 872 c 0
 357 887 333 895 304 895 c 0
 275 895 251 887 232 872 c 0
 214 857 203 835 199 806 c 1
 114 806 l 1
 118 851 138 888 172 917 c 0
 208 946 251 960 304 960 c 0
 356 960 400 946 434 917 c 0
EndSplineSet
EndChar

StartChar: S
Encoding: 83 83 147
Width: 610
Flags: W
LayerCount: 2
Fore
SplineSet
166 6 m 0
 126 16 89 31 57 50 c 1
 86 119 l 1
 117 101 150 87 186 78 c 0
 223 68 259 63 296 63 c 0
 351 63 394 74 425 96 c 0
 456 119 471 151 471 192 c 0
 471 220 464 243 449 260 c 0
 434 278 415 292 392 302 c 0
 369 312 337 323 297 335 c 0
 244 352 200 368 167 385 c 0
 134 402 107 423 88 450 c 0
 69 476 59 509 59 549 c 0
 59 609 81 656 124 690 c 0
 167 723 228 740 306 740 c 0
 347 740 388 736 431 726 c 0
 474 718 509 706 536 691 c 1
 507 622 l 1
 482 635 452 646 416 654 c 0
 379 663 344 667 310 667 c 0
 257 667 215 657 186 636 c 0
 157 616 142 587 141 549 c 0
 141 523 148 502 162 485 c 0
 177 468 195 455 218 445 c 0
 241 435 272 424 311 413 c 0
 365 396 409 378 442 362 c 0
 476 344 503 322 523 296 c 0
 543 268 553 234 553 192 c 0
 554 129 531 79 486 44 c 0
 441 8 377 -10 296 -10 c 0
 251 -10 208 -5 166 6 c 0
EndSplineSet
EndChar

StartChar: Sacute
Encoding: 346 346 148
Width: 610
Flags: W
LayerCount: 2
Fore
SplineSet
166 6 m 0
 126 16 89 31 57 50 c 1
 86 119 l 1
 117 101 150 87 186 78 c 0
 223 68 259 63 296 63 c 0
 351 63 394 74 425 96 c 0
 456 119 471 151 471 192 c 0
 471 220 464 243 449 260 c 0
 434 278 415 292 392 302 c 0
 369 312 337 323 297 335 c 0
 244 352 200 368 167 385 c 0
 134 402 107 423 88 450 c 0
 69 476 59 509 59 549 c 0
 59 609 81 656 124 690 c 0
 167 723 228 740 306 740 c 0
 347 740 388 736 431 726 c 0
 474 718 509 706 536 691 c 1
 507 622 l 1
 482 635 452 646 416 654 c 0
 379 663 344 667 310 667 c 0
 257 667 215 657 186 636 c 0
 157 616 142 587 141 549 c 0
 141 523 148 502 162 485 c 0
 177 468 195 455 218 445 c 0
 241 435 272 424 311 413 c 0
 365 396 409 378 442 362 c 0
 476 344 503 322 523 296 c 0
 543 268 553 234 553 192 c 0
 554 129 531 79 486 44 c 0
 441 8 377 -10 296 -10 c 0
 251 -10 208 -5 166 6 c 0
293 770 m 1
 212 770 l 1
 315 980 l 1
 416 980 l 1
 293 770 l 1
EndSplineSet
EndChar

StartChar: Scaron
Encoding: 352 352 149
Width: 610
Flags: W
LayerCount: 2
Fore
SplineSet
166 6 m 0
 126 16 89 31 57 50 c 1
 86 119 l 1
 117 101 150 87 186 78 c 0
 223 68 259 63 296 63 c 0
 351 63 394 74 425 96 c 0
 456 119 471 151 471 192 c 0
 471 220 464 243 449 260 c 0
 434 278 415 292 392 302 c 0
 369 312 337 323 297 335 c 0
 244 352 200 368 167 385 c 0
 134 402 107 423 88 450 c 0
 69 476 59 509 59 549 c 0
 59 609 81 656 124 690 c 0
 167 723 228 740 306 740 c 0
 347 740 388 736 431 726 c 0
 474 718 509 706 536 691 c 1
 507 622 l 1
 482 635 452 646 416 654 c 0
 379 663 344 667 310 667 c 0
 257 667 215 657 186 636 c 0
 157 616 142 587 141 549 c 0
 141 523 148 502 162 485 c 0
 177 468 195 455 218 445 c 0
 241 435 272 424 311 413 c 0
 365 396 409 378 442 362 c 0
 476 344 503 322 523 296 c 0
 543 268 553 234 553 192 c 0
 554 129 531 79 486 44 c 0
 441 8 377 -10 296 -10 c 0
 251 -10 208 -5 166 6 c 0
98 980 m 1
 193 980 l 1
 302 808 l 1
 304 808 l 1
 413 980 l 1
 508 980 l 1
 372 770 l 1
 234 770 l 1
 98 980 l 1
EndSplineSet
EndChar

StartChar: Scedilla
Encoding: 350 350 150
Width: 610
Flags: W
LayerCount: 2
Fore
SplineSet
506 62 m 0
 474 28 429 6 370 -4 c 1
 415 -41 437 -80 437 -120 c 0
 437 -149 424 -173 400 -191 c 0
 374 -209 337 -218 287 -218 c 0
 246 -218 209 -211 177 -197 c 1
 191 -135 l 1
 220 -148 250 -154 281 -154 c 0
 306 -154 326 -150 340 -142 c 0
 356 -135 363 -123 363 -107 c 0
 363 -92 356 -77 342 -60 c 0
 328 -43 308 -27 281 -10 c 1
 239 -9 199 -3 160 7 c 0
 122 17 88 31 57 50 c 1
 86 119 l 1
 117 101 150 87 186 78 c 0
 223 68 259 63 296 63 c 0
 351 63 394 74 425 96 c 0
 456 119 471 151 471 192 c 0
 471 220 464 243 449 260 c 0
 434 278 415 292 392 302 c 0
 369 312 337 323 297 335 c 0
 244 352 200 368 167 385 c 0
 134 402 107 423 88 450 c 0
 69 476 59 509 59 549 c 0
 59 609 81 656 124 690 c 0
 167 723 228 740 306 740 c 0
 347 740 388 736 431 726 c 0
 474 718 509 706 536 691 c 1
 507 622 l 1
 482 635 452 646 416 654 c 0
 379 663 344 667 310 667 c 0
 257 667 215 657 186 636 c 0
 157 616 142 587 141 549 c 0
 141 523 148 502 162 485 c 0
 177 468 195 455 218 445 c 0
 241 435 272 424 311 413 c 0
 365 396 409 378 442 362 c 0
 476 344 503 322 523 296 c 0
 543 268 553 234 553 192 c 0
 554 139 538 96 506 62 c 0
EndSplineSet
EndChar

StartChar: Scircumflex
Encoding: 348 348 151
Width: 610
Flags: W
LayerCount: 2
Fore
SplineSet
166 6 m 0
 126 16 89 31 57 50 c 1
 86 119 l 1
 117 101 150 87 186 78 c 0
 223 68 259 63 296 63 c 0
 351 63 394 74 425 96 c 0
 456 119 471 151 471 192 c 0
 471 220 464 243 449 260 c 0
 434 278 415 292 392 302 c 0
 369 312 337 323 297 335 c 0
 244 352 200 368 167 385 c 0
 134 402 107 423 88 450 c 0
 69 476 59 509 59 549 c 0
 59 609 81 656 124 690 c 0
 167 723 228 740 306 740 c 0
 347 740 388 736 431 726 c 0
 474 718 509 706 536 691 c 1
 507 622 l 1
 482 635 452 646 416 654 c 0
 379 663 344 667 310 667 c 0
 257 667 215 657 186 636 c 0
 157 616 142 587 141 549 c 0
 141 523 148 502 162 485 c 0
 177 468 195 455 218 445 c 0
 241 435 272 424 311 413 c 0
 365 396 409 378 442 362 c 0
 476 344 503 322 523 296 c 0
 543 268 553 234 553 192 c 0
 554 129 531 79 486 44 c 0
 441 8 377 -10 296 -10 c 0
 251 -10 208 -5 166 6 c 0
234 980 m 1
 372 980 l 1
 508 770 l 1
 413 770 l 1
 304 942 l 1
 302 942 l 1
 193 770 l 1
 98 770 l 1
 234 980 l 1
EndSplineSet
EndChar

StartChar: uni0218
Encoding: 536 536 152
Width: 610
Flags: W
LayerCount: 2
Fore
SplineSet
166 6 m 0
 126 16 89 31 57 50 c 1
 86 119 l 1
 117 101 150 87 186 78 c 0
 223 68 259 63 296 63 c 0
 351 63 394 74 425 96 c 0
 456 119 471 151 471 192 c 0
 471 220 464 243 449 260 c 0
 434 278 415 292 392 302 c 0
 369 312 337 323 297 335 c 0
 244 352 200 368 167 385 c 0
 134 402 107 423 88 450 c 0
 69 476 59 509 59 549 c 0
 59 609 81 656 124 690 c 0
 167 723 228 740 306 740 c 0
 347 740 388 736 431 726 c 0
 474 718 509 706 536 691 c 1
 507 622 l 1
 482 635 452 646 416 654 c 0
 379 663 344 667 310 667 c 0
 257 667 215 657 186 636 c 0
 157 616 142 587 141 549 c 0
 141 523 148 502 162 485 c 0
 177 468 195 455 218 445 c 0
 241 435 272 424 311 413 c 0
 365 396 409 378 442 362 c 0
 476 344 503 322 523 296 c 0
 543 268 553 234 553 192 c 0
 554 129 531 79 486 44 c 0
 441 8 377 -10 296 -10 c 0
 251 -10 208 -5 166 6 c 0
281 -250 m 1
 200 -250 l 1
 303 -40 l 1
 404 -40 l 1
 281 -250 l 1
EndSplineSet
EndChar

StartChar: uni1E9E
Encoding: 7838 7838 153
Width: 667
Flags: W
LayerCount: 2
Fore
SplineSet
266 10 m 1
 278 81 l 1
 313 69 349 63 386 63 c 0
 442 63 485 74 515 96 c 0
 545 118 560 149 560 190 c 0
 560 233 544 264 512 286 c 0
 480 306 431 317 366 317 c 2
 353 317 l 1
 353 393 l 1
 484 565 l 1
 482 633 431 667 332 667 c 0
 273 667 231 654 204 628 c 0
 178 603 165 561 165 504 c 2
 165 0 l 1
 85 0 l 1
 85 504 l 2
 85 583 105 642 146 682 c 0
 187 720 249 740 332 740 c 0
 487 740 564 675 564 544 c 1
 439 381 l 1
 439 379 l 1
 504 376 554 358 590 325 c 0
 624 292 642 247 642 190 c 0
 642 125 621 76 578 42 c 0
 536 7 475 -10 396 -10 c 0
 349 -10 306 -3 266 10 c 1
EndSplineSet
EndChar

StartChar: uni018F
Encoding: 399 399 154
Width: 756
Flags: W
LayerCount: 2
Fore
SplineSet
616 643 m 0
 682 578 714 486 714 365 c 0
 714 287 700 220 674 164 c 0
 646 107 608 64 557 34 c 0
 506 5 446 -10 375 -10 c 0
 305 -10 245 5 194 34 c 0
 144 63 106 106 80 161 c 0
 53 216 40 283 40 360 c 0
 40 376 41 389 42 398 c 1
 634 398 l 1
 632 487 606 554 558 599 c 0
 508 644 437 667 342 667 c 0
 299 667 257 662 214 654 c 0
 172 644 132 632 95 615 c 1
 78 684 l 1
 114 701 155 715 200 725 c 0
 245 735 291 740 337 740 c 0
 458 740 552 708 616 643 c 0
560 130 m 0
 604 175 628 240 633 325 c 1
 121 325 l 1
 126 240 150 175 194 130 c 0
 238 85 299 63 377 63 c 0
 455 63 516 85 560 130 c 0
EndSplineSet
EndChar

StartChar: T
Encoding: 84 84 155
Width: 629
Flags: W
LayerCount: 2
Fore
SplineSet
273 657 m 1
 28 657 l 1
 28 730 l 1
 601 730 l 1
 601 657 l 1
 355 657 l 1
 355 0 l 1
 273 0 l 1
 273 657 l 1
EndSplineSet
EndChar

StartChar: Tbar
Encoding: 358 358 156
Width: 685
Flags: W
LayerCount: 2
Fore
SplineSet
629 657 m 1
 383 657 l 1
 383 348 l 1
 566 348 l 1
 566 282 l 1
 383 282 l 1
 383 0 l 1
 301 0 l 1
 301 282 l 1
 119 282 l 1
 119 348 l 1
 301 348 l 1
 301 657 l 1
 56 657 l 1
 56 730 l 1
 629 730 l 1
 629 657 l 1
EndSplineSet
EndChar

StartChar: Tcaron
Encoding: 356 356 157
Width: 629
Flags: W
LayerCount: 2
Fore
SplineSet
273 657 m 1
 28 657 l 1
 28 730 l 1
 601 730 l 1
 601 657 l 1
 355 657 l 1
 355 0 l 1
 273 0 l 1
 273 657 l 1
110 980 m 1
 205 980 l 1
 314 808 l 1
 316 808 l 1
 425 980 l 1
 520 980 l 1
 384 770 l 1
 246 770 l 1
 110 980 l 1
EndSplineSet
EndChar

StartChar: uni0162
Encoding: 354 354 158
Width: 629
Flags: W
LayerCount: 2
Fore
SplineSet
355 657 m 1
 355 14 l 1
 416 -28 446 -73 446 -120 c 0
 446 -149 434 -173 408 -191 c 0
 384 -209 346 -218 296 -218 c 0
 254 -218 217 -211 185 -197 c 1
 199 -134 l 1
 226 -147 257 -153 290 -153 c 0
 315 -153 334 -149 349 -142 c 0
 364 -135 371 -123 371 -107 c 0
 371 -90 363 -73 346 -54 c 0
 329 -36 305 -18 274 0 c 1
 273 0 l 1
 273 657 l 1
 28 657 l 1
 28 730 l 1
 601 730 l 1
 601 657 l 1
 355 657 l 1
EndSplineSet
EndChar

StartChar: uni021A
Encoding: 538 538 159
Width: 629
Flags: W
LayerCount: 2
Fore
SplineSet
273 657 m 1
 28 657 l 1
 28 730 l 1
 601 730 l 1
 601 657 l 1
 355 657 l 1
 355 0 l 1
 273 0 l 1
 273 657 l 1
293 -250 m 1
 212 -250 l 1
 315 -40 l 1
 416 -40 l 1
 293 -250 l 1
EndSplineSet
EndChar

StartChar: U
Encoding: 85 85 160
Width: 699
Flags: W
LayerCount: 2
Fore
SplineSet
146 61 m 0
 99 108 76 178 76 270 c 2
 76 730 l 1
 156 730 l 1
 156 279 l 2
 156 205 172 150 204 116 c 0
 235 80 284 63 350 63 c 0
 416 63 465 80 496 116 c 0
 527 150 543 205 543 279 c 2
 543 730 l 1
 623 730 l 1
 623 270 l 2
 623 178 600 108 554 61 c 0
 507 14 439 -10 350 -10 c 0
 260 -10 192 14 146 61 c 0
EndSplineSet
EndChar

StartChar: Uacute
Encoding: 218 218 161
Width: 699
Flags: W
LayerCount: 2
Fore
SplineSet
146 61 m 0
 99 108 76 178 76 270 c 2
 76 730 l 1
 156 730 l 1
 156 279 l 2
 156 205 172 150 204 116 c 0
 235 80 284 63 350 63 c 0
 416 63 465 80 496 116 c 0
 527 150 543 205 543 279 c 2
 543 730 l 1
 623 730 l 1
 623 270 l 2
 623 178 600 108 554 61 c 0
 507 14 439 -10 350 -10 c 0
 260 -10 192 14 146 61 c 0
340 770 m 1
 259 770 l 1
 362 980 l 1
 463 980 l 1
 340 770 l 1
EndSplineSet
EndChar

StartChar: Ubreve
Encoding: 364 364 162
Width: 699
Flags: W
LayerCount: 2
Fore
SplineSet
146 61 m 0
 99 108 76 178 76 270 c 2
 76 730 l 1
 156 730 l 1
 156 279 l 2
 156 205 172 150 204 116 c 0
 235 80 284 63 350 63 c 0
 416 63 465 80 496 116 c 0
 527 150 543 205 543 279 c 2
 543 730 l 1
 623 730 l 1
 623 270 l 2
 623 178 600 108 554 61 c 0
 507 14 439 -10 350 -10 c 0
 260 -10 192 14 146 61 c 0
218 833 m 0
 184 862 164 899 160 944 c 1
 245 944 l 1
 249 915 260 893 278 878 c 0
 297 863 321 855 350 855 c 0
 379 855 403 863 421 878 c 0
 439 893 450 915 454 944 c 1
 539 944 l 1
 535 899 516 862 480 833 c 0
 446 804 402 790 350 790 c 0
 297 790 254 804 218 833 c 0
EndSplineSet
EndChar

StartChar: Ucircumflex
Encoding: 219 219 163
Width: 699
Flags: W
LayerCount: 2
Fore
SplineSet
146 61 m 0
 99 108 76 178 76 270 c 2
 76 730 l 1
 156 730 l 1
 156 279 l 2
 156 205 172 150 204 116 c 0
 235 80 284 63 350 63 c 0
 416 63 465 80 496 116 c 0
 527 150 543 205 543 279 c 2
 543 730 l 1
 623 730 l 1
 623 270 l 2
 623 178 600 108 554 61 c 0
 507 14 439 -10 350 -10 c 0
 260 -10 192 14 146 61 c 0
281 980 m 1
 419 980 l 1
 555 770 l 1
 460 770 l 1
 351 942 l 1
 349 942 l 1
 240 770 l 1
 145 770 l 1
 281 980 l 1
EndSplineSet
EndChar

StartChar: uni0214
Encoding: 532 532 164
Width: 699
Flags: W
LayerCount: 2
Fore
SplineSet
146 61 m 0
 99 108 76 178 76 270 c 2
 76 730 l 1
 156 730 l 1
 156 279 l 2
 156 205 172 150 204 116 c 0
 235 80 284 63 350 63 c 0
 416 63 465 80 496 116 c 0
 527 150 543 205 543 279 c 2
 543 730 l 1
 623 730 l 1
 623 270 l 2
 623 178 600 108 554 61 c 0
 507 14 439 -10 350 -10 c 0
 260 -10 192 14 146 61 c 0
129 980 m 1
 230 980 l 1
 333 770 l 1
 252 770 l 1
 129 980 l 1
339 980 m 1
 440 980 l 1
 543 770 l 1
 462 770 l 1
 339 980 l 1
EndSplineSet
EndChar

StartChar: Udieresis
Encoding: 220 220 165
Width: 699
Flags: W
LayerCount: 2
Fore
SplineSet
146 61 m 0
 99 108 76 178 76 270 c 2
 76 730 l 1
 156 730 l 1
 156 279 l 2
 156 205 172 150 204 116 c 0
 235 80 284 63 350 63 c 0
 416 63 465 80 496 116 c 0
 527 150 543 205 543 279 c 2
 543 730 l 1
 623 730 l 1
 623 270 l 2
 623 178 600 108 554 61 c 0
 507 14 439 -10 350 -10 c 0
 260 -10 192 14 146 61 c 0
173 927 m 1
 277 927 l 1
 277 823 l 1
 173 823 l 1
 173 927 l 1
422 927 m 1
 526 927 l 1
 526 823 l 1
 422 823 l 1
 422 927 l 1
EndSplineSet
EndChar

StartChar: uni1EE4
Encoding: 7908 7908 166
Width: 699
Flags: W
LayerCount: 2
Fore
SplineSet
146 61 m 0
 99 108 76 178 76 270 c 2
 76 730 l 1
 156 730 l 1
 156 279 l 2
 156 205 172 150 204 116 c 0
 235 80 284 63 350 63 c 0
 416 63 465 80 496 116 c 0
 527 150 543 205 543 279 c 2
 543 730 l 1
 623 730 l 1
 623 270 l 2
 623 178 600 108 554 61 c 0
 507 14 439 -10 350 -10 c 0
 260 -10 192 14 146 61 c 0
298 -93 m 1
 402 -93 l 1
 402 -197 l 1
 298 -197 l 1
 298 -93 l 1
EndSplineSet
EndChar

StartChar: Ugrave
Encoding: 217 217 167
Width: 699
Flags: W
LayerCount: 2
Fore
SplineSet
146 61 m 0
 99 108 76 178 76 270 c 2
 76 730 l 1
 156 730 l 1
 156 279 l 2
 156 205 172 150 204 116 c 0
 235 80 284 63 350 63 c 0
 416 63 465 80 496 116 c 0
 527 150 543 205 543 279 c 2
 543 730 l 1
 623 730 l 1
 623 270 l 2
 623 178 600 108 554 61 c 0
 507 14 439 -10 350 -10 c 0
 260 -10 192 14 146 61 c 0
236 980 m 1
 337 980 l 1
 440 770 l 1
 359 770 l 1
 236 980 l 1
EndSplineSet
EndChar

StartChar: uni1EE6
Encoding: 7910 7910 168
Width: 699
Flags: W
LayerCount: 2
Fore
SplineSet
146 61 m 0
 99 108 76 178 76 270 c 2
 76 730 l 1
 156 730 l 1
 156 279 l 2
 156 205 172 150 204 116 c 0
 235 80 284 63 350 63 c 0
 416 63 465 80 496 116 c 0
 527 150 543 205 543 279 c 2
 543 730 l 1
 623 730 l 1
 623 270 l 2
 623 178 600 108 554 61 c 0
 507 14 439 -10 350 -10 c 0
 260 -10 192 14 146 61 c 0
408 837 m 0
 412 852 413 864 413 874 c 0
 413 891 407 902 396 908 c 0
 385 913 364 916 333 916 c 0
 292 916 251 910 210 899 c 1
 202 963 l 1
 247 974 297 980 350 980 c 0
 388 980 418 978 438 973 c 0
 460 968 474 960 484 949 c 0
 492 938 497 922 497 901 c 0
 497 886 495 869 492 850 c 0
 489 831 484 814 479 800 c 1
 398 800 l 1
 402 810 406 822 408 837 c 0
EndSplineSet
EndChar

StartChar: Uhorn
Encoding: 431 431 169
Width: 779
Flags: W
LayerCount: 2
Fore
SplineSet
806 731 m 0
 806 690 796 659 776 636 c 0
 756 613 728 602 692 602 c 0
 671 602 648 606 623 615 c 1
 623 270 l 2
 623 178 600 108 554 61 c 0
 507 14 439 -10 350 -10 c 0
 260 -10 192 14 146 61 c 0
 99 108 76 178 76 270 c 2
 76 730 l 1
 156 730 l 1
 156 279 l 2
 156 205 172 150 204 116 c 0
 235 80 284 63 350 63 c 0
 416 63 465 80 496 116 c 0
 527 150 543 205 543 279 c 2
 543 730 l 1
 623 730 l 1
 623 683 l 1
 637 675 651 671 666 671 c 0
 685 671 700 677 710 689 c 0
 720 701 725 718 725 741 c 0
 725 756 723 774 719 794 c 0
 715 813 710 829 705 842 c 1
 787 842 l 1
 800 804 806 767 806 731 c 0
EndSplineSet
EndChar

StartChar: uni1EE8
Encoding: 7912 7912 170
Width: 779
Flags: W
LayerCount: 2
Fore
SplineSet
806 731 m 0
 806 690 796 659 776 636 c 0
 756 613 728 602 692 602 c 0
 671 602 648 606 623 615 c 1
 623 270 l 2
 623 178 600 108 554 61 c 0
 507 14 439 -10 350 -10 c 0
 260 -10 192 14 146 61 c 0
 99 108 76 178 76 270 c 2
 76 730 l 1
 156 730 l 1
 156 279 l 2
 156 205 172 150 204 116 c 0
 235 80 284 63 350 63 c 0
 416 63 465 80 496 116 c 0
 527 150 543 205 543 279 c 2
 543 730 l 1
 623 730 l 1
 623 683 l 1
 637 675 651 671 666 671 c 0
 685 671 700 677 710 689 c 0
 720 701 725 718 725 741 c 0
 725 756 723 774 719 794 c 0
 715 813 710 829 705 842 c 1
 787 842 l 1
 800 804 806 767 806 731 c 0
340 770 m 1
 259 770 l 1
 362 980 l 1
 463 980 l 1
 340 770 l 1
EndSplineSet
EndChar

StartChar: uni1EF0
Encoding: 7920 7920 171
Width: 779
Flags: W
LayerCount: 2
Fore
SplineSet
806 731 m 0
 806 690 796 659 776 636 c 0
 756 613 728 602 692 602 c 0
 671 602 648 606 623 615 c 1
 623 270 l 2
 623 178 600 108 554 61 c 0
 507 14 439 -10 350 -10 c 0
 260 -10 192 14 146 61 c 0
 99 108 76 178 76 270 c 2
 76 730 l 1
 156 730 l 1
 156 279 l 2
 156 205 172 150 204 116 c 0
 235 80 284 63 350 63 c 0
 416 63 465 80 496 116 c 0
 527 150 543 205 543 279 c 2
 543 730 l 1
 623 730 l 1
 623 683 l 1
 637 675 651 671 666 671 c 0
 685 671 700 677 710 689 c 0
 720 701 725 718 725 741 c 0
 725 756 723 774 719 794 c 0
 715 813 710 829 705 842 c 1
 787 842 l 1
 800 804 806 767 806 731 c 0
298 -93 m 1
 402 -93 l 1
 402 -197 l 1
 298 -197 l 1
 298 -93 l 1
EndSplineSet
EndChar

StartChar: uni1EEA
Encoding: 7914 7914 172
Width: 779
Flags: W
LayerCount: 2
Fore
SplineSet
806 731 m 0
 806 690 796 659 776 636 c 0
 756 613 728 602 692 602 c 0
 671 602 648 606 623 615 c 1
 623 270 l 2
 623 178 600 108 554 61 c 0
 507 14 439 -10 350 -10 c 0
 260 -10 192 14 146 61 c 0
 99 108 76 178 76 270 c 2
 76 730 l 1
 156 730 l 1
 156 279 l 2
 156 205 172 150 204 116 c 0
 235 80 284 63 350 63 c 0
 416 63 465 80 496 116 c 0
 527 150 543 205 543 279 c 2
 543 730 l 1
 623 730 l 1
 623 683 l 1
 637 675 651 671 666 671 c 0
 685 671 700 677 710 689 c 0
 720 701 725 718 725 741 c 0
 725 756 723 774 719 794 c 0
 715 813 710 829 705 842 c 1
 787 842 l 1
 800 804 806 767 806 731 c 0
236 980 m 1
 337 980 l 1
 440 770 l 1
 359 770 l 1
 236 980 l 1
EndSplineSet
EndChar

StartChar: uni1EEC
Encoding: 7916 7916 173
Width: 779
Flags: W
LayerCount: 2
Fore
SplineSet
806 731 m 0
 806 690 796 659 776 636 c 0
 756 613 728 602 692 602 c 0
 671 602 648 606 623 615 c 1
 623 270 l 2
 623 178 600 108 554 61 c 0
 507 14 439 -10 350 -10 c 0
 260 -10 192 14 146 61 c 0
 99 108 76 178 76 270 c 2
 76 730 l 1
 156 730 l 1
 156 279 l 2
 156 205 172 150 204 116 c 0
 235 80 284 63 350 63 c 0
 416 63 465 80 496 116 c 0
 527 150 543 205 543 279 c 2
 543 730 l 1
 623 730 l 1
 623 683 l 1
 637 675 651 671 666 671 c 0
 685 671 700 677 710 689 c 0
 720 701 725 718 725 741 c 0
 725 756 723 774 719 794 c 0
 715 813 710 829 705 842 c 1
 787 842 l 1
 800 804 806 767 806 731 c 0
408 837 m 0
 412 852 413 864 413 874 c 0
 413 891 407 902 396 908 c 0
 385 913 364 916 333 916 c 0
 292 916 251 910 210 899 c 1
 202 963 l 1
 247 974 297 980 350 980 c 0
 388 980 418 978 438 973 c 0
 460 968 474 960 484 949 c 0
 492 938 497 922 497 901 c 0
 497 886 495 869 492 850 c 0
 489 831 484 814 479 800 c 1
 398 800 l 1
 402 810 406 822 408 837 c 0
EndSplineSet
EndChar

StartChar: uni1EEE
Encoding: 7918 7918 174
Width: 779
Flags: W
LayerCount: 2
Fore
SplineSet
806 731 m 0
 806 690 796 659 776 636 c 0
 756 613 728 602 692 602 c 0
 671 602 648 606 623 615 c 1
 623 270 l 2
 623 178 600 108 554 61 c 0
 507 14 439 -10 350 -10 c 0
 260 -10 192 14 146 61 c 0
 99 108 76 178 76 270 c 2
 76 730 l 1
 156 730 l 1
 156 279 l 2
 156 205 172 150 204 116 c 0
 235 80 284 63 350 63 c 0
 416 63 465 80 496 116 c 0
 527 150 543 205 543 279 c 2
 543 730 l 1
 623 730 l 1
 623 683 l 1
 637 675 651 671 666 671 c 0
 685 671 700 677 710 689 c 0
 720 701 725 718 725 741 c 0
 725 756 723 774 719 794 c 0
 715 813 710 829 705 842 c 1
 787 842 l 1
 800 804 806 767 806 731 c 0
338 843 m 0
 307 865 283 876 265 876 c 0
 254 876 246 871 242 860 c 0
 236 849 234 831 234 806 c 1
 160 806 l 1
 160 856 167 893 182 918 c 0
 196 942 218 954 249 954 c 0
 280 954 318 938 362 907 c 0
 392 885 416 874 434 874 c 0
 445 874 452 879 458 890 c 0
 462 901 465 919 465 944 c 1
 539 944 l 1
 539 894 532 857 518 832 c 0
 503 808 481 796 451 796 c 0
 421 796 383 812 338 843 c 0
EndSplineSet
EndChar

StartChar: Uhungarumlaut
Encoding: 368 368 175
Width: 699
Flags: W
LayerCount: 2
Fore
SplineSet
146 61 m 0
 99 108 76 178 76 270 c 2
 76 730 l 1
 156 730 l 1
 156 279 l 2
 156 205 172 150 204 116 c 0
 235 80 284 63 350 63 c 0
 416 63 465 80 496 116 c 0
 527 150 543 205 543 279 c 2
 543 730 l 1
 623 730 l 1
 623 270 l 2
 623 178 600 108 554 61 c 0
 507 14 439 -10 350 -10 c 0
 260 -10 192 14 146 61 c 0
240 770 m 1
 159 770 l 1
 262 980 l 1
 363 980 l 1
 240 770 l 1
450 770 m 1
 369 770 l 1
 472 980 l 1
 573 980 l 1
 450 770 l 1
EndSplineSet
EndChar

StartChar: uni0216
Encoding: 534 534 176
Width: 699
Flags: W
LayerCount: 2
Fore
SplineSet
146 61 m 0
 99 108 76 178 76 270 c 2
 76 730 l 1
 156 730 l 1
 156 279 l 2
 156 205 172 150 204 116 c 0
 235 80 284 63 350 63 c 0
 416 63 465 80 496 116 c 0
 527 150 543 205 543 279 c 2
 543 730 l 1
 623 730 l 1
 623 270 l 2
 623 178 600 108 554 61 c 0
 507 14 439 -10 350 -10 c 0
 260 -10 192 14 146 61 c 0
480 917 m 0
 516 888 535 851 539 806 c 1
 454 806 l 1
 450 835 439 857 421 872 c 0
 403 887 379 895 350 895 c 0
 321 895 297 887 278 872 c 0
 260 857 249 835 245 806 c 1
 160 806 l 1
 164 851 184 888 218 917 c 0
 254 946 297 960 350 960 c 0
 402 960 446 946 480 917 c 0
EndSplineSet
EndChar

StartChar: Umacron
Encoding: 362 362 177
Width: 699
Flags: W
LayerCount: 2
Fore
SplineSet
146 61 m 0
 99 108 76 178 76 270 c 2
 76 730 l 1
 156 730 l 1
 156 279 l 2
 156 205 172 150 204 116 c 0
 235 80 284 63 350 63 c 0
 416 63 465 80 496 116 c 0
 527 150 543 205 543 279 c 2
 543 730 l 1
 623 730 l 1
 623 270 l 2
 623 178 600 108 554 61 c 0
 507 14 439 -10 350 -10 c 0
 260 -10 192 14 146 61 c 0
168 907 m 1
 531 907 l 1
 531 843 l 1
 168 843 l 1
 168 907 l 1
EndSplineSet
EndChar

StartChar: Uogonek
Encoding: 370 370 178
Width: 699
Flags: W
LayerCount: 2
Fore
SplineSet
396 -46 m 0
 381 -64 373 -81 373 -97 c 0
 373 -113 380 -125 395 -132 c 0
 410 -139 429 -143 454 -143 c 0
 487 -143 518 -137 545 -124 c 1
 559 -187 l 1
 527 -201 490 -208 448 -208 c 0
 398 -208 360 -199 336 -181 c 0
 310 -163 298 -139 298 -110 c 0
 298 -75 315 -41 348 -10 c 1
 259 -9 191 15 145 62 c 0
 99 109 76 179 76 270 c 2
 76 730 l 1
 156 730 l 1
 156 279 l 2
 156 205 172 150 204 116 c 0
 235 80 284 63 350 63 c 0
 416 63 465 80 496 116 c 0
 527 150 543 205 543 279 c 2
 543 730 l 1
 623 730 l 1
 623 270 l 2
 623 200 610 143 583 98 c 0
 556 54 517 23 464 6 c 1
 435 -11 412 -29 396 -46 c 0
EndSplineSet
EndChar

StartChar: Uring
Encoding: 366 366 179
Width: 699
Flags: W
LayerCount: 2
Fore
SplineSet
146 61 m 0
 99 108 76 178 76 270 c 2
 76 730 l 1
 156 730 l 1
 156 279 l 2
 156 205 172 150 204 116 c 0
 235 80 284 63 350 63 c 0
 416 63 465 80 496 116 c 0
 527 150 543 205 543 279 c 2
 543 730 l 1
 623 730 l 1
 623 270 l 2
 623 178 600 108 554 61 c 0
 507 14 439 -10 350 -10 c 0
 260 -10 192 14 146 61 c 0
280 747 m 0
 258 760 241 777 228 799 c 0
 215 821 209 845 209 870 c 0
 209 895 215 919 228 941 c 0
 241 963 258 980 280 993 c 0
 301 1006 325 1012 351 1012 c 0
 376 1012 400 1006 422 993 c 0
 443 980 460 963 473 941 c 0
 486 919 492 895 492 870 c 0
 492 845 486 821 473 799 c 0
 460 777 443 760 422 747 c 0
 400 734 376 728 351 728 c 0
 325 728 301 734 280 747 c 0
408 812 m 0
 424 828 432 847 432 870 c 0
 432 893 424 912 408 928 c 0
 393 944 374 952 351 952 c 0
 328 952 309 944 293 928 c 0
 277 912 269 893 269 870 c 0
 269 847 277 828 293 812 c 0
 309 796 328 788 351 788 c 0
 374 788 393 796 408 812 c 0
EndSplineSet
EndChar

StartChar: Utilde
Encoding: 360 360 180
Width: 699
Flags: W
LayerCount: 2
Fore
SplineSet
146 61 m 0
 99 108 76 178 76 270 c 2
 76 730 l 1
 156 730 l 1
 156 279 l 2
 156 205 172 150 204 116 c 0
 235 80 284 63 350 63 c 0
 416 63 465 80 496 116 c 0
 527 150 543 205 543 279 c 2
 543 730 l 1
 623 730 l 1
 623 270 l 2
 623 178 600 108 554 61 c 0
 507 14 439 -10 350 -10 c 0
 260 -10 192 14 146 61 c 0
338 843 m 0
 307 865 283 876 265 876 c 0
 254 876 246 871 242 860 c 0
 236 849 234 831 234 806 c 1
 160 806 l 1
 160 856 167 893 182 918 c 0
 196 942 218 954 249 954 c 0
 280 954 318 938 362 907 c 0
 392 885 416 874 434 874 c 0
 445 874 452 879 458 890 c 0
 462 901 465 919 465 944 c 1
 539 944 l 1
 539 894 532 857 518 832 c 0
 503 808 481 796 451 796 c 0
 421 796 383 812 338 843 c 0
EndSplineSet
EndChar

StartChar: V
Encoding: 86 86 181
Width: 665
Flags: W
LayerCount: 2
Fore
SplineSet
14 730 m 1
 102 730 l 1
 332 80 l 1
 334 80 l 1
 563 730 l 1
 651 730 l 1
 386 0 l 1
 280 0 l 1
 14 730 l 1
EndSplineSet
EndChar

StartChar: W
Encoding: 87 87 182
Width: 917
Flags: W
LayerCount: 2
Fore
SplineSet
461 644 m 1
 459 644 l 1
 309 0 l 1
 208 0 l 1
 28 730 l 1
 110 730 l 1
 257 86 l 1
 259 86 l 1
 409 730 l 1
 513 730 l 1
 664 86 l 1
 666 86 l 1
 813 730 l 1
 892 730 l 1
 712 0 l 1
 611 0 l 1
 461 644 l 1
EndSplineSet
EndChar

StartChar: Wacute
Encoding: 7810 7810 183
Width: 917
Flags: W
LayerCount: 2
Fore
SplineSet
461 644 m 1
 459 644 l 1
 309 0 l 1
 208 0 l 1
 28 730 l 1
 110 730 l 1
 257 86 l 1
 259 86 l 1
 409 730 l 1
 513 730 l 1
 664 86 l 1
 666 86 l 1
 813 730 l 1
 892 730 l 1
 712 0 l 1
 611 0 l 1
 461 644 l 1
449 770 m 1
 368 770 l 1
 471 980 l 1
 572 980 l 1
 449 770 l 1
EndSplineSet
EndChar

StartChar: Wcircumflex
Encoding: 372 372 184
Width: 917
Flags: W
LayerCount: 2
Fore
SplineSet
461 644 m 1
 459 644 l 1
 309 0 l 1
 208 0 l 1
 28 730 l 1
 110 730 l 1
 257 86 l 1
 259 86 l 1
 409 730 l 1
 513 730 l 1
 664 86 l 1
 666 86 l 1
 813 730 l 1
 892 730 l 1
 712 0 l 1
 611 0 l 1
 461 644 l 1
389 980 m 1
 527 980 l 1
 663 770 l 1
 568 770 l 1
 459 942 l 1
 457 942 l 1
 348 770 l 1
 253 770 l 1
 389 980 l 1
EndSplineSet
EndChar

StartChar: Wdieresis
Encoding: 7812 7812 185
Width: 917
Flags: W
LayerCount: 2
Fore
SplineSet
461 644 m 1
 459 644 l 1
 309 0 l 1
 208 0 l 1
 28 730 l 1
 110 730 l 1
 257 86 l 1
 259 86 l 1
 409 730 l 1
 513 730 l 1
 664 86 l 1
 666 86 l 1
 813 730 l 1
 892 730 l 1
 712 0 l 1
 611 0 l 1
 461 644 l 1
282 927 m 1
 386 927 l 1
 386 823 l 1
 282 823 l 1
 282 927 l 1
531 927 m 1
 635 927 l 1
 635 823 l 1
 531 823 l 1
 531 927 l 1
EndSplineSet
EndChar

StartChar: Wgrave
Encoding: 7808 7808 186
Width: 917
Flags: W
LayerCount: 2
Fore
SplineSet
461 644 m 1
 459 644 l 1
 309 0 l 1
 208 0 l 1
 28 730 l 1
 110 730 l 1
 257 86 l 1
 259 86 l 1
 409 730 l 1
 513 730 l 1
 664 86 l 1
 666 86 l 1
 813 730 l 1
 892 730 l 1
 712 0 l 1
 611 0 l 1
 461 644 l 1
345 980 m 1
 446 980 l 1
 549 770 l 1
 468 770 l 1
 345 980 l 1
EndSplineSet
EndChar

StartChar: X
Encoding: 88 88 187
Width: 688
Flags: W
LayerCount: 2
Fore
SplineSet
286 368 m 1
 55 730 l 1
 146 730 l 1
 343 416 l 1
 345 416 l 1
 542 730 l 1
 633 730 l 1
 402 368 l 1
 637 0 l 1
 546 0 l 1
 345 320 l 1
 343 320 l 1
 142 0 l 1
 51 0 l 1
 286 368 l 1
EndSplineSet
EndChar

StartChar: Y
Encoding: 89 89 188
Width: 643
Flags: W
LayerCount: 2
Fore
SplineSet
280 302 m 1
 8 730 l 1
 100 730 l 1
 321 377 l 1
 323 377 l 1
 543 730 l 1
 635 730 l 1
 363 302 l 1
 363 0 l 1
 280 0 l 1
 280 302 l 1
EndSplineSet
EndChar

StartChar: Yacute
Encoding: 221 221 189
Width: 643
Flags: W
LayerCount: 2
Fore
SplineSet
280 302 m 1
 8 730 l 1
 100 730 l 1
 321 377 l 1
 323 377 l 1
 543 730 l 1
 635 730 l 1
 363 302 l 1
 363 0 l 1
 280 0 l 1
 280 302 l 1
312 770 m 1
 231 770 l 1
 334 980 l 1
 435 980 l 1
 312 770 l 1
EndSplineSet
EndChar

StartChar: Ycircumflex
Encoding: 374 374 190
Width: 643
Flags: W
LayerCount: 2
Fore
SplineSet
280 302 m 1
 8 730 l 1
 100 730 l 1
 321 377 l 1
 323 377 l 1
 543 730 l 1
 635 730 l 1
 363 302 l 1
 363 0 l 1
 280 0 l 1
 280 302 l 1
253 980 m 1
 391 980 l 1
 527 770 l 1
 432 770 l 1
 323 942 l 1
 321 942 l 1
 212 770 l 1
 117 770 l 1
 253 980 l 1
EndSplineSet
EndChar

StartChar: Ydieresis
Encoding: 376 376 191
Width: 643
Flags: W
LayerCount: 2
Fore
SplineSet
280 302 m 1
 8 730 l 1
 100 730 l 1
 321 377 l 1
 323 377 l 1
 543 730 l 1
 635 730 l 1
 363 302 l 1
 363 0 l 1
 280 0 l 1
 280 302 l 1
145 927 m 1
 249 927 l 1
 249 823 l 1
 145 823 l 1
 145 927 l 1
394 927 m 1
 498 927 l 1
 498 823 l 1
 394 823 l 1
 394 927 l 1
EndSplineSet
EndChar

StartChar: uni1EF4
Encoding: 7924 7924 192
Width: 643
Flags: W
LayerCount: 2
Fore
SplineSet
280 302 m 1
 8 730 l 1
 100 730 l 1
 321 377 l 1
 323 377 l 1
 543 730 l 1
 635 730 l 1
 363 302 l 1
 363 0 l 1
 280 0 l 1
 280 302 l 1
270 -93 m 1
 374 -93 l 1
 374 -197 l 1
 270 -197 l 1
 270 -93 l 1
EndSplineSet
EndChar

StartChar: Ygrave
Encoding: 7922 7922 193
Width: 643
Flags: W
LayerCount: 2
Fore
SplineSet
280 302 m 1
 8 730 l 1
 100 730 l 1
 321 377 l 1
 323 377 l 1
 543 730 l 1
 635 730 l 1
 363 302 l 1
 363 0 l 1
 280 0 l 1
 280 302 l 1
208 980 m 1
 309 980 l 1
 412 770 l 1
 331 770 l 1
 208 980 l 1
EndSplineSet
EndChar

StartChar: uni1EF6
Encoding: 7926 7926 194
Width: 643
Flags: W
LayerCount: 2
Fore
SplineSet
280 302 m 1
 8 730 l 1
 100 730 l 1
 321 377 l 1
 323 377 l 1
 543 730 l 1
 635 730 l 1
 363 302 l 1
 363 0 l 1
 280 0 l 1
 280 302 l 1
380 837 m 0
 384 852 385 864 385 874 c 0
 385 891 379 902 368 908 c 0
 357 913 336 916 305 916 c 0
 264 916 223 910 182 899 c 1
 174 963 l 1
 219 974 269 980 322 980 c 0
 360 980 390 978 410 973 c 0
 432 968 446 960 456 949 c 0
 464 938 469 922 469 901 c 0
 469 886 467 869 464 850 c 0
 461 831 456 814 451 800 c 1
 370 800 l 1
 374 810 378 822 380 837 c 0
EndSplineSet
EndChar

StartChar: uni0232
Encoding: 562 562 195
Width: 643
Flags: W
LayerCount: 2
Fore
SplineSet
280 302 m 1
 8 730 l 1
 100 730 l 1
 321 377 l 1
 323 377 l 1
 543 730 l 1
 635 730 l 1
 363 302 l 1
 363 0 l 1
 280 0 l 1
 280 302 l 1
140 907 m 1
 503 907 l 1
 503 843 l 1
 140 843 l 1
 140 907 l 1
EndSplineSet
EndChar

StartChar: uni1EF8
Encoding: 7928 7928 196
Width: 643
Flags: W
LayerCount: 2
Fore
SplineSet
280 302 m 1
 8 730 l 1
 100 730 l 1
 321 377 l 1
 323 377 l 1
 543 730 l 1
 635 730 l 1
 363 302 l 1
 363 0 l 1
 280 0 l 1
 280 302 l 1
310 843 m 0
 279 865 255 876 237 876 c 0
 226 876 218 871 214 860 c 0
 208 849 206 831 206 806 c 1
 132 806 l 1
 132 856 139 893 154 918 c 0
 168 942 190 954 221 954 c 0
 252 954 290 938 334 907 c 0
 364 885 388 874 406 874 c 0
 417 874 424 879 430 890 c 0
 434 901 437 919 437 944 c 1
 511 944 l 1
 511 894 504 857 490 832 c 0
 475 808 453 796 423 796 c 0
 393 796 355 812 310 843 c 0
EndSplineSet
EndChar

StartChar: Z
Encoding: 90 90 197
Width: 636
Flags: W
LayerCount: 2
Fore
SplineSet
68 73 m 1
 469 655 l 1
 469 657 l 1
 68 657 l 1
 68 730 l 1
 568 730 l 1
 568 657 l 1
 167 75 l 1
 167 73 l 1
 568 73 l 1
 568 0 l 1
 68 0 l 1
 68 73 l 1
EndSplineSet
EndChar

StartChar: Zacute
Encoding: 377 377 198
Width: 636
Flags: W
LayerCount: 2
Fore
SplineSet
68 73 m 1
 469 655 l 1
 469 657 l 1
 68 657 l 1
 68 730 l 1
 568 730 l 1
 568 657 l 1
 167 75 l 1
 167 73 l 1
 568 73 l 1
 568 0 l 1
 68 0 l 1
 68 73 l 1
309 770 m 1
 228 770 l 1
 331 980 l 1
 432 980 l 1
 309 770 l 1
EndSplineSet
EndChar

StartChar: Zcaron
Encoding: 381 381 199
Width: 636
Flags: W
LayerCount: 2
Fore
SplineSet
68 73 m 1
 469 655 l 1
 469 657 l 1
 68 657 l 1
 68 730 l 1
 568 730 l 1
 568 657 l 1
 167 75 l 1
 167 73 l 1
 568 73 l 1
 568 0 l 1
 68 0 l 1
 68 73 l 1
114 980 m 1
 209 980 l 1
 318 808 l 1
 320 808 l 1
 429 980 l 1
 524 980 l 1
 388 770 l 1
 250 770 l 1
 114 980 l 1
EndSplineSet
EndChar

StartChar: Zdotaccent
Encoding: 379 379 200
Width: 636
Flags: W
LayerCount: 2
Fore
SplineSet
68 73 m 1
 469 655 l 1
 469 657 l 1
 68 657 l 1
 68 730 l 1
 568 730 l 1
 568 657 l 1
 167 75 l 1
 167 73 l 1
 568 73 l 1
 568 0 l 1
 68 0 l 1
 68 73 l 1
266 927 m 1
 370 927 l 1
 370 823 l 1
 266 823 l 1
 266 927 l 1
EndSplineSet
EndChar

StartChar: a
Encoding: 97 97 201
Width: 535
Flags: W
LayerCount: 2
Fore
SplineSet
384 510 m 0
 413 497 434 475 446 446 c 0
 460 416 466 376 466 326 c 2
 466 0 l 1
 390 0 l 1
 390 77 l 1
 388 77 l 1
 369 50 343 29 310 14 c 0
 277 -2 240 -10 201 -10 c 0
 148 -10 107 4 76 32 c 0
 45 59 30 97 30 144 c 0
 30 205 57 252 110 284 c 0
 163 318 240 334 339 334 c 2
 387 334 l 1
 386 367 382 393 374 412 c 0
 367 430 354 443 337 451 c 0
 320 459 295 463 264 463 c 0
 196 463 132 448 71 419 c 1
 49 481 l 1
 116 514 189 530 269 530 c 0
 317 530 355 523 384 510 c 0
302 76 m 0
 328 89 349 108 364 130 c 0
 379 154 387 178 387 205 c 2
 387 270 l 1
 339 270 l 2
 265 270 208 260 168 239 c 0
 129 218 109 189 109 150 c 0
 109 121 119 98 140 81 c 0
 160 64 187 55 220 55 c 0
 249 55 277 62 302 76 c 0
EndSplineSet
EndChar

StartChar: aacute
Encoding: 225 225 202
Width: 535
Flags: W
LayerCount: 2
Fore
SplineSet
384 510 m 0
 413 497 434 475 446 446 c 0
 460 416 466 376 466 326 c 2
 466 0 l 1
 390 0 l 1
 390 77 l 1
 388 77 l 1
 369 50 343 29 310 14 c 0
 277 -2 240 -10 201 -10 c 0
 148 -10 107 4 76 32 c 0
 45 59 30 97 30 144 c 0
 30 205 57 252 110 284 c 0
 163 318 240 334 339 334 c 2
 387 334 l 1
 386 367 382 393 374 412 c 0
 367 430 354 443 337 451 c 0
 320 459 295 463 264 463 c 0
 196 463 132 448 71 419 c 1
 49 481 l 1
 116 514 189 530 269 530 c 0
 317 530 355 523 384 510 c 0
302 76 m 0
 328 89 349 108 364 130 c 0
 379 154 387 178 387 205 c 2
 387 270 l 1
 339 270 l 2
 265 270 208 260 168 239 c 0
 129 218 109 189 109 150 c 0
 109 121 119 98 140 81 c 0
 160 64 187 55 220 55 c 0
 249 55 277 62 302 76 c 0
252 560 m 1
 171 560 l 1
 274 770 l 1
 375 770 l 1
 252 560 l 1
EndSplineSet
EndChar

StartChar: abreve
Encoding: 259 259 203
Width: 535
Flags: W
LayerCount: 2
Fore
SplineSet
384 510 m 0
 413 497 434 475 446 446 c 0
 460 416 466 376 466 326 c 2
 466 0 l 1
 390 0 l 1
 390 77 l 1
 388 77 l 1
 369 50 343 29 310 14 c 0
 277 -2 240 -10 201 -10 c 0
 148 -10 107 4 76 32 c 0
 45 59 30 97 30 144 c 0
 30 205 57 252 110 284 c 0
 163 318 240 334 339 334 c 2
 387 334 l 1
 386 367 382 393 374 412 c 0
 367 430 354 443 337 451 c 0
 320 459 295 463 264 463 c 0
 196 463 132 448 71 419 c 1
 49 481 l 1
 116 514 189 530 269 530 c 0
 317 530 355 523 384 510 c 0
302 76 m 0
 328 89 349 108 364 130 c 0
 379 154 387 178 387 205 c 2
 387 270 l 1
 339 270 l 2
 265 270 208 260 168 239 c 0
 129 218 109 189 109 150 c 0
 109 121 119 98 140 81 c 0
 160 64 187 55 220 55 c 0
 249 55 277 62 302 76 c 0
130 623 m 0
 94 652 75 689 71 734 c 1
 156 734 l 1
 160 705 171 683 190 668 c 0
 208 653 232 645 261 645 c 0
 290 645 314 653 332 668 c 0
 350 683 361 705 365 734 c 1
 450 734 l 1
 446 689 426 652 392 623 c 0
 356 594 313 580 261 580 c 0
 208 580 164 594 130 623 c 0
EndSplineSet
EndChar

StartChar: uni1EAF
Encoding: 7855 7855 204
Width: 535
Flags: W
LayerCount: 2
Fore
SplineSet
384 510 m 0
 413 497 434 475 446 446 c 0
 460 416 466 376 466 326 c 2
 466 0 l 1
 390 0 l 1
 390 77 l 1
 388 77 l 1
 369 50 343 29 310 14 c 0
 277 -2 240 -10 201 -10 c 0
 148 -10 107 4 76 32 c 0
 45 59 30 97 30 144 c 0
 30 205 57 252 110 284 c 0
 163 318 240 334 339 334 c 2
 387 334 l 1
 386 367 382 393 374 412 c 0
 367 430 354 443 337 451 c 0
 320 459 295 463 264 463 c 0
 196 463 132 448 71 419 c 1
 49 481 l 1
 116 514 189 530 269 530 c 0
 317 530 355 523 384 510 c 0
302 76 m 0
 328 89 349 108 364 130 c 0
 379 154 387 178 387 205 c 2
 387 270 l 1
 339 270 l 2
 265 270 208 260 168 239 c 0
 129 218 109 189 109 150 c 0
 109 121 119 98 140 81 c 0
 160 64 187 55 220 55 c 0
 249 55 277 62 302 76 c 0
130 623 m 0
 94 652 75 689 71 734 c 1
 156 734 l 1
 160 705 171 683 190 668 c 0
 208 653 232 645 261 645 c 0
 290 645 314 653 332 668 c 0
 350 683 361 705 365 734 c 1
 450 734 l 1
 446 689 426 652 392 623 c 0
 356 594 313 580 261 580 c 0
 208 580 164 594 130 623 c 0
252 720 m 1
 171 720 l 1
 274 930 l 1
 375 930 l 1
 252 720 l 1
EndSplineSet
EndChar

StartChar: uni1EB7
Encoding: 7863 7863 205
Width: 535
Flags: W
LayerCount: 2
Fore
SplineSet
384 510 m 0
 413 497 434 475 446 446 c 0
 460 416 466 376 466 326 c 2
 466 0 l 1
 390 0 l 1
 390 77 l 1
 388 77 l 1
 369 50 343 29 310 14 c 0
 277 -2 240 -10 201 -10 c 0
 148 -10 107 4 76 32 c 0
 45 59 30 97 30 144 c 0
 30 205 57 252 110 284 c 0
 163 318 240 334 339 334 c 2
 387 334 l 1
 386 367 382 393 374 412 c 0
 367 430 354 443 337 451 c 0
 320 459 295 463 264 463 c 0
 196 463 132 448 71 419 c 1
 49 481 l 1
 116 514 189 530 269 530 c 0
 317 530 355 523 384 510 c 0
302 76 m 0
 328 89 349 108 364 130 c 0
 379 154 387 178 387 205 c 2
 387 270 l 1
 339 270 l 2
 265 270 208 260 168 239 c 0
 129 218 109 189 109 150 c 0
 109 121 119 98 140 81 c 0
 160 64 187 55 220 55 c 0
 249 55 277 62 302 76 c 0
209 -93 m 1
 313 -93 l 1
 313 -197 l 1
 209 -197 l 1
 209 -93 l 1
130 623 m 0
 94 652 75 689 71 734 c 1
 156 734 l 1
 160 705 171 683 190 668 c 0
 208 653 232 645 261 645 c 0
 290 645 314 653 332 668 c 0
 350 683 361 705 365 734 c 1
 450 734 l 1
 446 689 426 652 392 623 c 0
 356 594 313 580 261 580 c 0
 208 580 164 594 130 623 c 0
EndSplineSet
EndChar

StartChar: uni1EB1
Encoding: 7857 7857 206
Width: 535
Flags: W
LayerCount: 2
Fore
SplineSet
384 510 m 0
 413 497 434 475 446 446 c 0
 460 416 466 376 466 326 c 2
 466 0 l 1
 390 0 l 1
 390 77 l 1
 388 77 l 1
 369 50 343 29 310 14 c 0
 277 -2 240 -10 201 -10 c 0
 148 -10 107 4 76 32 c 0
 45 59 30 97 30 144 c 0
 30 205 57 252 110 284 c 0
 163 318 240 334 339 334 c 2
 387 334 l 1
 386 367 382 393 374 412 c 0
 367 430 354 443 337 451 c 0
 320 459 295 463 264 463 c 0
 196 463 132 448 71 419 c 1
 49 481 l 1
 116 514 189 530 269 530 c 0
 317 530 355 523 384 510 c 0
302 76 m 0
 328 89 349 108 364 130 c 0
 379 154 387 178 387 205 c 2
 387 270 l 1
 339 270 l 2
 265 270 208 260 168 239 c 0
 129 218 109 189 109 150 c 0
 109 121 119 98 140 81 c 0
 160 64 187 55 220 55 c 0
 249 55 277 62 302 76 c 0
130 623 m 0
 94 652 75 689 71 734 c 1
 156 734 l 1
 160 705 171 683 190 668 c 0
 208 653 232 645 261 645 c 0
 290 645 314 653 332 668 c 0
 350 683 361 705 365 734 c 1
 450 734 l 1
 446 689 426 652 392 623 c 0
 356 594 313 580 261 580 c 0
 208 580 164 594 130 623 c 0
147 930 m 1
 248 930 l 1
 351 720 l 1
 270 720 l 1
 147 930 l 1
EndSplineSet
EndChar

StartChar: uni1EB3
Encoding: 7859 7859 207
Width: 535
Flags: W
LayerCount: 2
Fore
SplineSet
328 666 m 0
 346 679 358 699 363 724 c 1
 311 724 l 1
 315 734 318 746 322 761 c 0
 324 776 326 788 326 798 c 0
 326 815 320 826 309 832 c 0
 298 837 277 840 246 840 c 0
 205 840 164 834 123 823 c 1
 115 887 l 1
 160 898 210 904 263 904 c 0
 301 904 330 902 352 897 c 0
 372 892 388 884 396 873 c 0
 406 862 410 846 410 825 c 0
 410 812 409 797 406 780 c 0
 403 763 400 748 395 734 c 1
 450 734 l 1
 446 689 426 652 392 623 c 0
 356 594 313 580 261 580 c 0
 208 580 164 594 130 623 c 0
 94 652 75 689 71 734 c 1
 156 734 l 1
 160 705 171 683 190 668 c 0
 208 653 232 645 261 645 c 0
 288 645 311 652 328 666 c 0
384 510 m 0
 413 497 434 475 446 446 c 0
 460 416 466 376 466 326 c 2
 466 0 l 1
 390 0 l 1
 390 77 l 1
 388 77 l 1
 369 50 343 29 310 14 c 0
 277 -2 240 -10 201 -10 c 0
 148 -10 107 4 76 32 c 0
 45 59 30 97 30 144 c 0
 30 205 57 252 110 284 c 0
 163 318 240 334 339 334 c 2
 387 334 l 1
 386 367 382 393 374 412 c 0
 367 430 354 443 337 451 c 0
 320 459 295 463 264 463 c 0
 196 463 132 448 71 419 c 1
 49 481 l 1
 116 514 189 530 269 530 c 0
 317 530 355 523 384 510 c 0
302 76 m 0
 328 89 349 108 364 130 c 0
 379 154 387 178 387 205 c 2
 387 270 l 1
 339 270 l 2
 265 270 208 260 168 239 c 0
 129 218 109 189 109 150 c 0
 109 121 119 98 140 81 c 0
 160 64 187 55 220 55 c 0
 249 55 277 62 302 76 c 0
EndSplineSet
EndChar

StartChar: uni1EB5
Encoding: 7861 7861 208
Width: 535
Flags: W
LayerCount: 2
Fore
SplineSet
384 510 m 0
 413 497 434 475 446 446 c 0
 460 416 466 376 466 326 c 2
 466 0 l 1
 390 0 l 1
 390 77 l 1
 388 77 l 1
 369 50 343 29 310 14 c 0
 277 -2 240 -10 201 -10 c 0
 148 -10 107 4 76 32 c 0
 45 59 30 97 30 144 c 0
 30 205 57 252 110 284 c 0
 163 318 240 334 339 334 c 2
 387 334 l 1
 386 367 382 393 374 412 c 0
 367 430 354 443 337 451 c 0
 320 459 295 463 264 463 c 0
 196 463 132 448 71 419 c 1
 49 481 l 1
 116 514 189 530 269 530 c 0
 317 530 355 523 384 510 c 0
302 76 m 0
 328 89 349 108 364 130 c 0
 379 154 387 178 387 205 c 2
 387 270 l 1
 339 270 l 2
 265 270 208 260 168 239 c 0
 129 218 109 189 109 150 c 0
 109 121 119 98 140 81 c 0
 160 64 187 55 220 55 c 0
 249 55 277 62 302 76 c 0
130 623 m 0
 94 652 75 689 71 734 c 1
 156 734 l 1
 160 705 171 683 190 668 c 0
 208 653 232 645 261 645 c 0
 290 645 314 653 332 668 c 0
 350 683 361 705 365 734 c 1
 450 734 l 1
 446 689 426 652 392 623 c 0
 356 594 313 580 261 580 c 0
 208 580 164 594 130 623 c 0
249 830 m 0
 218 852 194 863 176 863 c 0
 165 863 158 858 152 847 c 0
 148 836 145 818 145 793 c 1
 71 793 l 1
 71 843 78 880 92 904 c 0
 107 929 129 941 160 941 c 0
 191 941 229 925 273 894 c 0
 303 872 327 861 345 861 c 0
 356 861 364 866 368 877 c 0
 374 888 376 906 376 931 c 1
 450 931 l 1
 450 881 443 844 428 820 c 0
 414 795 392 783 362 783 c 0
 332 783 294 799 249 830 c 0
EndSplineSet
EndChar

StartChar: acircumflex
Encoding: 226 226 209
Width: 535
Flags: W
LayerCount: 2
Fore
SplineSet
384 510 m 0
 413 497 434 475 446 446 c 0
 460 416 466 376 466 326 c 2
 466 0 l 1
 390 0 l 1
 390 77 l 1
 388 77 l 1
 369 50 343 29 310 14 c 0
 277 -2 240 -10 201 -10 c 0
 148 -10 107 4 76 32 c 0
 45 59 30 97 30 144 c 0
 30 205 57 252 110 284 c 0
 163 318 240 334 339 334 c 2
 387 334 l 1
 386 367 382 393 374 412 c 0
 367 430 354 443 337 451 c 0
 320 459 295 463 264 463 c 0
 196 463 132 448 71 419 c 1
 49 481 l 1
 116 514 189 530 269 530 c 0
 317 530 355 523 384 510 c 0
302 76 m 0
 328 89 349 108 364 130 c 0
 379 154 387 178 387 205 c 2
 387 270 l 1
 339 270 l 2
 265 270 208 260 168 239 c 0
 129 218 109 189 109 150 c 0
 109 121 119 98 140 81 c 0
 160 64 187 55 220 55 c 0
 249 55 277 62 302 76 c 0
192 770 m 1
 330 770 l 1
 466 560 l 1
 371 560 l 1
 262 732 l 1
 260 732 l 1
 151 560 l 1
 56 560 l 1
 192 770 l 1
EndSplineSet
EndChar

StartChar: uni1EA5
Encoding: 7845 7845 210
Width: 535
Flags: W
LayerCount: 2
Fore
SplineSet
384 510 m 0
 413 497 434 475 446 446 c 0
 460 416 466 376 466 326 c 2
 466 0 l 1
 390 0 l 1
 390 77 l 1
 388 77 l 1
 369 50 343 29 310 14 c 0
 277 -2 240 -10 201 -10 c 0
 148 -10 107 4 76 32 c 0
 45 59 30 97 30 144 c 0
 30 205 57 252 110 284 c 0
 163 318 240 334 339 334 c 2
 387 334 l 1
 386 367 382 393 374 412 c 0
 367 430 354 443 337 451 c 0
 320 459 295 463 264 463 c 0
 196 463 132 448 71 419 c 1
 49 481 l 1
 116 514 189 530 269 530 c 0
 317 530 355 523 384 510 c 0
302 76 m 0
 328 89 349 108 364 130 c 0
 379 154 387 178 387 205 c 2
 387 270 l 1
 339 270 l 2
 265 270 208 260 168 239 c 0
 129 218 109 189 109 150 c 0
 109 121 119 98 140 81 c 0
 160 64 187 55 220 55 c 0
 249 55 277 62 302 76 c 0
192 770 m 1
 330 770 l 1
 466 560 l 1
 371 560 l 1
 262 732 l 1
 260 732 l 1
 151 560 l 1
 56 560 l 1
 192 770 l 1
449 740 m 1
 368 740 l 1
 471 950 l 1
 572 950 l 1
 449 740 l 1
EndSplineSet
EndChar

StartChar: uni1EAD
Encoding: 7853 7853 211
Width: 535
Flags: W
LayerCount: 2
Fore
SplineSet
384 510 m 0
 413 497 434 475 446 446 c 0
 460 416 466 376 466 326 c 2
 466 0 l 1
 390 0 l 1
 390 77 l 1
 388 77 l 1
 369 50 343 29 310 14 c 0
 277 -2 240 -10 201 -10 c 0
 148 -10 107 4 76 32 c 0
 45 59 30 97 30 144 c 0
 30 205 57 252 110 284 c 0
 163 318 240 334 339 334 c 2
 387 334 l 1
 386 367 382 393 374 412 c 0
 367 430 354 443 337 451 c 0
 320 459 295 463 264 463 c 0
 196 463 132 448 71 419 c 1
 49 481 l 1
 116 514 189 530 269 530 c 0
 317 530 355 523 384 510 c 0
302 76 m 0
 328 89 349 108 364 130 c 0
 379 154 387 178 387 205 c 2
 387 270 l 1
 339 270 l 2
 265 270 208 260 168 239 c 0
 129 218 109 189 109 150 c 0
 109 121 119 98 140 81 c 0
 160 64 187 55 220 55 c 0
 249 55 277 62 302 76 c 0
209 -93 m 1
 313 -93 l 1
 313 -197 l 1
 209 -197 l 1
 209 -93 l 1
192 770 m 1
 330 770 l 1
 466 560 l 1
 371 560 l 1
 262 732 l 1
 260 732 l 1
 151 560 l 1
 56 560 l 1
 192 770 l 1
EndSplineSet
EndChar

StartChar: uni1EA7
Encoding: 7847 7847 212
Width: 535
Flags: W
LayerCount: 2
Fore
SplineSet
384 510 m 0
 413 497 434 475 446 446 c 0
 460 416 466 376 466 326 c 2
 466 0 l 1
 390 0 l 1
 390 77 l 1
 388 77 l 1
 369 50 343 29 310 14 c 0
 277 -2 240 -10 201 -10 c 0
 148 -10 107 4 76 32 c 0
 45 59 30 97 30 144 c 0
 30 205 57 252 110 284 c 0
 163 318 240 334 339 334 c 2
 387 334 l 1
 386 367 382 393 374 412 c 0
 367 430 354 443 337 451 c 0
 320 459 295 463 264 463 c 0
 196 463 132 448 71 419 c 1
 49 481 l 1
 116 514 189 530 269 530 c 0
 317 530 355 523 384 510 c 0
302 76 m 0
 328 89 349 108 364 130 c 0
 379 154 387 178 387 205 c 2
 387 270 l 1
 339 270 l 2
 265 270 208 260 168 239 c 0
 129 218 109 189 109 150 c 0
 109 121 119 98 140 81 c 0
 160 64 187 55 220 55 c 0
 249 55 277 62 302 76 c 0
192 770 m 1
 330 770 l 1
 466 560 l 1
 371 560 l 1
 262 732 l 1
 260 732 l 1
 151 560 l 1
 56 560 l 1
 192 770 l 1
-50 950 m 1
 51 950 l 1
 154 740 l 1
 73 740 l 1
 -50 950 l 1
EndSplineSet
EndChar

StartChar: uni1EA9
Encoding: 7849 7849 213
Width: 535
Flags: W
LayerCount: 2
Fore
SplineSet
384 510 m 0
 413 497 434 475 446 446 c 0
 460 416 466 376 466 326 c 2
 466 0 l 1
 390 0 l 1
 390 77 l 1
 388 77 l 1
 369 50 343 29 310 14 c 0
 277 -2 240 -10 201 -10 c 0
 148 -10 107 4 76 32 c 0
 45 59 30 97 30 144 c 0
 30 205 57 252 110 284 c 0
 163 318 240 334 339 334 c 2
 387 334 l 1
 386 367 382 393 374 412 c 0
 367 430 354 443 337 451 c 0
 320 459 295 463 264 463 c 0
 196 463 132 448 71 419 c 1
 49 481 l 1
 116 514 189 530 269 530 c 0
 317 530 355 523 384 510 c 0
302 76 m 0
 328 89 349 108 364 130 c 0
 379 154 387 178 387 205 c 2
 387 270 l 1
 339 270 l 2
 265 270 208 260 168 239 c 0
 129 218 109 189 109 150 c 0
 109 121 119 98 140 81 c 0
 160 64 187 55 220 55 c 0
 249 55 277 62 302 76 c 0
192 770 m 1
 330 770 l 1
 466 560 l 1
 371 560 l 1
 262 732 l 1
 260 732 l 1
 151 560 l 1
 56 560 l 1
 192 770 l 1
394 757 m 0
 396 772 398 784 398 794 c 0
 398 811 392 822 381 828 c 0
 370 833 349 836 318 836 c 0
 277 836 236 830 195 819 c 1
 187 883 l 1
 232 894 282 900 335 900 c 0
 373 900 402 898 424 893 c 0
 444 888 460 880 468 869 c 0
 478 858 482 842 482 821 c 0
 482 806 480 789 477 770 c 0
 474 751 469 734 464 720 c 1
 383 720 l 1
 387 730 390 742 394 757 c 0
EndSplineSet
EndChar

StartChar: uni1EAB
Encoding: 7851 7851 214
Width: 535
Flags: W
LayerCount: 2
Fore
SplineSet
384 510 m 0
 413 497 434 475 446 446 c 0
 460 416 466 376 466 326 c 2
 466 0 l 1
 390 0 l 1
 390 77 l 1
 388 77 l 1
 369 50 343 29 310 14 c 0
 277 -2 240 -10 201 -10 c 0
 148 -10 107 4 76 32 c 0
 45 59 30 97 30 144 c 0
 30 205 57 252 110 284 c 0
 163 318 240 334 339 334 c 2
 387 334 l 1
 386 367 382 393 374 412 c 0
 367 430 354 443 337 451 c 0
 320 459 295 463 264 463 c 0
 196 463 132 448 71 419 c 1
 49 481 l 1
 116 514 189 530 269 530 c 0
 317 530 355 523 384 510 c 0
302 76 m 0
 328 89 349 108 364 130 c 0
 379 154 387 178 387 205 c 2
 387 270 l 1
 339 270 l 2
 265 270 208 260 168 239 c 0
 129 218 109 189 109 150 c 0
 109 121 119 98 140 81 c 0
 160 64 187 55 220 55 c 0
 249 55 277 62 302 76 c 0
192 770 m 1
 330 770 l 1
 466 560 l 1
 371 560 l 1
 262 732 l 1
 260 732 l 1
 151 560 l 1
 56 560 l 1
 192 770 l 1
249 830 m 0
 218 852 194 863 176 863 c 0
 165 863 158 858 152 847 c 0
 148 836 145 818 145 793 c 1
 71 793 l 1
 71 843 78 880 92 904 c 0
 107 929 129 941 160 941 c 0
 191 941 229 925 273 894 c 0
 303 872 327 861 345 861 c 0
 356 861 364 866 368 877 c 0
 374 888 376 906 376 931 c 1
 450 931 l 1
 450 881 443 844 428 820 c 0
 414 795 392 783 362 783 c 0
 332 783 294 799 249 830 c 0
EndSplineSet
EndChar

StartChar: uni0201
Encoding: 513 513 215
Width: 535
Flags: W
LayerCount: 2
Fore
SplineSet
384 510 m 0
 413 497 434 475 446 446 c 0
 460 416 466 376 466 326 c 2
 466 0 l 1
 390 0 l 1
 390 77 l 1
 388 77 l 1
 369 50 343 29 310 14 c 0
 277 -2 240 -10 201 -10 c 0
 148 -10 107 4 76 32 c 0
 45 59 30 97 30 144 c 0
 30 205 57 252 110 284 c 0
 163 318 240 334 339 334 c 2
 387 334 l 1
 386 367 382 393 374 412 c 0
 367 430 354 443 337 451 c 0
 320 459 295 463 264 463 c 0
 196 463 132 448 71 419 c 1
 49 481 l 1
 116 514 189 530 269 530 c 0
 317 530 355 523 384 510 c 0
302 76 m 0
 328 89 349 108 364 130 c 0
 379 154 387 178 387 205 c 2
 387 270 l 1
 339 270 l 2
 265 270 208 260 168 239 c 0
 129 218 109 189 109 150 c 0
 109 121 119 98 140 81 c 0
 160 64 187 55 220 55 c 0
 249 55 277 62 302 76 c 0
40 770 m 1
 141 770 l 1
 244 560 l 1
 163 560 l 1
 40 770 l 1
250 770 m 1
 351 770 l 1
 454 560 l 1
 373 560 l 1
 250 770 l 1
EndSplineSet
EndChar

StartChar: adieresis
Encoding: 228 228 216
Width: 535
Flags: W
LayerCount: 2
Fore
SplineSet
384 510 m 0
 413 497 434 475 446 446 c 0
 460 416 466 376 466 326 c 2
 466 0 l 1
 390 0 l 1
 390 77 l 1
 388 77 l 1
 369 50 343 29 310 14 c 0
 277 -2 240 -10 201 -10 c 0
 148 -10 107 4 76 32 c 0
 45 59 30 97 30 144 c 0
 30 205 57 252 110 284 c 0
 163 318 240 334 339 334 c 2
 387 334 l 1
 386 367 382 393 374 412 c 0
 367 430 354 443 337 451 c 0
 320 459 295 463 264 463 c 0
 196 463 132 448 71 419 c 1
 49 481 l 1
 116 514 189 530 269 530 c 0
 317 530 355 523 384 510 c 0
302 76 m 0
 328 89 349 108 364 130 c 0
 379 154 387 178 387 205 c 2
 387 270 l 1
 339 270 l 2
 265 270 208 260 168 239 c 0
 129 218 109 189 109 150 c 0
 109 121 119 98 140 81 c 0
 160 64 187 55 220 55 c 0
 249 55 277 62 302 76 c 0
84 717 m 1
 188 717 l 1
 188 613 l 1
 84 613 l 1
 84 717 l 1
333 717 m 1
 437 717 l 1
 437 613 l 1
 333 613 l 1
 333 717 l 1
EndSplineSet
EndChar

StartChar: uni1EA1
Encoding: 7841 7841 217
Width: 535
Flags: W
LayerCount: 2
Fore
SplineSet
384 510 m 0
 413 497 434 475 446 446 c 0
 460 416 466 376 466 326 c 2
 466 0 l 1
 390 0 l 1
 390 77 l 1
 388 77 l 1
 369 50 343 29 310 14 c 0
 277 -2 240 -10 201 -10 c 0
 148 -10 107 4 76 32 c 0
 45 59 30 97 30 144 c 0
 30 205 57 252 110 284 c 0
 163 318 240 334 339 334 c 2
 387 334 l 1
 386 367 382 393 374 412 c 0
 367 430 354 443 337 451 c 0
 320 459 295 463 264 463 c 0
 196 463 132 448 71 419 c 1
 49 481 l 1
 116 514 189 530 269 530 c 0
 317 530 355 523 384 510 c 0
302 76 m 0
 328 89 349 108 364 130 c 0
 379 154 387 178 387 205 c 2
 387 270 l 1
 339 270 l 2
 265 270 208 260 168 239 c 0
 129 218 109 189 109 150 c 0
 109 121 119 98 140 81 c 0
 160 64 187 55 220 55 c 0
 249 55 277 62 302 76 c 0
209 -93 m 1
 313 -93 l 1
 313 -197 l 1
 209 -197 l 1
 209 -93 l 1
EndSplineSet
EndChar

StartChar: agrave
Encoding: 224 224 218
Width: 535
Flags: W
LayerCount: 2
Fore
SplineSet
384 510 m 0
 413 497 434 475 446 446 c 0
 460 416 466 376 466 326 c 2
 466 0 l 1
 390 0 l 1
 390 77 l 1
 388 77 l 1
 369 50 343 29 310 14 c 0
 277 -2 240 -10 201 -10 c 0
 148 -10 107 4 76 32 c 0
 45 59 30 97 30 144 c 0
 30 205 57 252 110 284 c 0
 163 318 240 334 339 334 c 2
 387 334 l 1
 386 367 382 393 374 412 c 0
 367 430 354 443 337 451 c 0
 320 459 295 463 264 463 c 0
 196 463 132 448 71 419 c 1
 49 481 l 1
 116 514 189 530 269 530 c 0
 317 530 355 523 384 510 c 0
302 76 m 0
 328 89 349 108 364 130 c 0
 379 154 387 178 387 205 c 2
 387 270 l 1
 339 270 l 2
 265 270 208 260 168 239 c 0
 129 218 109 189 109 150 c 0
 109 121 119 98 140 81 c 0
 160 64 187 55 220 55 c 0
 249 55 277 62 302 76 c 0
147 770 m 1
 248 770 l 1
 351 560 l 1
 270 560 l 1
 147 770 l 1
EndSplineSet
EndChar

StartChar: uni1EA3
Encoding: 7843 7843 219
Width: 535
Flags: W
LayerCount: 2
Fore
SplineSet
384 510 m 0
 413 497 434 475 446 446 c 0
 460 416 466 376 466 326 c 2
 466 0 l 1
 390 0 l 1
 390 77 l 1
 388 77 l 1
 369 50 343 29 310 14 c 0
 277 -2 240 -10 201 -10 c 0
 148 -10 107 4 76 32 c 0
 45 59 30 97 30 144 c 0
 30 205 57 252 110 284 c 0
 163 318 240 334 339 334 c 2
 387 334 l 1
 386 367 382 393 374 412 c 0
 367 430 354 443 337 451 c 0
 320 459 295 463 264 463 c 0
 196 463 132 448 71 419 c 1
 49 481 l 1
 116 514 189 530 269 530 c 0
 317 530 355 523 384 510 c 0
302 76 m 0
 328 89 349 108 364 130 c 0
 379 154 387 178 387 205 c 2
 387 270 l 1
 339 270 l 2
 265 270 208 260 168 239 c 0
 129 218 109 189 109 150 c 0
 109 121 119 98 140 81 c 0
 160 64 187 55 220 55 c 0
 249 55 277 62 302 76 c 0
320 627 m 0
 322 642 324 654 324 664 c 0
 324 681 318 692 307 698 c 0
 296 703 275 706 244 706 c 0
 203 706 162 700 121 689 c 1
 113 753 l 1
 158 764 208 770 261 770 c 0
 299 770 328 768 350 763 c 0
 370 758 386 750 394 739 c 0
 404 728 408 712 408 691 c 0
 408 676 406 659 403 640 c 0
 400 621 395 604 390 590 c 1
 309 590 l 1
 313 600 316 612 320 627 c 0
EndSplineSet
EndChar

StartChar: uni0203
Encoding: 515 515 220
Width: 535
Flags: W
LayerCount: 2
Fore
SplineSet
384 510 m 0
 413 497 434 475 446 446 c 0
 460 416 466 376 466 326 c 2
 466 0 l 1
 390 0 l 1
 390 77 l 1
 388 77 l 1
 369 50 343 29 310 14 c 0
 277 -2 240 -10 201 -10 c 0
 148 -10 107 4 76 32 c 0
 45 59 30 97 30 144 c 0
 30 205 57 252 110 284 c 0
 163 318 240 334 339 334 c 2
 387 334 l 1
 386 367 382 393 374 412 c 0
 367 430 354 443 337 451 c 0
 320 459 295 463 264 463 c 0
 196 463 132 448 71 419 c 1
 49 481 l 1
 116 514 189 530 269 530 c 0
 317 530 355 523 384 510 c 0
302 76 m 0
 328 89 349 108 364 130 c 0
 379 154 387 178 387 205 c 2
 387 270 l 1
 339 270 l 2
 265 270 208 260 168 239 c 0
 129 218 109 189 109 150 c 0
 109 121 119 98 140 81 c 0
 160 64 187 55 220 55 c 0
 249 55 277 62 302 76 c 0
392 707 m 0
 426 678 446 641 450 596 c 1
 365 596 l 1
 361 625 350 647 332 662 c 0
 314 677 290 685 261 685 c 0
 232 685 208 677 190 662 c 0
 171 647 160 625 156 596 c 1
 71 596 l 1
 75 641 94 678 130 707 c 0
 164 736 208 750 261 750 c 0
 313 750 356 736 392 707 c 0
EndSplineSet
EndChar

StartChar: amacron
Encoding: 257 257 221
Width: 535
Flags: W
LayerCount: 2
Fore
SplineSet
384 510 m 0
 413 497 434 475 446 446 c 0
 460 416 466 376 466 326 c 2
 466 0 l 1
 390 0 l 1
 390 77 l 1
 388 77 l 1
 369 50 343 29 310 14 c 0
 277 -2 240 -10 201 -10 c 0
 148 -10 107 4 76 32 c 0
 45 59 30 97 30 144 c 0
 30 205 57 252 110 284 c 0
 163 318 240 334 339 334 c 2
 387 334 l 1
 386 367 382 393 374 412 c 0
 367 430 354 443 337 451 c 0
 320 459 295 463 264 463 c 0
 196 463 132 448 71 419 c 1
 49 481 l 1
 116 514 189 530 269 530 c 0
 317 530 355 523 384 510 c 0
302 76 m 0
 328 89 349 108 364 130 c 0
 379 154 387 178 387 205 c 2
 387 270 l 1
 339 270 l 2
 265 270 208 260 168 239 c 0
 129 218 109 189 109 150 c 0
 109 121 119 98 140 81 c 0
 160 64 187 55 220 55 c 0
 249 55 277 62 302 76 c 0
79 697 m 1
 442 697 l 1
 442 633 l 1
 79 633 l 1
 79 697 l 1
EndSplineSet
EndChar

StartChar: aogonek
Encoding: 261 261 222
Width: 535
Flags: W
LayerCount: 2
Fore
SplineSet
555 -197 m 1
 523 -211 486 -218 444 -218 c 0
 394 -218 356 -209 332 -191 c 0
 306 -173 294 -149 294 -120 c 0
 294 -72 326 -26 390 17 c 1
 390 77 l 1
 388 77 l 1
 369 50 343 29 310 14 c 0
 277 -2 240 -10 201 -10 c 0
 148 -10 107 4 76 32 c 0
 45 59 30 97 30 144 c 0
 30 205 57 252 110 284 c 0
 163 318 240 334 339 334 c 2
 387 334 l 1
 386 367 382 393 374 412 c 0
 367 430 354 443 337 451 c 0
 320 459 295 463 264 463 c 0
 196 463 132 448 71 419 c 1
 49 481 l 1
 116 514 189 530 269 530 c 0
 317 530 355 523 384 510 c 0
 413 497 434 475 446 446 c 0
 460 416 466 376 466 326 c 2
 466 0 l 1
 435 -18 411 -36 394 -54 c 0
 377 -73 369 -90 369 -107 c 0
 369 -123 376 -135 391 -142 c 0
 406 -149 425 -153 450 -153 c 0
 483 -153 514 -147 541 -134 c 1
 555 -197 l 1
302 76 m 0
 328 89 349 108 364 130 c 0
 379 154 387 178 387 205 c 2
 387 270 l 1
 339 270 l 2
 265 270 208 260 168 239 c 0
 129 218 109 189 109 150 c 0
 109 121 119 98 140 81 c 0
 160 64 187 55 220 55 c 0
 249 55 277 62 302 76 c 0
EndSplineSet
EndChar

StartChar: aring
Encoding: 229 229 223
Width: 535
Flags: W
LayerCount: 2
Fore
SplineSet
430 472 m 0
 454 441 466 392 466 326 c 2
 466 0 l 1
 390 0 l 1
 390 77 l 1
 388 77 l 1
 369 50 343 29 310 14 c 0
 277 -2 240 -10 201 -10 c 0
 148 -10 107 4 76 32 c 0
 45 59 30 97 30 144 c 0
 30 205 57 252 110 284 c 0
 163 318 240 334 339 334 c 2
 387 334 l 1
 386 367 382 393 374 412 c 0
 367 430 354 443 337 451 c 0
 320 459 295 463 264 463 c 0
 196 463 132 448 71 419 c 1
 49 481 l 1
 99 506 153 521 212 527 c 1
 185 537 162 554 146 578 c 0
 128 603 120 630 120 660 c 0
 120 685 126 709 139 731 c 0
 152 753 169 770 190 783 c 0
 212 796 236 802 262 802 c 0
 287 802 311 796 332 783 c 0
 354 770 371 753 384 731 c 0
 397 709 403 685 403 660 c 0
 403 631 395 604 378 580 c 0
 362 556 341 539 314 528 c 1
 368 522 407 503 430 472 c 0
204 602 m 0
 220 586 239 578 262 578 c 0
 285 578 304 586 320 602 c 0
 335 618 343 637 343 660 c 0
 343 683 335 702 320 718 c 0
 304 734 285 742 262 742 c 0
 239 742 220 734 204 718 c 0
 188 702 180 683 180 660 c 0
 180 637 188 618 204 602 c 0
302 76 m 0
 328 89 349 108 364 130 c 0
 379 154 387 178 387 205 c 2
 387 270 l 1
 339 270 l 2
 265 270 208 260 168 239 c 0
 129 218 109 189 109 150 c 0
 109 121 119 98 140 81 c 0
 160 64 187 55 220 55 c 0
 249 55 277 62 302 76 c 0
EndSplineSet
EndChar

StartChar: aringacute
Encoding: 507 507 224
Width: 535
Flags: W
LayerCount: 2
Fore
SplineSet
430 472 m 0
 454 441 466 392 466 326 c 2
 466 0 l 1
 390 0 l 1
 390 77 l 1
 388 77 l 1
 369 50 343 29 310 14 c 0
 277 -2 240 -10 201 -10 c 0
 148 -10 107 4 76 32 c 0
 45 59 30 97 30 144 c 0
 30 205 57 252 110 284 c 0
 163 318 240 334 339 334 c 2
 387 334 l 1
 386 367 382 393 374 412 c 0
 367 430 354 443 337 451 c 0
 320 459 295 463 264 463 c 0
 196 463 132 448 71 419 c 1
 49 481 l 1
 99 506 153 521 212 527 c 1
 185 537 162 554 146 578 c 0
 128 603 120 630 120 660 c 0
 120 683 125 704 135 724 c 0
 145 743 159 760 176 773 c 1
 274 973 l 1
 375 973 l 1
 275 801 l 1
 311 798 341 782 366 756 c 0
 391 728 403 697 403 660 c 0
 403 631 395 604 378 580 c 0
 362 556 341 539 314 528 c 1
 368 522 407 503 430 472 c 0
204 602 m 0
 220 586 239 578 262 578 c 0
 285 578 304 586 320 602 c 0
 335 618 343 637 343 660 c 0
 343 683 335 702 320 718 c 0
 304 734 285 742 262 742 c 0
 239 742 220 734 204 718 c 0
 188 702 180 683 180 660 c 0
 180 637 188 618 204 602 c 0
302 76 m 0
 328 89 349 108 364 130 c 0
 379 154 387 178 387 205 c 2
 387 270 l 1
 339 270 l 2
 265 270 208 260 168 239 c 0
 129 218 109 189 109 150 c 0
 109 121 119 98 140 81 c 0
 160 64 187 55 220 55 c 0
 249 55 277 62 302 76 c 0
EndSplineSet
EndChar

StartChar: atilde
Encoding: 227 227 225
Width: 535
Flags: W
LayerCount: 2
Fore
SplineSet
384 510 m 0
 413 497 434 475 446 446 c 0
 460 416 466 376 466 326 c 2
 466 0 l 1
 390 0 l 1
 390 77 l 1
 388 77 l 1
 369 50 343 29 310 14 c 0
 277 -2 240 -10 201 -10 c 0
 148 -10 107 4 76 32 c 0
 45 59 30 97 30 144 c 0
 30 205 57 252 110 284 c 0
 163 318 240 334 339 334 c 2
 387 334 l 1
 386 367 382 393 374 412 c 0
 367 430 354 443 337 451 c 0
 320 459 295 463 264 463 c 0
 196 463 132 448 71 419 c 1
 49 481 l 1
 116 514 189 530 269 530 c 0
 317 530 355 523 384 510 c 0
302 76 m 0
 328 89 349 108 364 130 c 0
 379 154 387 178 387 205 c 2
 387 270 l 1
 339 270 l 2
 265 270 208 260 168 239 c 0
 129 218 109 189 109 150 c 0
 109 121 119 98 140 81 c 0
 160 64 187 55 220 55 c 0
 249 55 277 62 302 76 c 0
249 633 m 0
 218 655 194 666 176 666 c 0
 165 666 158 661 152 650 c 0
 148 639 145 621 145 596 c 1
 71 596 l 1
 71 646 78 683 92 708 c 0
 107 732 129 744 160 744 c 0
 191 744 229 728 273 697 c 0
 303 675 327 664 345 664 c 0
 356 664 364 669 368 680 c 0
 374 691 376 709 376 734 c 1
 450 734 l 1
 450 684 443 647 428 622 c 0
 414 598 392 586 362 586 c 0
 332 586 294 602 249 633 c 0
EndSplineSet
EndChar

StartChar: ae
Encoding: 230 230 226
Width: 894
Flags: W
LayerCount: 2
Fore
SplineSet
856 229 m 1
 464 229 l 1
 467 172 484 130 514 100 c 0
 546 72 590 57 647 57 c 0
 675 57 703 60 732 67 c 0
 761 74 786 83 808 94 c 1
 827 33 l 1
 801 20 772 9 740 2 c 0
 708 -6 676 -10 643 -10 c 0
 593 -10 550 -1 514 16 c 0
 477 34 448 60 427 94 c 1
 406 61 378 35 342 17 c 0
 306 -1 264 -10 216 -10 c 0
 159 -10 114 4 80 31 c 0
 48 58 31 96 31 143 c 0
 31 204 58 252 111 284 c 0
 164 318 240 334 339 334 c 2
 387 334 l 1
 386 367 382 393 374 412 c 0
 367 431 354 444 336 452 c 0
 319 459 294 463 263 463 c 0
 196 463 132 448 71 419 c 1
 49 481 l 1
 116 514 189 530 269 530 c 0
 315 530 352 524 380 511 c 0
 408 498 429 478 442 450 c 1
 484 503 545 530 625 530 c 0
 700 530 757 507 797 460 c 0
 837 414 857 347 857 260 c 0
 857 245 857 235 856 229 c 1
465 293 m 1
 782 293 l 1
 776 408 724 465 625 465 c 0
 525 465 472 408 465 293 c 1
387 270 m 1
 339 270 l 2
 264 270 207 260 168 239 c 0
 129 218 109 188 109 149 c 0
 109 120 119 98 140 80 c 0
 160 64 187 55 220 55 c 0
 249 55 277 62 302 76 c 0
 328 89 349 108 364 130 c 0
 379 154 387 178 387 205 c 2
 387 270 l 1
EndSplineSet
EndChar

StartChar: aeacute
Encoding: 509 509 227
Width: 894
Flags: W
LayerCount: 2
Fore
SplineSet
856 229 m 1
 464 229 l 1
 467 172 484 130 514 100 c 0
 546 72 590 57 647 57 c 0
 675 57 703 60 732 67 c 0
 761 74 786 83 808 94 c 1
 827 33 l 1
 801 20 772 9 740 2 c 0
 708 -6 676 -10 643 -10 c 0
 593 -10 550 -1 514 16 c 0
 477 34 448 60 427 94 c 1
 406 61 378 35 342 17 c 0
 306 -1 264 -10 216 -10 c 0
 159 -10 114 4 80 31 c 0
 48 58 31 96 31 143 c 0
 31 204 58 252 111 284 c 0
 164 318 240 334 339 334 c 2
 387 334 l 1
 386 367 382 393 374 412 c 0
 367 431 354 444 336 452 c 0
 319 459 294 463 263 463 c 0
 196 463 132 448 71 419 c 1
 49 481 l 1
 116 514 189 530 269 530 c 0
 315 530 352 524 380 511 c 0
 408 498 429 478 442 450 c 1
 484 503 545 530 625 530 c 0
 700 530 757 507 797 460 c 0
 837 414 857 347 857 260 c 0
 857 245 857 235 856 229 c 1
465 293 m 1
 782 293 l 1
 776 408 724 465 625 465 c 0
 525 465 472 408 465 293 c 1
387 270 m 1
 339 270 l 2
 264 270 207 260 168 239 c 0
 129 218 109 188 109 149 c 0
 109 120 119 98 140 80 c 0
 160 64 187 55 220 55 c 0
 249 55 277 62 302 76 c 0
 328 89 349 108 364 130 c 0
 379 154 387 178 387 205 c 2
 387 270 l 1
438 560 m 1
 357 560 l 1
 460 770 l 1
 561 770 l 1
 438 560 l 1
EndSplineSet
EndChar

StartChar: b
Encoding: 98 98 228
Width: 581
Flags: W
LayerCount: 2
Fore
SplineSet
486 460 m 0
 521 412 539 346 539 260 c 0
 539 174 521 108 486 60 c 0
 450 14 399 -10 334 -10 c 0
 296 -10 261 -2 230 14 c 0
 198 29 173 51 154 80 c 1
 152 80 l 1
 152 0 l 1
 76 0 l 1
 76 750 l 1
 155 750 l 1
 155 440 l 1
 157 440 l 1
 175 469 200 491 230 506 c 0
 262 522 296 530 334 530 c 0
 399 530 450 506 486 460 c 0
420 111 m 0
 446 147 459 197 459 260 c 0
 459 323 446 373 420 409 c 0
 394 445 358 463 313 463 c 0
 284 463 257 455 232 440 c 0
 208 424 189 402 176 375 c 0
 162 348 155 317 155 283 c 2
 155 237 l 2
 155 203 162 172 176 145 c 0
 189 118 208 96 232 80 c 0
 257 65 284 57 313 57 c 0
 358 57 394 75 420 111 c 0
EndSplineSet
EndChar

StartChar: c
Encoding: 99 99 229
Width: 523
Flags: W
LayerCount: 2
Fore
SplineSet
108 62 m 0
 61 109 38 175 38 260 c 0
 38 345 61 411 108 458 c 0
 154 506 219 530 302 530 c 0
 359 530 411 518 458 493 c 1
 435 432 l 1
 393 453 350 463 306 463 c 0
 246 463 200 445 166 410 c 0
 134 375 117 325 117 260 c 0
 117 195 134 145 166 110 c 0
 200 75 246 57 306 57 c 0
 350 57 393 67 435 88 c 1
 458 27 l 1
 411 2 359 -10 302 -10 c 0
 219 -10 154 14 108 62 c 0
EndSplineSet
EndChar

StartChar: cacute
Encoding: 263 263 230
Width: 523
Flags: W
LayerCount: 2
Fore
SplineSet
108 62 m 0
 61 109 38 175 38 260 c 0
 38 345 61 411 108 458 c 0
 154 506 219 530 302 530 c 0
 359 530 411 518 458 493 c 1
 435 432 l 1
 393 453 350 463 306 463 c 0
 246 463 200 445 166 410 c 0
 134 375 117 325 117 260 c 0
 117 195 134 145 166 110 c 0
 200 75 246 57 306 57 c 0
 350 57 393 67 435 88 c 1
 458 27 l 1
 411 2 359 -10 302 -10 c 0
 219 -10 154 14 108 62 c 0
266 560 m 1
 185 560 l 1
 288 770 l 1
 389 770 l 1
 266 560 l 1
EndSplineSet
EndChar

StartChar: ccaron
Encoding: 269 269 231
Width: 523
Flags: W
LayerCount: 2
Fore
SplineSet
108 62 m 0
 61 109 38 175 38 260 c 0
 38 345 61 411 108 458 c 0
 154 506 219 530 302 530 c 0
 359 530 411 518 458 493 c 1
 435 432 l 1
 393 453 350 463 306 463 c 0
 246 463 200 445 166 410 c 0
 134 375 117 325 117 260 c 0
 117 195 134 145 166 110 c 0
 200 75 246 57 306 57 c 0
 350 57 393 67 435 88 c 1
 458 27 l 1
 411 2 359 -10 302 -10 c 0
 219 -10 154 14 108 62 c 0
71 770 m 1
 166 770 l 1
 275 598 l 1
 277 598 l 1
 386 770 l 1
 481 770 l 1
 345 560 l 1
 207 560 l 1
 71 770 l 1
EndSplineSet
EndChar

StartChar: ccedilla
Encoding: 231 231 232
Width: 523
Flags: W
LayerCount: 2
Fore
SplineSet
458 27 m 1
 425 10 389 -2 350 -7 c 1
 392 -43 413 -81 413 -120 c 0
 413 -149 400 -173 376 -191 c 0
 350 -209 313 -218 263 -218 c 0
 222 -218 185 -211 153 -197 c 1
 167 -135 l 1
 196 -148 226 -154 257 -154 c 0
 282 -154 302 -150 316 -142 c 0
 332 -135 339 -123 339 -107 c 0
 339 -92 332 -76 317 -58 c 0
 302 -42 281 -24 253 -7 c 1
 185 2 132 30 94 76 c 0
 57 123 38 184 38 260 c 0
 38 345 61 411 108 458 c 0
 154 506 219 530 302 530 c 0
 359 530 411 518 458 493 c 1
 435 432 l 1
 393 453 350 463 306 463 c 0
 246 463 200 445 166 410 c 0
 134 375 117 325 117 260 c 0
 117 195 134 145 166 110 c 0
 200 75 246 57 306 57 c 0
 350 57 393 67 435 88 c 1
 458 27 l 1
EndSplineSet
EndChar

StartChar: ccircumflex
Encoding: 265 265 233
Width: 523
Flags: W
LayerCount: 2
Fore
SplineSet
108 62 m 0
 61 109 38 175 38 260 c 0
 38 345 61 411 108 458 c 0
 154 506 219 530 302 530 c 0
 359 530 411 518 458 493 c 1
 435 432 l 1
 393 453 350 463 306 463 c 0
 246 463 200 445 166 410 c 0
 134 375 117 325 117 260 c 0
 117 195 134 145 166 110 c 0
 200 75 246 57 306 57 c 0
 350 57 393 67 435 88 c 1
 458 27 l 1
 411 2 359 -10 302 -10 c 0
 219 -10 154 14 108 62 c 0
206 770 m 1
 344 770 l 1
 480 560 l 1
 385 560 l 1
 276 732 l 1
 274 732 l 1
 165 560 l 1
 70 560 l 1
 206 770 l 1
EndSplineSet
EndChar

StartChar: cdotaccent
Encoding: 267 267 234
Width: 523
Flags: W
LayerCount: 2
Fore
SplineSet
108 62 m 0
 61 109 38 175 38 260 c 0
 38 345 61 411 108 458 c 0
 154 506 219 530 302 530 c 0
 359 530 411 518 458 493 c 1
 435 432 l 1
 393 453 350 463 306 463 c 0
 246 463 200 445 166 410 c 0
 134 375 117 325 117 260 c 0
 117 195 134 145 166 110 c 0
 200 75 246 57 306 57 c 0
 350 57 393 67 435 88 c 1
 458 27 l 1
 411 2 359 -10 302 -10 c 0
 219 -10 154 14 108 62 c 0
223 717 m 1
 327 717 l 1
 327 613 l 1
 223 613 l 1
 223 717 l 1
EndSplineSet
EndChar

StartChar: d
Encoding: 100 100 235
Width: 581
Flags: W
LayerCount: 2
Fore
SplineSet
505 750 m 1
 505 0 l 1
 429 0 l 1
 429 80 l 1
 427 80 l 1
 408 51 383 29 352 14 c 0
 320 -2 285 -10 247 -10 c 0
 182 -10 131 14 96 60 c 0
 60 108 42 174 42 260 c 0
 42 346 60 412 96 460 c 0
 131 506 182 530 247 530 c 0
 285 530 320 522 350 506 c 0
 382 491 406 469 424 440 c 1
 426 440 l 1
 426 750 l 1
 505 750 l 1
348 80 m 0
 373 96 392 118 406 145 c 0
 419 172 426 203 426 237 c 2
 426 283 l 2
 426 317 419 348 406 375 c 0
 392 402 373 424 348 440 c 0
 324 455 297 463 268 463 c 0
 223 463 187 445 161 409 c 0
 135 373 122 323 122 260 c 0
 122 197 135 147 161 111 c 0
 187 75 223 57 268 57 c 0
 297 57 324 65 348 80 c 0
EndSplineSet
EndChar

StartChar: eth
Encoding: 240 240 236
Width: 582
Flags: W
LayerCount: 2
Fore
SplineSet
412 619 m 1
 451 569 481 512 502 449 c 0
 524 386 535 321 535 254 c 0
 535 171 513 106 470 60 c 0
 427 13 366 -10 287 -10 c 0
 209 -10 148 12 104 56 c 0
 60 101 38 162 38 241 c 0
 38 316 59 374 102 416 c 0
 145 459 203 480 276 480 c 0
 341 480 391 463 428 428 c 1
 430 429 l 1
 409 492 380 546 341 591 c 1
 112 500 l 1
 85 563 l 1
 290 644 l 1
 240 687 188 714 133 724 c 1
 150 790 l 1
 228 777 299 738 364 674 c 1
 525 738 l 1
 552 675 l 1
 412 619 l 1
412 106 m 0
 441 138 456 183 456 241 c 0
 456 296 442 339 412 368 c 0
 384 398 342 413 287 413 c 0
 232 413 190 398 161 368 c 0
 132 339 117 296 117 241 c 0
 117 183 132 138 162 106 c 0
 192 73 234 57 287 57 c 0
 340 57 382 73 412 106 c 0
EndSplineSet
EndChar

StartChar: dcaron
Encoding: 271 271 237
Width: 769
Flags: W
LayerCount: 2
Fore
SplineSet
505 750 m 1
 505 0 l 1
 429 0 l 1
 429 80 l 1
 427 80 l 1
 408 51 383 29 352 14 c 0
 320 -2 285 -10 247 -10 c 0
 182 -10 131 14 96 60 c 0
 60 108 42 174 42 260 c 0
 42 346 60 412 96 460 c 0
 131 506 182 530 247 530 c 0
 285 530 320 522 350 506 c 0
 382 491 406 469 424 440 c 1
 426 440 l 1
 426 750 l 1
 505 750 l 1
348 80 m 0
 373 96 392 118 406 145 c 0
 419 172 426 203 426 237 c 2
 426 283 l 2
 426 317 419 348 406 375 c 0
 392 402 373 424 348 440 c 0
 324 455 297 463 268 463 c 0
 223 463 187 445 161 409 c 0
 135 373 122 323 122 260 c 0
 122 197 135 147 161 111 c 0
 187 75 223 57 268 57 c 0
 297 57 324 65 348 80 c 0
639 770 m 1
 733 770 l 1
 620 470 l 1
 546 470 l 1
 639 770 l 1
EndSplineSet
EndChar

StartChar: dcroat
Encoding: 273 273 238
Width: 646
Flags: W
LayerCount: 2
Fore
SplineSet
618 592 m 1
 505 592 l 1
 505 0 l 1
 429 0 l 1
 429 80 l 1
 427 80 l 1
 408 51 383 29 352 14 c 0
 320 -2 285 -10 247 -10 c 0
 182 -10 131 14 96 60 c 0
 60 108 42 174 42 260 c 0
 42 346 60 412 96 460 c 0
 131 506 182 530 247 530 c 0
 285 530 320 522 350 506 c 0
 382 491 406 469 424 440 c 1
 426 440 l 1
 426 592 l 1
 198 592 l 1
 198 658 l 1
 426 658 l 1
 426 750 l 1
 505 750 l 1
 505 658 l 1
 618 658 l 1
 618 592 l 1
348 80 m 0
 373 96 392 118 406 145 c 0
 419 172 426 203 426 237 c 2
 426 283 l 2
 426 317 419 348 406 375 c 0
 392 402 373 424 348 440 c 0
 324 455 297 463 268 463 c 0
 223 463 187 445 161 409 c 0
 135 373 122 323 122 260 c 0
 122 197 135 147 161 111 c 0
 187 75 223 57 268 57 c 0
 297 57 324 65 348 80 c 0
EndSplineSet
EndChar

StartChar: uni01C6
Encoding: 454 454 239
Width: 1090
Flags: W
LayerCount: 2
Fore
SplineSet
505 750 m 1
 505 0 l 1
 429 0 l 1
 429 80 l 1
 427 80 l 1
 408 51 383 29 352 14 c 0
 320 -2 285 -10 247 -10 c 0
 182 -10 131 14 96 60 c 0
 60 108 42 174 42 260 c 0
 42 346 60 412 96 460 c 0
 131 506 182 530 247 530 c 0
 285 530 320 522 350 506 c 0
 382 491 406 469 424 440 c 1
 426 440 l 1
 426 750 l 1
 505 750 l 1
348 80 m 0
 373 96 392 118 406 145 c 0
 419 172 426 203 426 237 c 2
 426 283 l 2
 426 317 419 348 406 375 c 0
 392 402 373 424 348 440 c 0
 324 455 297 463 268 463 c 0
 223 463 187 445 161 409 c 0
 135 373 122 323 122 260 c 0
 122 197 135 147 161 111 c 0
 187 75 223 57 268 57 c 0
 297 57 324 65 348 80 c 0
634 67 m 1
 938 451 l 1
 938 453 l 1
 634 453 l 1
 634 520 l 1
 1037 520 l 1
 1037 453 l 1
 733 69 l 1
 733 67 l 1
 1037 67 l 1
 1037 0 l 1
 634 0 l 1
 634 67 l 1
631 770 m 1
 726 770 l 1
 835 598 l 1
 837 598 l 1
 946 770 l 1
 1041 770 l 1
 905 560 l 1
 767 560 l 1
 631 770 l 1
EndSplineSet
EndChar

StartChar: e
Encoding: 101 101 240
Width: 545
Flags: W
LayerCount: 2
Fore
SplineSet
508 229 m 1
 116 229 l 1
 122 114 186 57 309 57 c 0
 363 57 414 68 462 89 c 1
 482 26 l 1
 428 2 369 -10 305 -10 c 0
 220 -10 154 13 108 60 c 0
 61 107 38 173 38 260 c 0
 38 345 59 412 101 459 c 0
 143 506 202 530 277 530 c 0
 352 530 409 507 449 460 c 0
 489 413 509 347 509 260 c 2
 508 229 l 1
117 293 m 1
 434 293 l 1
 428 408 376 465 277 465 c 0
 177 465 124 408 117 293 c 1
EndSplineSet
EndChar

StartChar: eacute
Encoding: 233 233 241
Width: 545
Flags: W
LayerCount: 2
Fore
SplineSet
508 229 m 1
 116 229 l 1
 122 114 186 57 309 57 c 0
 363 57 414 68 462 89 c 1
 482 26 l 1
 428 2 369 -10 305 -10 c 0
 220 -10 154 13 108 60 c 0
 61 107 38 173 38 260 c 0
 38 345 59 412 101 459 c 0
 143 506 202 530 277 530 c 0
 352 530 409 507 449 460 c 0
 489 413 509 347 509 260 c 2
 508 229 l 1
117 293 m 1
 434 293 l 1
 428 408 376 465 277 465 c 0
 177 465 124 408 117 293 c 1
267 560 m 1
 186 560 l 1
 289 770 l 1
 390 770 l 1
 267 560 l 1
EndSplineSet
EndChar

StartChar: ebreve
Encoding: 277 277 242
Width: 545
Flags: W
LayerCount: 2
Fore
SplineSet
508 229 m 1
 116 229 l 1
 122 114 186 57 309 57 c 0
 363 57 414 68 462 89 c 1
 482 26 l 1
 428 2 369 -10 305 -10 c 0
 220 -10 154 13 108 60 c 0
 61 107 38 173 38 260 c 0
 38 345 59 412 101 459 c 0
 143 506 202 530 277 530 c 0
 352 530 409 507 449 460 c 0
 489 413 509 347 509 260 c 2
 508 229 l 1
117 293 m 1
 434 293 l 1
 428 408 376 465 277 465 c 0
 177 465 124 408 117 293 c 1
144 623 m 0
 110 652 90 689 86 734 c 1
 171 734 l 1
 175 705 186 683 204 668 c 0
 223 653 247 645 276 645 c 0
 305 645 329 653 347 668 c 0
 365 683 376 705 380 734 c 1
 465 734 l 1
 461 689 442 652 406 623 c 0
 372 594 328 580 276 580 c 0
 223 580 180 594 144 623 c 0
EndSplineSet
EndChar

StartChar: ecaron
Encoding: 283 283 243
Width: 545
Flags: W
LayerCount: 2
Fore
SplineSet
508 229 m 1
 116 229 l 1
 122 114 186 57 309 57 c 0
 363 57 414 68 462 89 c 1
 482 26 l 1
 428 2 369 -10 305 -10 c 0
 220 -10 154 13 108 60 c 0
 61 107 38 173 38 260 c 0
 38 345 59 412 101 459 c 0
 143 506 202 530 277 530 c 0
 352 530 409 507 449 460 c 0
 489 413 509 347 509 260 c 2
 508 229 l 1
117 293 m 1
 434 293 l 1
 428 408 376 465 277 465 c 0
 177 465 124 408 117 293 c 1
72 770 m 1
 167 770 l 1
 276 598 l 1
 278 598 l 1
 387 770 l 1
 482 770 l 1
 346 560 l 1
 208 560 l 1
 72 770 l 1
EndSplineSet
EndChar

StartChar: ecircumflex
Encoding: 234 234 244
Width: 545
Flags: W
LayerCount: 2
Fore
SplineSet
508 229 m 1
 116 229 l 1
 122 114 186 57 309 57 c 0
 363 57 414 68 462 89 c 1
 482 26 l 1
 428 2 369 -10 305 -10 c 0
 220 -10 154 13 108 60 c 0
 61 107 38 173 38 260 c 0
 38 345 59 412 101 459 c 0
 143 506 202 530 277 530 c 0
 352 530 409 507 449 460 c 0
 489 413 509 347 509 260 c 2
 508 229 l 1
117 293 m 1
 434 293 l 1
 428 408 376 465 277 465 c 0
 177 465 124 408 117 293 c 1
207 770 m 1
 345 770 l 1
 481 560 l 1
 386 560 l 1
 277 732 l 1
 275 732 l 1
 166 560 l 1
 71 560 l 1
 207 770 l 1
EndSplineSet
EndChar

StartChar: uni1EBF
Encoding: 7871 7871 245
Width: 545
Flags: W
LayerCount: 2
Fore
SplineSet
508 229 m 1
 116 229 l 1
 122 114 186 57 309 57 c 0
 363 57 414 68 462 89 c 1
 482 26 l 1
 428 2 369 -10 305 -10 c 0
 220 -10 154 13 108 60 c 0
 61 107 38 173 38 260 c 0
 38 345 59 412 101 459 c 0
 143 506 202 530 277 530 c 0
 352 530 409 507 449 460 c 0
 489 413 509 347 509 260 c 2
 508 229 l 1
117 293 m 1
 434 293 l 1
 428 408 376 465 277 465 c 0
 177 465 124 408 117 293 c 1
207 770 m 1
 345 770 l 1
 481 560 l 1
 386 560 l 1
 277 732 l 1
 275 732 l 1
 166 560 l 1
 71 560 l 1
 207 770 l 1
464 740 m 1
 383 740 l 1
 486 950 l 1
 587 950 l 1
 464 740 l 1
EndSplineSet
EndChar

StartChar: uni1EC7
Encoding: 7879 7879 246
Width: 545
Flags: W
LayerCount: 2
Fore
SplineSet
508 229 m 1
 116 229 l 1
 122 114 186 57 309 57 c 0
 363 57 414 68 462 89 c 1
 482 26 l 1
 428 2 369 -10 305 -10 c 0
 220 -10 154 13 108 60 c 0
 61 107 38 173 38 260 c 0
 38 345 59 412 101 459 c 0
 143 506 202 530 277 530 c 0
 352 530 409 507 449 460 c 0
 489 413 509 347 509 260 c 2
 508 229 l 1
117 293 m 1
 434 293 l 1
 428 408 376 465 277 465 c 0
 177 465 124 408 117 293 c 1
224 -93 m 1
 328 -93 l 1
 328 -197 l 1
 224 -197 l 1
 224 -93 l 1
207 770 m 1
 345 770 l 1
 481 560 l 1
 386 560 l 1
 277 732 l 1
 275 732 l 1
 166 560 l 1
 71 560 l 1
 207 770 l 1
EndSplineSet
EndChar

StartChar: uni1EC1
Encoding: 7873 7873 247
Width: 545
Flags: W
LayerCount: 2
Fore
SplineSet
508 229 m 1
 116 229 l 1
 122 114 186 57 309 57 c 0
 363 57 414 68 462 89 c 1
 482 26 l 1
 428 2 369 -10 305 -10 c 0
 220 -10 154 13 108 60 c 0
 61 107 38 173 38 260 c 0
 38 345 59 412 101 459 c 0
 143 506 202 530 277 530 c 0
 352 530 409 507 449 460 c 0
 489 413 509 347 509 260 c 2
 508 229 l 1
117 293 m 1
 434 293 l 1
 428 408 376 465 277 465 c 0
 177 465 124 408 117 293 c 1
207 770 m 1
 345 770 l 1
 481 560 l 1
 386 560 l 1
 277 732 l 1
 275 732 l 1
 166 560 l 1
 71 560 l 1
 207 770 l 1
-35 950 m 1
 66 950 l 1
 169 740 l 1
 88 740 l 1
 -35 950 l 1
EndSplineSet
EndChar

StartChar: uni1EC3
Encoding: 7875 7875 248
Width: 545
Flags: W
LayerCount: 2
Fore
SplineSet
508 229 m 1
 116 229 l 1
 122 114 186 57 309 57 c 0
 363 57 414 68 462 89 c 1
 482 26 l 1
 428 2 369 -10 305 -10 c 0
 220 -10 154 13 108 60 c 0
 61 107 38 173 38 260 c 0
 38 345 59 412 101 459 c 0
 143 506 202 530 277 530 c 0
 352 530 409 507 449 460 c 0
 489 413 509 347 509 260 c 2
 508 229 l 1
117 293 m 1
 434 293 l 1
 428 408 376 465 277 465 c 0
 177 465 124 408 117 293 c 1
207 770 m 1
 345 770 l 1
 481 560 l 1
 386 560 l 1
 277 732 l 1
 275 732 l 1
 166 560 l 1
 71 560 l 1
 207 770 l 1
408 757 m 0
 412 772 413 784 413 794 c 0
 413 811 407 822 396 828 c 0
 385 833 364 836 333 836 c 0
 292 836 251 830 210 819 c 1
 202 883 l 1
 247 894 297 900 350 900 c 0
 388 900 418 898 438 893 c 0
 460 888 474 880 484 869 c 0
 492 858 497 842 497 821 c 0
 497 806 495 789 492 770 c 0
 489 751 484 734 479 720 c 1
 398 720 l 1
 402 730 406 742 408 757 c 0
EndSplineSet
EndChar

StartChar: uni1EC5
Encoding: 7877 7877 249
Width: 545
Flags: W
LayerCount: 2
Fore
SplineSet
508 229 m 1
 116 229 l 1
 122 114 186 57 309 57 c 0
 363 57 414 68 462 89 c 1
 482 26 l 1
 428 2 369 -10 305 -10 c 0
 220 -10 154 13 108 60 c 0
 61 107 38 173 38 260 c 0
 38 345 59 412 101 459 c 0
 143 506 202 530 277 530 c 0
 352 530 409 507 449 460 c 0
 489 413 509 347 509 260 c 2
 508 229 l 1
117 293 m 1
 434 293 l 1
 428 408 376 465 277 465 c 0
 177 465 124 408 117 293 c 1
207 770 m 1
 345 770 l 1
 481 560 l 1
 386 560 l 1
 277 732 l 1
 275 732 l 1
 166 560 l 1
 71 560 l 1
 207 770 l 1
264 830 m 0
 233 852 209 863 191 863 c 0
 180 863 172 858 168 847 c 0
 162 836 160 818 160 793 c 1
 86 793 l 1
 86 843 93 880 108 904 c 0
 122 929 144 941 175 941 c 0
 206 941 244 925 288 894 c 0
 318 872 342 861 360 861 c 0
 371 861 378 866 384 877 c 0
 388 888 391 906 391 931 c 1
 465 931 l 1
 465 881 458 844 444 820 c 0
 429 795 407 783 377 783 c 0
 347 783 309 799 264 830 c 0
EndSplineSet
EndChar

StartChar: uni0205
Encoding: 517 517 250
Width: 545
Flags: W
LayerCount: 2
Fore
SplineSet
508 229 m 1
 116 229 l 1
 122 114 186 57 309 57 c 0
 363 57 414 68 462 89 c 1
 482 26 l 1
 428 2 369 -10 305 -10 c 0
 220 -10 154 13 108 60 c 0
 61 107 38 173 38 260 c 0
 38 345 59 412 101 459 c 0
 143 506 202 530 277 530 c 0
 352 530 409 507 449 460 c 0
 489 413 509 347 509 260 c 2
 508 229 l 1
117 293 m 1
 434 293 l 1
 428 408 376 465 277 465 c 0
 177 465 124 408 117 293 c 1
55 770 m 1
 156 770 l 1
 259 560 l 1
 178 560 l 1
 55 770 l 1
265 770 m 1
 366 770 l 1
 469 560 l 1
 388 560 l 1
 265 770 l 1
EndSplineSet
EndChar

StartChar: edieresis
Encoding: 235 235 251
Width: 545
Flags: W
LayerCount: 2
Fore
SplineSet
508 229 m 1
 116 229 l 1
 122 114 186 57 309 57 c 0
 363 57 414 68 462 89 c 1
 482 26 l 1
 428 2 369 -10 305 -10 c 0
 220 -10 154 13 108 60 c 0
 61 107 38 173 38 260 c 0
 38 345 59 412 101 459 c 0
 143 506 202 530 277 530 c 0
 352 530 409 507 449 460 c 0
 489 413 509 347 509 260 c 2
 508 229 l 1
117 293 m 1
 434 293 l 1
 428 408 376 465 277 465 c 0
 177 465 124 408 117 293 c 1
99 717 m 1
 203 717 l 1
 203 613 l 1
 99 613 l 1
 99 717 l 1
348 717 m 1
 452 717 l 1
 452 613 l 1
 348 613 l 1
 348 717 l 1
EndSplineSet
EndChar

StartChar: edotaccent
Encoding: 279 279 252
Width: 545
Flags: W
LayerCount: 2
Fore
SplineSet
508 229 m 1
 116 229 l 1
 122 114 186 57 309 57 c 0
 363 57 414 68 462 89 c 1
 482 26 l 1
 428 2 369 -10 305 -10 c 0
 220 -10 154 13 108 60 c 0
 61 107 38 173 38 260 c 0
 38 345 59 412 101 459 c 0
 143 506 202 530 277 530 c 0
 352 530 409 507 449 460 c 0
 489 413 509 347 509 260 c 2
 508 229 l 1
117 293 m 1
 434 293 l 1
 428 408 376 465 277 465 c 0
 177 465 124 408 117 293 c 1
224 717 m 1
 328 717 l 1
 328 613 l 1
 224 613 l 1
 224 717 l 1
EndSplineSet
EndChar

StartChar: uni1EB9
Encoding: 7865 7865 253
Width: 545
Flags: W
LayerCount: 2
Fore
SplineSet
508 229 m 1
 116 229 l 1
 122 114 186 57 309 57 c 0
 363 57 414 68 462 89 c 1
 482 26 l 1
 428 2 369 -10 305 -10 c 0
 220 -10 154 13 108 60 c 0
 61 107 38 173 38 260 c 0
 38 345 59 412 101 459 c 0
 143 506 202 530 277 530 c 0
 352 530 409 507 449 460 c 0
 489 413 509 347 509 260 c 2
 508 229 l 1
117 293 m 1
 434 293 l 1
 428 408 376 465 277 465 c 0
 177 465 124 408 117 293 c 1
224 -93 m 1
 328 -93 l 1
 328 -197 l 1
 224 -197 l 1
 224 -93 l 1
EndSplineSet
EndChar

StartChar: egrave
Encoding: 232 232 254
Width: 545
Flags: W
LayerCount: 2
Fore
SplineSet
508 229 m 1
 116 229 l 1
 122 114 186 57 309 57 c 0
 363 57 414 68 462 89 c 1
 482 26 l 1
 428 2 369 -10 305 -10 c 0
 220 -10 154 13 108 60 c 0
 61 107 38 173 38 260 c 0
 38 345 59 412 101 459 c 0
 143 506 202 530 277 530 c 0
 352 530 409 507 449 460 c 0
 489 413 509 347 509 260 c 2
 508 229 l 1
117 293 m 1
 434 293 l 1
 428 408 376 465 277 465 c 0
 177 465 124 408 117 293 c 1
162 770 m 1
 263 770 l 1
 366 560 l 1
 285 560 l 1
 162 770 l 1
EndSplineSet
EndChar

StartChar: uni1EBB
Encoding: 7867 7867 255
Width: 545
Flags: W
LayerCount: 2
Fore
SplineSet
508 229 m 1
 116 229 l 1
 122 114 186 57 309 57 c 0
 363 57 414 68 462 89 c 1
 482 26 l 1
 428 2 369 -10 305 -10 c 0
 220 -10 154 13 108 60 c 0
 61 107 38 173 38 260 c 0
 38 345 59 412 101 459 c 0
 143 506 202 530 277 530 c 0
 352 530 409 507 449 460 c 0
 489 413 509 347 509 260 c 2
 508 229 l 1
117 293 m 1
 434 293 l 1
 428 408 376 465 277 465 c 0
 177 465 124 408 117 293 c 1
334 627 m 0
 338 642 339 654 339 664 c 0
 339 681 333 692 322 698 c 0
 311 703 290 706 259 706 c 0
 218 706 177 700 136 689 c 1
 128 753 l 1
 173 764 223 770 276 770 c 0
 314 770 344 768 364 763 c 0
 386 758 400 750 410 739 c 0
 418 728 423 712 423 691 c 0
 423 676 421 659 418 640 c 0
 415 621 410 604 405 590 c 1
 324 590 l 1
 328 600 332 612 334 627 c 0
EndSplineSet
EndChar

StartChar: uni0207
Encoding: 519 519 256
Width: 545
Flags: W
LayerCount: 2
Fore
SplineSet
508 229 m 1
 116 229 l 1
 122 114 186 57 309 57 c 0
 363 57 414 68 462 89 c 1
 482 26 l 1
 428 2 369 -10 305 -10 c 0
 220 -10 154 13 108 60 c 0
 61 107 38 173 38 260 c 0
 38 345 59 412 101 459 c 0
 143 506 202 530 277 530 c 0
 352 530 409 507 449 460 c 0
 489 413 509 347 509 260 c 2
 508 229 l 1
117 293 m 1
 434 293 l 1
 428 408 376 465 277 465 c 0
 177 465 124 408 117 293 c 1
406 707 m 0
 442 678 461 641 465 596 c 1
 380 596 l 1
 376 625 365 647 347 662 c 0
 329 677 305 685 276 685 c 0
 247 685 223 677 204 662 c 0
 186 647 175 625 171 596 c 1
 86 596 l 1
 90 641 110 678 144 707 c 0
 180 736 223 750 276 750 c 0
 328 750 372 736 406 707 c 0
EndSplineSet
EndChar

StartChar: emacron
Encoding: 275 275 257
Width: 545
Flags: W
LayerCount: 2
Fore
SplineSet
508 229 m 1
 116 229 l 1
 122 114 186 57 309 57 c 0
 363 57 414 68 462 89 c 1
 482 26 l 1
 428 2 369 -10 305 -10 c 0
 220 -10 154 13 108 60 c 0
 61 107 38 173 38 260 c 0
 38 345 59 412 101 459 c 0
 143 506 202 530 277 530 c 0
 352 530 409 507 449 460 c 0
 489 413 509 347 509 260 c 2
 508 229 l 1
117 293 m 1
 434 293 l 1
 428 408 376 465 277 465 c 0
 177 465 124 408 117 293 c 1
94 697 m 1
 457 697 l 1
 457 633 l 1
 94 633 l 1
 94 697 l 1
EndSplineSet
EndChar

StartChar: eogonek
Encoding: 281 281 258
Width: 545
Flags: W
LayerCount: 2
Fore
SplineSet
571 -167 m 1
 539 -181 502 -188 460 -188 c 0
 410 -188 372 -179 348 -161 c 0
 322 -143 310 -119 310 -90 c 0
 310 -61 321 -34 343 -8 c 1
 326 -9 313 -10 305 -10 c 0
 220 -10 154 13 108 60 c 0
 61 107 38 173 38 260 c 0
 38 345 59 412 101 459 c 0
 143 506 202 530 277 530 c 0
 352 530 409 507 449 460 c 0
 489 413 509 347 509 260 c 2
 508 229 l 1
 116 229 l 1
 122 114 186 57 309 57 c 0
 363 57 414 68 462 89 c 1
 481 30 l 1
 482 30 l 1
 482 30 l 1
 482 30 481 29 481 29 c 1
 481 29 482 26 482 26 c 2
 479 24 475 22 472 22 c 0
 468 20 465 19 462 18 c 0
 437 2 418 -14 405 -30 c 0
 392 -47 385 -62 385 -77 c 0
 385 -93 392 -105 407 -112 c 0
 422 -119 441 -123 466 -123 c 0
 499 -123 530 -117 557 -104 c 1
 571 -167 l 1
117 293 m 1
 434 293 l 1
 428 408 376 465 277 465 c 0
 177 465 124 408 117 293 c 1
EndSplineSet
EndChar

StartChar: uni1EBD
Encoding: 7869 7869 259
Width: 545
Flags: W
LayerCount: 2
Fore
SplineSet
508 229 m 1
 116 229 l 1
 122 114 186 57 309 57 c 0
 363 57 414 68 462 89 c 1
 482 26 l 1
 428 2 369 -10 305 -10 c 0
 220 -10 154 13 108 60 c 0
 61 107 38 173 38 260 c 0
 38 345 59 412 101 459 c 0
 143 506 202 530 277 530 c 0
 352 530 409 507 449 460 c 0
 489 413 509 347 509 260 c 2
 508 229 l 1
117 293 m 1
 434 293 l 1
 428 408 376 465 277 465 c 0
 177 465 124 408 117 293 c 1
264 633 m 0
 233 655 209 666 191 666 c 0
 180 666 172 661 168 650 c 0
 162 639 160 621 160 596 c 1
 86 596 l 1
 86 646 93 683 108 708 c 0
 122 732 144 744 175 744 c 0
 206 744 244 728 288 697 c 0
 318 675 342 664 360 664 c 0
 371 664 378 669 384 680 c 0
 388 691 391 709 391 734 c 1
 465 734 l 1
 465 684 458 647 444 622 c 0
 429 598 407 586 377 586 c 0
 347 586 309 602 264 633 c 0
EndSplineSet
EndChar

StartChar: uni0259
Encoding: 601 601 260
Width: 546
Flags: W
LayerCount: 2
Fore
SplineSet
438 460 m 0
 484 413 507 347 507 260 c 0
 507 175 486 108 444 61 c 0
 403 14 344 -10 268 -10 c 0
 193 -10 136 13 96 60 c 0
 56 107 36 173 36 260 c 0
 36 269 37 279 38 291 c 1
 430 291 l 1
 423 406 359 463 237 463 c 0
 182 463 131 452 83 431 c 1
 64 494 l 1
 89 505 117 514 148 520 c 0
 179 527 210 530 241 530 c 0
 326 530 392 507 438 460 c 0
429 227 m 1
 111 227 l 1
 117 112 169 55 268 55 c 0
 369 55 422 112 429 227 c 1
EndSplineSet
EndChar

StartChar: f
Encoding: 102 102 261
Width: 443
Flags: W
LayerCount: 2
Fore
SplineSet
23 453 m 1
 23 520 l 1
 166 520 l 1
 166 587 l 2
 166 702 217 760 320 760 c 0
 353 760 387 755 420 745 c 1
 406 680 l 1
 382 689 357 693 332 693 c 0
 301 693 278 685 266 669 c 0
 252 653 246 626 246 587 c 2
 246 520 l 1
 414 520 l 1
 414 453 l 1
 246 453 l 1
 246 0 l 1
 166 0 l 1
 166 453 l 1
 23 453 l 1
EndSplineSet
EndChar

StartChar: g
Encoding: 103 103 262
Width: 581
Flags: W
LayerCount: 2
Fore
SplineSet
504 520 m 1
 504 40 l 2
 504 -140 420 -230 252 -230 c 0
 186 -230 121 -216 57 -189 c 1
 77 -127 l 1
 132 -151 187 -163 242 -163 c 0
 305 -163 351 -146 380 -114 c 0
 410 -80 425 -29 425 40 c 2
 425 80 l 1
 423 80 l 1
 406 51 382 29 351 14 c 0
 320 -2 285 -10 247 -10 c 0
 182 -10 131 14 96 60 c 0
 60 108 42 174 42 260 c 0
 42 346 60 412 96 460 c 0
 131 506 182 530 247 530 c 0
 285 530 320 522 351 506 c 0
 382 491 407 469 426 440 c 1
 428 440 l 1
 429 520 l 1
 504 520 l 1
348 80 m 0
 372 96 391 118 404 145 c 0
 418 172 425 203 425 237 c 2
 425 283 l 2
 425 317 418 348 404 375 c 0
 391 402 372 424 348 440 c 0
 324 455 297 463 268 463 c 0
 223 463 187 445 160 408 c 0
 134 372 121 323 121 260 c 0
 121 197 134 148 160 112 c 0
 187 75 223 57 268 57 c 0
 297 57 324 65 348 80 c 0
EndSplineSet
EndChar

StartChar: gbreve
Encoding: 287 287 263
Width: 581
Flags: W
LayerCount: 2
Fore
SplineSet
504 520 m 1
 504 40 l 2
 504 -140 420 -230 252 -230 c 0
 186 -230 121 -216 57 -189 c 1
 77 -127 l 1
 132 -151 187 -163 242 -163 c 0
 305 -163 351 -146 380 -114 c 0
 410 -80 425 -29 425 40 c 2
 425 80 l 1
 423 80 l 1
 406 51 382 29 351 14 c 0
 320 -2 285 -10 247 -10 c 0
 182 -10 131 14 96 60 c 0
 60 108 42 174 42 260 c 0
 42 346 60 412 96 460 c 0
 131 506 182 530 247 530 c 0
 285 530 320 522 351 506 c 0
 382 491 407 469 426 440 c 1
 428 440 l 1
 429 520 l 1
 504 520 l 1
348 80 m 0
 372 96 391 118 404 145 c 0
 418 172 425 203 425 237 c 2
 425 283 l 2
 425 317 418 348 404 375 c 0
 391 402 372 424 348 440 c 0
 324 455 297 463 268 463 c 0
 223 463 187 445 160 408 c 0
 134 372 121 323 121 260 c 0
 121 197 134 148 160 112 c 0
 187 75 223 57 268 57 c 0
 297 57 324 65 348 80 c 0
156 623 m 0
 120 652 101 689 97 734 c 1
 182 734 l 1
 186 705 197 683 216 668 c 0
 234 653 258 645 287 645 c 0
 316 645 340 653 358 668 c 0
 376 683 387 705 391 734 c 1
 476 734 l 1
 472 689 452 652 418 623 c 0
 382 594 339 580 287 580 c 0
 234 580 190 594 156 623 c 0
EndSplineSet
EndChar

StartChar: gcaron
Encoding: 487 487 264
Width: 581
Flags: W
LayerCount: 2
Fore
SplineSet
504 520 m 1
 504 40 l 2
 504 -140 420 -230 252 -230 c 0
 186 -230 121 -216 57 -189 c 1
 77 -127 l 1
 132 -151 187 -163 242 -163 c 0
 305 -163 351 -146 380 -114 c 0
 410 -80 425 -29 425 40 c 2
 425 80 l 1
 423 80 l 1
 406 51 382 29 351 14 c 0
 320 -2 285 -10 247 -10 c 0
 182 -10 131 14 96 60 c 0
 60 108 42 174 42 260 c 0
 42 346 60 412 96 460 c 0
 131 506 182 530 247 530 c 0
 285 530 320 522 351 506 c 0
 382 491 407 469 426 440 c 1
 428 440 l 1
 429 520 l 1
 504 520 l 1
348 80 m 0
 372 96 391 118 404 145 c 0
 418 172 425 203 425 237 c 2
 425 283 l 2
 425 317 418 348 404 375 c 0
 391 402 372 424 348 440 c 0
 324 455 297 463 268 463 c 0
 223 463 187 445 160 408 c 0
 134 372 121 323 121 260 c 0
 121 197 134 148 160 112 c 0
 187 75 223 57 268 57 c 0
 297 57 324 65 348 80 c 0
82 770 m 1
 177 770 l 1
 286 598 l 1
 288 598 l 1
 397 770 l 1
 492 770 l 1
 356 560 l 1
 218 560 l 1
 82 770 l 1
EndSplineSet
EndChar

StartChar: gcircumflex
Encoding: 285 285 265
Width: 581
Flags: W
LayerCount: 2
Fore
SplineSet
504 520 m 1
 504 40 l 2
 504 -140 420 -230 252 -230 c 0
 186 -230 121 -216 57 -189 c 1
 77 -127 l 1
 132 -151 187 -163 242 -163 c 0
 305 -163 351 -146 380 -114 c 0
 410 -80 425 -29 425 40 c 2
 425 80 l 1
 423 80 l 1
 406 51 382 29 351 14 c 0
 320 -2 285 -10 247 -10 c 0
 182 -10 131 14 96 60 c 0
 60 108 42 174 42 260 c 0
 42 346 60 412 96 460 c 0
 131 506 182 530 247 530 c 0
 285 530 320 522 351 506 c 0
 382 491 407 469 426 440 c 1
 428 440 l 1
 429 520 l 1
 504 520 l 1
348 80 m 0
 372 96 391 118 404 145 c 0
 418 172 425 203 425 237 c 2
 425 283 l 2
 425 317 418 348 404 375 c 0
 391 402 372 424 348 440 c 0
 324 455 297 463 268 463 c 0
 223 463 187 445 160 408 c 0
 134 372 121 323 121 260 c 0
 121 197 134 148 160 112 c 0
 187 75 223 57 268 57 c 0
 297 57 324 65 348 80 c 0
218 770 m 1
 356 770 l 1
 492 560 l 1
 397 560 l 1
 288 732 l 1
 286 732 l 1
 177 560 l 1
 82 560 l 1
 218 770 l 1
EndSplineSet
EndChar

StartChar: uni0123
Encoding: 291 291 266
Width: 581
Flags: W
LayerCount: 2
Fore
SplineSet
504 520 m 1
 504 40 l 2
 504 -140 420 -230 252 -230 c 0
 186 -230 121 -216 57 -189 c 1
 77 -127 l 1
 132 -151 187 -163 242 -163 c 0
 305 -163 351 -146 380 -114 c 0
 410 -80 425 -29 425 40 c 2
 425 80 l 1
 423 80 l 1
 406 51 382 29 351 14 c 0
 320 -2 285 -10 247 -10 c 0
 182 -10 131 14 96 60 c 0
 60 108 42 174 42 260 c 0
 42 346 60 412 96 460 c 0
 131 506 182 530 247 530 c 0
 285 530 320 522 351 506 c 0
 382 491 407 469 426 440 c 1
 428 440 l 1
 429 520 l 1
 504 520 l 1
348 80 m 0
 372 96 391 118 404 145 c 0
 418 172 425 203 425 237 c 2
 425 283 l 2
 425 317 418 348 404 375 c 0
 391 402 372 424 348 440 c 0
 324 455 297 463 268 463 c 0
 223 463 187 445 160 408 c 0
 134 372 121 323 121 260 c 0
 121 197 134 148 160 112 c 0
 187 75 223 57 268 57 c 0
 297 57 324 65 348 80 c 0
308 770 m 1
 389 770 l 1
 286 560 l 1
 185 560 l 1
 308 770 l 1
EndSplineSet
EndChar

StartChar: gdotaccent
Encoding: 289 289 267
Width: 581
Flags: W
LayerCount: 2
Fore
SplineSet
504 520 m 1
 504 40 l 2
 504 -140 420 -230 252 -230 c 0
 186 -230 121 -216 57 -189 c 1
 77 -127 l 1
 132 -151 187 -163 242 -163 c 0
 305 -163 351 -146 380 -114 c 0
 410 -80 425 -29 425 40 c 2
 425 80 l 1
 423 80 l 1
 406 51 382 29 351 14 c 0
 320 -2 285 -10 247 -10 c 0
 182 -10 131 14 96 60 c 0
 60 108 42 174 42 260 c 0
 42 346 60 412 96 460 c 0
 131 506 182 530 247 530 c 0
 285 530 320 522 351 506 c 0
 382 491 407 469 426 440 c 1
 428 440 l 1
 429 520 l 1
 504 520 l 1
348 80 m 0
 372 96 391 118 404 145 c 0
 418 172 425 203 425 237 c 2
 425 283 l 2
 425 317 418 348 404 375 c 0
 391 402 372 424 348 440 c 0
 324 455 297 463 268 463 c 0
 223 463 187 445 160 408 c 0
 134 372 121 323 121 260 c 0
 121 197 134 148 160 112 c 0
 187 75 223 57 268 57 c 0
 297 57 324 65 348 80 c 0
235 717 m 1
 339 717 l 1
 339 613 l 1
 235 613 l 1
 235 717 l 1
EndSplineSet
EndChar

StartChar: h
Encoding: 104 104 268
Width: 586
Flags: W
LayerCount: 2
Fore
SplineSet
517 320 m 2
 517 0 l 1
 437 0 l 1
 437 306 l 2
 437 359 428 398 410 424 c 0
 393 450 366 463 331 463 c 0
 300 463 272 454 244 436 c 0
 218 419 196 396 180 366 c 0
 163 338 155 306 155 273 c 2
 155 0 l 1
 76 0 l 1
 76 750 l 1
 155 750 l 1
 155 433 l 1
 157 433 l 1
 177 463 204 487 239 504 c 0
 274 521 311 530 351 530 c 0
 462 530 517 460 517 320 c 2
EndSplineSet
EndChar

StartChar: hbar
Encoding: 295 295 269
Width: 651
Flags: W
LayerCount: 2
Fore
SplineSet
541 478 m 0
 568 443 582 391 582 320 c 2
 582 0 l 1
 503 0 l 1
 503 306 l 2
 503 359 494 398 476 424 c 0
 459 450 432 463 397 463 c 0
 366 463 338 454 310 436 c 0
 284 419 262 396 246 366 c 0
 229 338 221 306 221 273 c 2
 221 0 l 1
 142 0 l 1
 142 592 l 1
 29 592 l 1
 29 658 l 1
 142 658 l 1
 142 750 l 1
 221 750 l 1
 221 658 l 1
 449 658 l 1
 449 592 l 1
 221 592 l 1
 221 433 l 1
 223 433 l 1
 242 463 269 487 304 504 c 0
 339 521 376 530 417 530 c 0
 472 530 514 513 541 478 c 0
EndSplineSet
EndChar

StartChar: hcircumflex
Encoding: 293 293 270
Width: 586
Flags: W
LayerCount: 2
Fore
SplineSet
517 320 m 2
 517 0 l 1
 437 0 l 1
 437 306 l 2
 437 359 428 398 410 424 c 0
 393 450 366 463 331 463 c 0
 300 463 272 454 244 436 c 0
 218 419 196 396 180 366 c 0
 163 338 155 306 155 273 c 2
 155 0 l 1
 76 0 l 1
 76 750 l 1
 155 750 l 1
 155 433 l 1
 157 433 l 1
 177 463 204 487 239 504 c 0
 274 521 311 530 351 530 c 0
 462 530 517 460 517 320 c 2
215 1000 m 1
 353 1000 l 1
 489 790 l 1
 394 790 l 1
 285 962 l 1
 283 962 l 1
 174 790 l 1
 79 790 l 1
 215 1000 l 1
EndSplineSet
EndChar

StartChar: i
Encoding: 105 105 271
Width: 261
Flags: W
LayerCount: 2
Fore
SplineSet
84 737 m 1
 177 737 l 1
 177 643 l 1
 84 643 l 1
 84 737 l 1
91 520 m 1
 171 520 l 1
 171 0 l 1
 91 0 l 1
 91 520 l 1
EndSplineSet
EndChar

StartChar: dotlessi
Encoding: 305 305 272
Width: 248
Flags: W
LayerCount: 2
Fore
SplineSet
84 520 m 1
 164 520 l 1
 164 0 l 1
 84 0 l 1
 84 520 l 1
EndSplineSet
EndChar

StartChar: iacute
Encoding: 237 237 273
Width: 248
Flags: W
LayerCount: 2
Fore
SplineSet
84 520 m 1
 164 520 l 1
 164 0 l 1
 84 0 l 1
 84 520 l 1
115 560 m 1
 34 560 l 1
 137 770 l 1
 238 770 l 1
 115 560 l 1
EndSplineSet
EndChar

StartChar: ibreve
Encoding: 301 301 274
Width: 248
Flags: W
LayerCount: 2
Fore
SplineSet
84 520 m 1
 164 520 l 1
 164 0 l 1
 84 0 l 1
 84 520 l 1
-8 623 m 0
 -42 652 -62 689 -66 734 c 1
 19 734 l 1
 23 705 34 683 52 668 c 0
 71 653 95 645 124 645 c 0
 153 645 177 653 195 668 c 0
 213 683 224 705 228 734 c 1
 313 734 l 1
 309 689 290 652 254 623 c 0
 220 594 176 580 124 580 c 0
 71 580 28 594 -8 623 c 0
EndSplineSet
EndChar

StartChar: icircumflex
Encoding: 238 238 275
Width: 248
Flags: W
LayerCount: 2
Fore
SplineSet
84 520 m 1
 164 520 l 1
 164 0 l 1
 84 0 l 1
 84 520 l 1
55 770 m 1
 193 770 l 1
 329 560 l 1
 234 560 l 1
 125 732 l 1
 123 732 l 1
 14 560 l 1
 -81 560 l 1
 55 770 l 1
EndSplineSet
EndChar

StartChar: uni0209
Encoding: 521 521 276
Width: 248
Flags: W
LayerCount: 2
Fore
SplineSet
84 520 m 1
 164 520 l 1
 164 0 l 1
 84 0 l 1
 84 520 l 1
-97 770 m 1
 4 770 l 1
 107 560 l 1
 26 560 l 1
 -97 770 l 1
113 770 m 1
 214 770 l 1
 317 560 l 1
 236 560 l 1
 113 770 l 1
EndSplineSet
EndChar

StartChar: idieresis
Encoding: 239 239 277
Width: 248
Flags: W
LayerCount: 2
Fore
SplineSet
84 520 m 1
 164 520 l 1
 164 0 l 1
 84 0 l 1
 84 520 l 1
-53 717 m 1
 51 717 l 1
 51 613 l 1
 -53 613 l 1
 -53 717 l 1
196 717 m 1
 300 717 l 1
 300 613 l 1
 196 613 l 1
 196 717 l 1
EndSplineSet
EndChar

StartChar: i.loclTRK
Encoding: 1114113 -1 278
Width: 248
Flags: W
LayerCount: 2
Fore
SplineSet
84 520 m 1
 164 520 l 1
 164 0 l 1
 84 0 l 1
 84 520 l 1
72 717 m 1
 176 717 l 1
 176 613 l 1
 72 613 l 1
 72 717 l 1
EndSplineSet
EndChar

StartChar: uni1ECB
Encoding: 7883 7883 279
Width: 261
Flags: W
LayerCount: 2
Fore
SplineSet
84 737 m 1
 177 737 l 1
 177 643 l 1
 84 643 l 1
 84 737 l 1
91 520 m 1
 171 520 l 1
 171 0 l 1
 91 0 l 1
 91 520 l 1
79 -93 m 1
 183 -93 l 1
 183 -197 l 1
 79 -197 l 1
 79 -93 l 1
EndSplineSet
EndChar

StartChar: igrave
Encoding: 236 236 280
Width: 248
Flags: W
LayerCount: 2
Fore
SplineSet
84 520 m 1
 164 520 l 1
 164 0 l 1
 84 0 l 1
 84 520 l 1
10 770 m 1
 111 770 l 1
 214 560 l 1
 133 560 l 1
 10 770 l 1
EndSplineSet
EndChar

StartChar: uni1EC9
Encoding: 7881 7881 281
Width: 248
Flags: W
LayerCount: 2
Fore
SplineSet
84 520 m 1
 164 520 l 1
 164 0 l 1
 84 0 l 1
 84 520 l 1
182 627 m 0
 186 642 187 654 187 664 c 0
 187 681 181 692 170 698 c 0
 159 703 138 706 107 706 c 0
 66 706 25 700 -16 689 c 1
 -24 753 l 1
 21 764 71 770 124 770 c 0
 162 770 192 768 212 763 c 0
 234 758 248 750 258 739 c 0
 266 728 271 712 271 691 c 0
 271 676 269 659 266 640 c 0
 263 621 258 604 253 590 c 1
 172 590 l 1
 176 600 180 612 182 627 c 0
EndSplineSet
EndChar

StartChar: uni020B
Encoding: 523 523 282
Width: 248
Flags: W
LayerCount: 2
Fore
SplineSet
84 520 m 1
 164 520 l 1
 164 0 l 1
 84 0 l 1
 84 520 l 1
254 707 m 0
 290 678 309 641 313 596 c 1
 228 596 l 1
 224 625 213 647 195 662 c 0
 177 677 153 685 124 685 c 0
 95 685 71 677 52 662 c 0
 34 647 23 625 19 596 c 1
 -66 596 l 1
 -62 641 -42 678 -8 707 c 0
 28 736 71 750 124 750 c 0
 176 750 220 736 254 707 c 0
EndSplineSet
EndChar

StartChar: imacron
Encoding: 299 299 283
Width: 248
Flags: W
LayerCount: 2
Fore
SplineSet
84 520 m 1
 164 520 l 1
 164 0 l 1
 84 0 l 1
 84 520 l 1
-58 697 m 1
 305 697 l 1
 305 633 l 1
 -58 633 l 1
 -58 697 l 1
EndSplineSet
EndChar

StartChar: iogonek
Encoding: 303 303 284
Width: 248
Flags: W
LayerCount: 2
Fore
SplineSet
176 717 m 1
 176 613 l 1
 72 613 l 1
 72 717 l 1
 176 717 l 1
253 -197 m 1
 221 -211 184 -218 142 -218 c 0
 92 -218 54 -209 30 -191 c 0
 4 -173 -8 -149 -8 -120 c 0
 -8 -73 23 -28 84 14 c 1
 84 520 l 1
 164 520 l 1
 164 0 l 1
 133 -18 109 -36 92 -54 c 0
 75 -73 67 -90 67 -107 c 0
 67 -123 74 -135 89 -142 c 0
 104 -149 123 -153 148 -153 c 0
 181 -153 212 -147 239 -134 c 1
 253 -197 l 1
EndSplineSet
EndChar

StartChar: itilde
Encoding: 297 297 285
Width: 248
Flags: W
LayerCount: 2
Fore
SplineSet
84 520 m 1
 164 520 l 1
 164 0 l 1
 84 0 l 1
 84 520 l 1
112 633 m 0
 81 655 57 666 39 666 c 0
 28 666 20 661 16 650 c 0
 10 639 8 621 8 596 c 1
 -66 596 l 1
 -66 646 -59 683 -44 708 c 0
 -30 732 -8 744 23 744 c 0
 54 744 92 728 136 697 c 0
 166 675 190 664 208 664 c 0
 219 664 226 669 232 680 c 0
 236 691 239 709 239 734 c 1
 313 734 l 1
 313 684 306 647 292 622 c 0
 277 598 255 586 225 586 c 0
 195 586 157 602 112 633 c 0
EndSplineSet
EndChar

StartChar: j
Encoding: 106 106 286
Width: 317
Flags: W
LayerCount: 2
Fore
SplineSet
139 737 m 1
 233 737 l 1
 233 643 l 1
 139 643 l 1
 139 737 l 1
69 -150 m 0
 98 -140 118 -124 130 -100 c 0
 140 -75 146 -38 146 13 c 2
 146 520 l 1
 226 520 l 1
 226 13 l 2
 226 -52 218 -101 200 -136 c 0
 184 -170 154 -194 114 -208 c 0
 72 -223 13 -230 -64 -230 c 1
 -68 -163 l 1
 -6 -163 40 -158 69 -150 c 0
EndSplineSet
EndChar

StartChar: uni0237
Encoding: 567 567 287
Width: 310
Flags: W
LayerCount: 2
Fore
SplineSet
69 -150 m 0
 98 -140 118 -124 130 -100 c 0
 140 -75 146 -38 146 13 c 2
 146 520 l 1
 226 520 l 1
 226 13 l 2
 226 -52 218 -101 200 -136 c 0
 184 -170 154 -194 114 -208 c 0
 72 -223 13 -230 -64 -230 c 1
 -68 -163 l 1
 -6 -163 40 -158 69 -150 c 0
EndSplineSet
EndChar

StartChar: jcircumflex
Encoding: 309 309 288
Width: 310
Flags: W
LayerCount: 2
Fore
SplineSet
69 -150 m 0
 98 -140 118 -124 130 -100 c 0
 140 -75 146 -38 146 13 c 2
 146 520 l 1
 226 520 l 1
 226 13 l 2
 226 -52 218 -101 200 -136 c 0
 184 -170 154 -194 114 -208 c 0
 72 -223 13 -230 -64 -230 c 1
 -68 -163 l 1
 -6 -163 40 -158 69 -150 c 0
86 770 m 1
 224 770 l 1
 360 560 l 1
 265 560 l 1
 156 732 l 1
 154 732 l 1
 45 560 l 1
 -50 560 l 1
 86 770 l 1
EndSplineSet
EndChar

StartChar: k
Encoding: 107 107 289
Width: 554
Flags: W
LayerCount: 2
Fore
SplineSet
76 750 m 1
 155 750 l 1
 155 296 l 1
 157 296 l 1
 407 520 l 1
 511 520 l 1
 226 270 l 1
 523 0 l 1
 419 0 l 1
 157 244 l 1
 155 244 l 1
 155 0 l 1
 76 0 l 1
 76 750 l 1
EndSplineSet
EndChar

StartChar: uni0137
Encoding: 311 311 290
Width: 554
Flags: W
LayerCount: 2
Fore
SplineSet
76 750 m 1
 155 750 l 1
 155 296 l 1
 157 296 l 1
 407 520 l 1
 511 520 l 1
 226 270 l 1
 523 0 l 1
 419 0 l 1
 157 244 l 1
 155 244 l 1
 155 0 l 1
 76 0 l 1
 76 750 l 1
225 -250 m 1
 144 -250 l 1
 247 -40 l 1
 348 -40 l 1
 225 -250 l 1
EndSplineSet
EndChar

StartChar: kgreenlandic
Encoding: 312 312 291
Width: 554
Flags: W
LayerCount: 2
Fore
SplineSet
76 520 m 1
 155 520 l 1
 155 296 l 1
 157 296 l 1
 407 520 l 1
 511 520 l 1
 226 270 l 1
 523 0 l 1
 419 0 l 1
 157 244 l 1
 155 244 l 1
 155 0 l 1
 76 0 l 1
 76 520 l 1
EndSplineSet
EndChar

StartChar: l
Encoding: 108 108 292
Width: 368
Flags: W
LayerCount: 2
Fore
SplineSet
163 750 m 1
 163 167 l 2
 163 120 169 88 182 73 c 0
 194 58 217 50 250 50 c 0
 281 50 310 56 338 67 c 1
 350 8 l 1
 316 -4 279 -10 240 -10 c 0
 183 -10 143 2 120 26 c 0
 97 51 85 93 85 153 c 2
 85 750 l 1
 163 750 l 1
EndSplineSet
EndChar

StartChar: lacute
Encoding: 314 314 293
Width: 368
Flags: W
LayerCount: 2
Fore
SplineSet
163 750 m 1
 163 167 l 2
 163 120 169 88 182 73 c 0
 194 58 217 50 250 50 c 0
 281 50 310 56 338 67 c 1
 350 8 l 1
 316 -4 279 -10 240 -10 c 0
 183 -10 143 2 120 26 c 0
 97 51 85 93 85 153 c 2
 85 750 l 1
 163 750 l 1
115 790 m 1
 34 790 l 1
 137 1000 l 1
 238 1000 l 1
 115 790 l 1
EndSplineSet
EndChar

StartChar: lcaron
Encoding: 318 318 294
Width: 436
Flags: W
LayerCount: 2
Fore
SplineSet
163 750 m 1
 163 167 l 2
 163 120 169 88 182 73 c 0
 194 58 217 50 250 50 c 0
 281 50 310 56 338 67 c 1
 350 8 l 1
 316 -4 279 -10 240 -10 c 0
 183 -10 143 2 120 26 c 0
 97 51 85 93 85 153 c 2
 85 750 l 1
 163 750 l 1
306 770 m 1
 400 770 l 1
 287 470 l 1
 213 470 l 1
 306 770 l 1
EndSplineSet
EndChar

StartChar: uni013C
Encoding: 316 316 295
Width: 368
Flags: W
LayerCount: 2
Fore
SplineSet
163 750 m 1
 163 167 l 2
 163 120 169 88 182 73 c 0
 194 58 217 50 250 50 c 0
 281 50 310 56 338 67 c 1
 350 8 l 1
 316 -4 279 -10 240 -10 c 0
 183 -10 143 2 120 26 c 0
 97 51 85 93 85 153 c 2
 85 750 l 1
 163 750 l 1
153 -250 m 1
 72 -250 l 1
 175 -40 l 1
 276 -40 l 1
 153 -250 l 1
EndSplineSet
EndChar

StartChar: ldot
Encoding: 320 320 296
Width: 408
Flags: W
LayerCount: 2
Fore
SplineSet
163 750 m 1
 163 167 l 2
 163 120 169 88 182 73 c 0
 194 58 217 50 250 50 c 0
 281 50 310 56 338 67 c 1
 350 8 l 1
 316 -4 279 -10 240 -10 c 0
 183 -10 143 2 120 26 c 0
 97 51 85 93 85 153 c 2
 85 750 l 1
 163 750 l 1
264 429 m 1
 370 429 l 1
 370 322 l 1
 264 322 l 1
 264 429 l 1
EndSplineSet
EndChar

StartChar: uni01C9
Encoding: 457 457 297
Width: 563
Flags: W
LayerCount: 2
Fore
SplineSet
163 750 m 1
 163 167 l 2
 163 120 169 88 182 73 c 0
 194 58 217 50 250 50 c 0
 281 50 310 56 338 67 c 1
 350 8 l 1
 316 -4 279 -10 240 -10 c 0
 183 -10 143 2 120 26 c 0
 97 51 85 93 85 153 c 2
 85 750 l 1
 163 750 l 1
385 737 m 1
 479 737 l 1
 479 643 l 1
 385 643 l 1
 385 737 l 1
315 -150 m 0
 344 -140 364 -124 376 -100 c 0
 386 -75 392 -38 392 13 c 2
 392 520 l 1
 472 520 l 1
 472 13 l 2
 472 -52 464 -101 446 -136 c 0
 430 -170 400 -194 360 -208 c 0
 318 -223 259 -230 182 -230 c 1
 178 -163 l 1
 240 -163 286 -158 315 -150 c 0
EndSplineSet
EndChar

StartChar: lslash
Encoding: 322 322 298
Width: 457
Flags: W
LayerCount: 2
Fore
SplineSet
415 415 m 1
 39 253 l 1
 12 315 l 1
 389 477 l 1
 415 415 l 1
253 750 m 1
 253 167 l 2
 253 120 259 88 272 73 c 0
 284 58 307 50 340 50 c 0
 371 50 400 56 428 67 c 1
 440 8 l 1
 406 -4 369 -10 330 -10 c 0
 273 -10 233 2 210 26 c 0
 187 51 175 93 175 153 c 2
 175 750 l 1
 253 750 l 1
EndSplineSet
EndChar

StartChar: m
Encoding: 109 109 299
Width: 815
Flags: W
LayerCount: 2
Fore
SplineSet
712 478 m 0
 734 444 746 391 746 320 c 2
 746 0 l 1
 668 0 l 1
 668 306 l 2
 668 357 661 396 646 423 c 0
 632 450 611 463 582 463 c 0
 559 463 537 455 516 438 c 0
 496 422 480 400 468 373 c 0
 456 346 450 316 450 285 c 2
 450 0 l 1
 372 0 l 1
 372 306 l 2
 372 357 365 396 350 423 c 0
 336 450 315 463 286 463 c 0
 262 463 240 454 220 436 c 0
 199 419 183 395 172 365 c 0
 160 335 154 302 154 266 c 2
 154 0 l 1
 76 0 l 1
 76 520 l 1
 150 520 l 1
 151 440 l 1
 153 440 l 1
 170 469 192 491 220 506 c 0
 246 522 276 530 309 530 c 0
 372 530 413 500 434 440 c 1
 435 440 l 1
 454 468 478 490 509 506 c 0
 540 522 572 530 606 530 c 0
 653 530 688 513 712 478 c 0
EndSplineSet
EndChar

StartChar: n
Encoding: 110 110 300
Width: 586
Flags: W
LayerCount: 2
Fore
SplineSet
517 320 m 2
 517 0 l 1
 437 0 l 1
 437 306 l 2
 437 411 401 463 328 463 c 0
 297 463 269 454 242 437 c 0
 216 420 195 396 179 367 c 0
 163 338 155 306 155 273 c 2
 155 0 l 1
 76 0 l 1
 76 520 l 1
 152 520 l 1
 152 433 l 1
 154 433 l 1
 174 463 201 487 236 504 c 0
 270 521 307 530 348 530 c 0
 461 530 517 460 517 320 c 2
EndSplineSet
EndChar

StartChar: nacute
Encoding: 324 324 301
Width: 586
Flags: W
LayerCount: 2
Fore
SplineSet
517 320 m 2
 517 0 l 1
 437 0 l 1
 437 306 l 2
 437 411 401 463 328 463 c 0
 297 463 269 454 242 437 c 0
 216 420 195 396 179 367 c 0
 163 338 155 306 155 273 c 2
 155 0 l 1
 76 0 l 1
 76 520 l 1
 152 520 l 1
 152 433 l 1
 154 433 l 1
 174 463 201 487 236 504 c 0
 270 521 307 530 348 530 c 0
 461 530 517 460 517 320 c 2
284 560 m 1
 203 560 l 1
 306 770 l 1
 407 770 l 1
 284 560 l 1
EndSplineSet
EndChar

StartChar: ncaron
Encoding: 328 328 302
Width: 586
Flags: W
LayerCount: 2
Fore
SplineSet
517 320 m 2
 517 0 l 1
 437 0 l 1
 437 306 l 2
 437 411 401 463 328 463 c 0
 297 463 269 454 242 437 c 0
 216 420 195 396 179 367 c 0
 163 338 155 306 155 273 c 2
 155 0 l 1
 76 0 l 1
 76 520 l 1
 152 520 l 1
 152 433 l 1
 154 433 l 1
 174 463 201 487 236 504 c 0
 270 521 307 530 348 530 c 0
 461 530 517 460 517 320 c 2
89 770 m 1
 184 770 l 1
 293 598 l 1
 295 598 l 1
 404 770 l 1
 499 770 l 1
 363 560 l 1
 225 560 l 1
 89 770 l 1
EndSplineSet
EndChar

StartChar: uni0146
Encoding: 326 326 303
Width: 586
Flags: W
LayerCount: 2
Fore
SplineSet
517 320 m 2
 517 0 l 1
 437 0 l 1
 437 306 l 2
 437 411 401 463 328 463 c 0
 297 463 269 454 242 437 c 0
 216 420 195 396 179 367 c 0
 163 338 155 306 155 273 c 2
 155 0 l 1
 76 0 l 1
 76 520 l 1
 152 520 l 1
 152 433 l 1
 154 433 l 1
 174 463 201 487 236 504 c 0
 270 521 307 530 348 530 c 0
 461 530 517 460 517 320 c 2
272 -250 m 1
 191 -250 l 1
 294 -40 l 1
 395 -40 l 1
 272 -250 l 1
EndSplineSet
EndChar

StartChar: eng
Encoding: 331 331 304
Width: 585
Flags: W
LayerCount: 2
Fore
SplineSet
516 320 m 2
 516 -38 l 2
 516 -101 503 -146 477 -175 c 0
 451 -204 409 -218 352 -218 c 0
 319 -218 285 -213 250 -202 c 1
 263 -135 l 1
 289 -144 314 -148 338 -148 c 0
 373 -148 399 -140 414 -122 c 0
 430 -106 438 -77 438 -38 c 2
 438 307 l 2
 438 411 401 463 328 463 c 0
 297 463 269 454 242 437 c 0
 216 420 195 396 179 367 c 0
 163 338 155 306 155 273 c 2
 155 0 l 1
 76 0 l 1
 76 520 l 1
 152 520 l 1
 152 425 l 1
 154 425 l 1
 174 458 201 483 235 502 c 0
 269 521 307 530 348 530 c 0
 460 530 516 460 516 320 c 2
EndSplineSet
EndChar

StartChar: uni01CC
Encoding: 460 460 305
Width: 902
Flags: W
LayerCount: 2
Fore
SplineSet
517 320 m 2
 517 0 l 1
 437 0 l 1
 437 306 l 2
 437 411 401 463 328 463 c 0
 297 463 269 454 242 437 c 0
 216 420 195 396 179 367 c 0
 163 338 155 306 155 273 c 2
 155 0 l 1
 76 0 l 1
 76 520 l 1
 152 520 l 1
 152 433 l 1
 154 433 l 1
 174 463 201 487 236 504 c 0
 270 521 307 530 348 530 c 0
 461 530 517 460 517 320 c 2
725 737 m 1
 819 737 l 1
 819 643 l 1
 725 643 l 1
 725 737 l 1
655 -150 m 0
 684 -140 704 -124 716 -100 c 0
 726 -75 732 -38 732 13 c 2
 732 520 l 1
 812 520 l 1
 812 13 l 2
 812 -52 804 -101 786 -136 c 0
 770 -170 740 -194 700 -208 c 0
 658 -223 599 -230 522 -230 c 1
 518 -163 l 1
 580 -163 626 -158 655 -150 c 0
EndSplineSet
EndChar

StartChar: ntilde
Encoding: 241 241 306
Width: 586
Flags: W
LayerCount: 2
Fore
SplineSet
517 320 m 2
 517 0 l 1
 437 0 l 1
 437 306 l 2
 437 411 401 463 328 463 c 0
 297 463 269 454 242 437 c 0
 216 420 195 396 179 367 c 0
 163 338 155 306 155 273 c 2
 155 0 l 1
 76 0 l 1
 76 520 l 1
 152 520 l 1
 152 433 l 1
 154 433 l 1
 174 463 201 487 236 504 c 0
 270 521 307 530 348 530 c 0
 461 530 517 460 517 320 c 2
281 633 m 0
 250 655 226 666 208 666 c 0
 197 666 190 661 184 650 c 0
 180 639 177 621 177 596 c 1
 103 596 l 1
 103 646 110 683 124 708 c 0
 139 732 161 744 192 744 c 0
 223 744 261 728 305 697 c 0
 335 675 359 664 377 664 c 0
 388 664 396 669 400 680 c 0
 406 691 408 709 408 734 c 1
 482 734 l 1
 482 684 475 647 460 622 c 0
 446 598 424 586 394 586 c 0
 364 586 326 602 281 633 c 0
EndSplineSet
EndChar

StartChar: o
Encoding: 111 111 307
Width: 567
Flags: W
LayerCount: 2
Fore
SplineSet
103 61 m 0
 60 108 38 175 38 260 c 0
 38 345 60 412 103 459 c 0
 146 506 207 530 284 530 c 0
 361 530 422 506 464 458 c 0
 508 411 529 345 529 260 c 0
 529 175 508 109 464 62 c 0
 422 14 361 -10 284 -10 c 0
 207 -10 146 14 103 61 c 0
407 110 m 0
 436 144 450 195 450 260 c 0
 450 325 436 376 407 410 c 0
 378 446 337 463 284 463 c 0
 231 463 190 446 160 410 c 0
 132 376 117 325 117 260 c 0
 117 195 132 144 160 110 c 0
 190 74 231 57 284 57 c 0
 337 57 378 74 407 110 c 0
EndSplineSet
EndChar

StartChar: oacute
Encoding: 243 243 308
Width: 567
Flags: W
LayerCount: 2
Fore
SplineSet
103 61 m 0
 60 108 38 175 38 260 c 0
 38 345 60 412 103 459 c 0
 146 506 207 530 284 530 c 0
 361 530 422 506 464 458 c 0
 508 411 529 345 529 260 c 0
 529 175 508 109 464 62 c 0
 422 14 361 -10 284 -10 c 0
 207 -10 146 14 103 61 c 0
407 110 m 0
 436 144 450 195 450 260 c 0
 450 325 436 376 407 410 c 0
 378 446 337 463 284 463 c 0
 231 463 190 446 160 410 c 0
 132 376 117 325 117 260 c 0
 117 195 132 144 160 110 c 0
 190 74 231 57 284 57 c 0
 337 57 378 74 407 110 c 0
274 560 m 1
 193 560 l 1
 296 770 l 1
 397 770 l 1
 274 560 l 1
EndSplineSet
EndChar

StartChar: obreve
Encoding: 335 335 309
Width: 567
Flags: W
LayerCount: 2
Fore
SplineSet
103 61 m 0
 60 108 38 175 38 260 c 0
 38 345 60 412 103 459 c 0
 146 506 207 530 284 530 c 0
 361 530 422 506 464 458 c 0
 508 411 529 345 529 260 c 0
 529 175 508 109 464 62 c 0
 422 14 361 -10 284 -10 c 0
 207 -10 146 14 103 61 c 0
407 110 m 0
 436 144 450 195 450 260 c 0
 450 325 436 376 407 410 c 0
 378 446 337 463 284 463 c 0
 231 463 190 446 160 410 c 0
 132 376 117 325 117 260 c 0
 117 195 132 144 160 110 c 0
 190 74 231 57 284 57 c 0
 337 57 378 74 407 110 c 0
152 623 m 0
 118 652 98 689 94 734 c 1
 179 734 l 1
 183 705 194 683 212 668 c 0
 231 653 255 645 284 645 c 0
 313 645 337 653 355 668 c 0
 373 683 384 705 388 734 c 1
 473 734 l 1
 469 689 450 652 414 623 c 0
 380 594 336 580 284 580 c 0
 231 580 188 594 152 623 c 0
EndSplineSet
EndChar

